<svg width="623" height="465" viewBox="0 0 623 465" fill="none" xmlns="http://www.w3.org/2000/svg">
<path fill-rule="evenodd" clip-rule="evenodd" d="M425.852 101.463C430.345 101.26 434.324 102.558 437.788 105.355C440.697 107.829 443.12 110.683 445.054 113.919C443.009 113.869 441.105 113.177 439.345 111.843C440.575 112.025 441.786 112.112 442.978 112.102C441.244 110.196 439.341 108.465 437.269 106.912C437.961 106.566 437.961 106.221 437.269 105.874C435.101 104.125 432.679 103.346 430.004 103.539C428.443 103.105 427.059 102.413 425.852 101.463Z" fill="white"/>
<path fill-rule="evenodd" clip-rule="evenodd" d="M425.311 101.462C425.484 101.462 425.657 101.462 425.83 101.462C427.037 102.412 428.422 103.104 429.982 103.538C432.658 103.346 435.08 104.124 437.248 105.874C437.94 106.22 437.94 106.566 437.248 106.912C439.32 108.465 441.223 110.195 442.957 112.102C441.765 112.111 440.554 112.025 439.324 111.842C435.466 110.173 431.661 108.357 427.906 106.393C423.452 104.36 419.473 105.052 415.969 108.469C413.266 108.933 411.363 107.895 410.26 105.355C411.409 104.275 412.793 103.583 414.412 103.279C414.683 102.988 414.856 102.642 414.931 102.241C413.805 99.8951 412.248 97.9058 410.26 96.2725C410.93 95.7675 410.93 95.2485 410.26 94.7155C407.145 92.9847 404.204 90.9954 401.438 88.7471C409.422 88.8462 415.477 92.3063 419.602 99.127C420.813 99.2998 422.024 99.4732 423.235 99.646C423.836 100.44 424.528 101.045 425.311 101.462Z" fill="white"/>
<path fill-rule="evenodd" clip-rule="evenodd" d="M425.329 101.462C424.546 101.045 423.854 100.439 423.253 99.6456C422.043 99.4727 420.831 99.2994 419.62 99.1266C415.495 92.3059 409.44 88.8458 401.456 88.7467C404.222 90.9949 407.163 92.9843 410.279 94.7151C410.949 95.2481 410.949 95.7671 410.279 96.2721C405.89 92.7772 401.219 89.6632 396.266 86.9302C402.437 86.9738 408.319 88.4441 413.911 91.3416C416.178 93.4347 418.254 95.6836 420.139 98.0886C421.696 98.2614 423.253 98.4348 424.81 98.6076C425.329 99.1266 425.848 99.6456 426.367 100.165C425.716 100.381 425.369 100.813 425.329 101.462Z" fill="white"/>
<path fill-rule="evenodd" clip-rule="evenodd" d="M240.542 82.7773C237.274 85.3525 234.16 88.1203 231.201 91.0811C229.311 93.3158 227.235 95.3917 224.973 97.3088C224.895 96.7629 224.982 96.2439 225.232 95.7519C227.724 94.524 228.762 92.6214 228.346 90.0431C229.502 90.4578 230.194 89.9388 230.422 88.4861C231.864 89.1011 232.642 88.5822 232.757 86.9292C235.233 85.3178 237.828 83.9336 240.542 82.7773Z" fill="#FF0000"/>
<path fill-rule="evenodd" clip-rule="evenodd" d="M224.992 97.3091C223.686 99.5752 222.129 101.651 220.32 103.538C220.658 102.533 220.831 101.495 220.839 100.423C221.358 100.423 221.877 100.423 222.397 100.423C222.397 99.7315 222.397 99.0391 222.397 98.3472C223.342 98.1754 224.207 97.8292 224.992 97.3091Z" fill="#FF0000"/>
<path fill-rule="evenodd" clip-rule="evenodd" d="M283.125 53.7149C288.145 53.6288 293.162 53.7149 298.176 53.9744C304.05 54.8556 309.931 55.6341 315.821 56.3098C315.994 56.3098 316.167 56.3098 316.34 56.3098C319.073 58.2747 322.187 59.5721 325.682 60.2022C326.138 60.9059 326.312 61.6844 326.201 62.5376C323.792 62.3342 322.581 63.3721 322.568 65.6515C320.066 66.5 317.471 66.8462 314.783 66.6895C314.61 66.6895 314.437 66.6895 314.264 66.6895C312.763 65.7735 311.033 65.1678 309.074 64.873C303.735 64.1407 298.372 63.7079 292.986 63.5756C286.575 64.08 280.174 64.7718 273.784 65.6515C272.732 65.5674 271.694 65.6541 270.67 65.911C267.779 67.0969 264.839 68.1348 261.847 69.0249C260.969 69.7032 260.277 70.4817 259.771 71.3603C256.403 72.1372 253.202 73.348 250.17 74.9932C248.53 76.246 247.06 77.6296 245.759 79.145C245.412 79.3178 245.067 79.4912 244.721 79.664C244.175 79.5867 243.656 79.6728 243.164 79.9235C241.988 80.6636 241.123 81.6154 240.569 82.7779C237.854 83.9342 235.26 85.3183 232.784 86.9298C232.669 88.5827 231.89 89.1017 230.449 88.4867C230.221 89.9393 229.529 90.4583 228.373 90.0436C228.789 92.6219 227.751 94.5245 225.259 95.7524C225.008 96.2444 224.922 96.7634 224.999 97.3094C224.215 97.8294 223.35 98.1756 222.404 98.3474C222.404 99.0392 222.404 99.7315 222.404 100.423C221.885 100.423 221.366 100.423 220.847 100.423C220.839 101.495 220.666 102.533 220.328 103.537C219.077 103.638 218.558 104.33 218.771 105.613C217.557 105.868 216.519 106.474 215.658 107.43C216.254 108.262 216.254 109.127 215.658 110.024C214.085 112.315 212.614 114.651 211.246 117.031C210.14 120.453 209.188 123.913 208.392 127.41C208.392 127.583 208.392 127.757 208.392 127.929C207.497 129.819 206.545 131.722 205.537 133.638C205.216 136.602 204.784 139.543 204.24 142.461C203.732 143.117 203.213 143.81 202.683 144.537C202.51 143.412 202.337 142.288 202.164 141.163C202.991 135.923 203.337 130.647 203.202 125.334C206.845 112.339 212.814 100.575 221.107 90.0436C221.818 88.2319 222.596 86.5016 223.442 84.8538C223.615 84.8538 223.788 84.8538 223.961 84.8538C228.024 80.8774 232.176 76.985 236.417 73.1767C240.925 70.9954 244.904 68.141 248.353 64.6135C250.345 64.3992 251.902 63.534 253.024 62.0186C258.554 60.17 263.917 58.0941 269.113 55.7908C273.684 54.728 278.355 54.0362 283.125 53.7149Z" fill="#FF0000"/>
<path fill-rule="evenodd" clip-rule="evenodd" d="M269.089 55.792C263.893 58.0953 258.529 60.1713 253 62.0199C254.038 61.3281 255.076 60.6358 256.114 59.944C260.379 58.3496 264.703 56.9654 269.089 55.792Z" fill="#FF0000"/>
<path fill-rule="evenodd" clip-rule="evenodd" d="M253.015 62.019C251.893 63.5347 250.336 64.4 248.344 64.6144C249.646 63.3562 251.203 62.4914 253.015 62.019Z" fill="#FF0000"/>
<path fill-rule="evenodd" clip-rule="evenodd" d="M342.797 69.2825C342.97 69.2825 343.143 69.2825 343.316 69.2825C343.424 71.1737 344.462 72.2984 346.43 72.6559C348.358 75.8794 351.126 78.0416 354.734 79.1434C356.254 81.2744 357.898 83.3504 359.665 85.3713C360.013 85.7616 360.445 85.935 360.962 85.8903C363.489 89.1154 365.565 92.5755 367.19 96.2702C367.079 97.1235 367.252 97.902 367.709 98.6057C366.648 98.86 365.61 98.7734 364.595 98.3462C364.595 98.1734 364.595 98.0001 364.595 97.8272C363.243 95.948 361.859 94.0448 360.443 92.1183C357.245 90.0444 354.65 87.3627 352.658 84.0739C348.69 81.495 344.711 78.9 340.721 76.2889C339.02 75.3501 337.29 74.5716 335.531 73.9534C335.531 72.9154 335.531 71.8775 335.531 70.8395C335.954 69.7335 336.213 68.5227 336.31 67.2065C336.601 66.9356 336.947 66.7628 337.348 66.6875C339.2 67.5049 341.016 68.3701 342.797 69.2825Z" fill="#FF0000"/>
<path fill-rule="evenodd" clip-rule="evenodd" d="M259.772 71.3604C258.388 72.2256 257.004 73.0903 255.62 73.9555C252.334 75.4244 249.22 77.1544 246.277 79.1459C246.104 79.1459 245.931 79.1459 245.758 79.1459C247.059 77.6303 248.53 76.2466 250.17 74.9936C253.202 73.3483 256.403 72.1374 259.772 71.3604Z" fill="#FF0000"/>
<path fill-rule="evenodd" clip-rule="evenodd" d="M335.52 70.8394C335.52 71.8773 335.52 72.9153 335.52 73.9533C337.279 74.5715 339.009 75.3499 340.71 76.2888C344.7 78.8999 348.679 81.4949 352.647 84.0737C354.639 87.3626 357.234 90.0443 360.432 92.1182C361.848 94.0447 363.232 95.9478 364.584 97.8271C359.119 92.2759 353.41 86.9993 347.457 81.9978C343.501 79.1656 339.349 76.6573 335.001 74.4723C334.844 73.1442 335.018 71.9329 335.52 70.8394Z" fill="#FF0000"/>
<path fill-rule="evenodd" clip-rule="evenodd" d="M248.354 64.6118C244.904 68.1394 240.925 70.9939 236.417 73.1752C232.176 76.9836 228.024 80.8761 223.961 84.8526C224.612 83.5069 225.476 82.2956 226.556 81.2197C229.338 78.6102 232.106 76.0152 234.86 73.4347C235.572 72.9095 236.264 72.3905 236.936 71.8778C240.07 69.6227 243.183 67.3734 246.278 65.1308C246.97 64.958 247.662 64.7846 248.354 64.6118Z" fill="#FF0000"/>
<path fill-rule="evenodd" clip-rule="evenodd" d="M244.705 79.6641C243.481 80.8848 242.097 81.9223 240.555 82.7767C241.109 81.6147 241.973 80.6633 243.149 79.9235C243.64 79.6729 244.159 79.5868 244.705 79.6641Z" fill="#FF0000"/>
<path fill-rule="evenodd" clip-rule="evenodd" d="M360.961 85.8921C361.307 86.0649 361.653 86.2383 361.999 86.4111C364.265 89.5373 366.514 92.6515 368.747 95.7538C369.446 97.1516 370.138 98.5359 370.823 99.9061C369.438 98.8681 368.227 97.6572 367.189 96.2729C365.564 92.5778 363.488 89.1174 360.961 85.8921Z" fill="#FF0000"/>
<path fill-rule="evenodd" clip-rule="evenodd" d="M367.181 96.272C368.219 97.6561 369.43 98.867 370.814 99.9049C370.731 100.787 370.817 101.652 371.073 102.5C372.383 104.437 373.68 106.34 374.966 108.209C375.57 110.272 376.002 112.348 376.263 114.437C374.064 110.332 371.642 106.353 368.997 102.5C368.526 101.494 367.748 100.975 366.662 100.943C365.97 100.078 365.278 99.2131 364.586 98.348C365.601 98.7751 366.639 98.8618 367.7 98.6075C367.243 97.9037 367.07 97.1252 367.181 96.272Z" fill="#FF0000"/>
<path fill-rule="evenodd" clip-rule="evenodd" d="M370.82 99.9023C372.741 102.36 374.124 105.128 374.971 108.205C373.685 106.336 372.388 104.434 371.079 102.497C370.823 101.649 370.737 100.784 370.82 99.9023Z" fill="#FF0000"/>
<path fill-rule="evenodd" clip-rule="evenodd" d="M366.664 100.941C367.75 100.973 368.528 101.492 369 102.498C371.644 106.351 374.066 110.33 376.265 114.435C376.004 112.346 375.572 110.27 374.968 108.207C377.896 113.707 379.799 119.589 380.677 125.853C380.677 126.199 380.504 126.372 380.158 126.372C376.981 117.155 372.483 108.678 366.664 100.941Z" fill="#FF0000"/>
<path fill-rule="evenodd" clip-rule="evenodd" d="M380.675 125.854C381.6 127.246 381.859 128.803 381.454 130.525C380.965 129.148 380.533 127.763 380.156 126.373C380.502 126.373 380.675 126.2 380.675 125.854Z" fill="#FF0000"/>
<path fill-rule="evenodd" clip-rule="evenodd" d="M283.633 53.1952C287.343 52.6804 291.148 52.5076 295.051 52.6762C296.435 52.6762 297.819 52.6762 299.203 52.6762C302.723 53.0323 306.183 53.7246 309.583 54.7522C300.986 53.4475 292.336 52.9285 283.633 53.1952Z" fill="#FF0000"/>
<path fill-rule="evenodd" clip-rule="evenodd" d="M283.117 53.7144C283.117 53.5415 283.117 53.3682 283.117 53.1954C283.29 53.1954 283.463 53.1954 283.636 53.1954C292.339 52.9286 300.989 53.4476 309.586 54.7524C311.797 54.9589 313.873 55.4779 315.814 56.3093C309.924 55.6336 304.042 54.8551 298.168 53.9739C293.154 53.7144 288.137 53.6282 283.117 53.7144Z" fill="#FF0000"/>
<path fill-rule="evenodd" clip-rule="evenodd" d="M283.1 53.1963C283.1 53.3691 283.1 53.5425 283.1 53.7153C278.329 54.0366 273.658 54.7285 269.086 55.7915C271.209 55.26 273.285 54.5681 275.314 53.7153C277.906 53.4994 280.501 53.3266 283.1 53.1963Z" fill="#FF0000"/>
<path fill-rule="evenodd" clip-rule="evenodd" d="M273.772 65.6507C273.455 66.1132 273.282 66.6322 273.253 67.2078C270.513 68.0056 267.745 68.6974 264.948 69.284C263.604 69.2637 262.566 69.7828 261.834 70.8411C261.207 71.2221 260.515 71.3949 259.758 71.3601C260.264 70.4814 260.956 69.7028 261.834 69.0244C264.826 68.1343 267.767 67.0962 270.658 65.9102C271.682 65.6533 272.72 65.5666 273.772 65.6507Z" fill="#FF0000"/>
<path fill-rule="evenodd" clip-rule="evenodd" d="M314.235 66.6892C313.543 66.6892 312.851 66.6892 312.159 66.6892C306.365 65.1332 300.397 64.4409 294.254 64.6132C289.656 64.65 285.072 64.9095 280.5 65.3917C278.966 65.5365 277.582 65.9693 276.348 66.6892C275.277 66.698 274.239 66.8708 273.234 67.2082C273.264 66.6326 273.437 66.1136 273.753 65.6512C280.144 64.7715 286.545 64.0797 292.956 63.5752C298.342 63.7075 303.705 64.1404 309.045 64.8727C311.004 65.1675 312.734 65.7731 314.235 66.6892Z" fill="#FF0000"/>
<path fill-rule="evenodd" clip-rule="evenodd" d="M264.949 69.2843C264.077 70.0668 263.039 70.5857 261.836 70.841C262.568 69.7829 263.606 69.264 264.949 69.2843Z" fill="#FF0000"/>
<path fill-rule="evenodd" clip-rule="evenodd" d="M343.289 69.2837C345.53 70.8338 347.607 72.5645 349.519 74.4749C350.227 75.7 351.265 76.5654 352.633 77.0705C353.499 77.5896 354.191 78.2816 354.71 79.147C351.1 78.0449 348.332 75.8822 346.404 72.658C344.435 72.3003 343.397 71.1754 343.289 69.2837Z" fill="#FF0000"/>
<path fill-rule="evenodd" clip-rule="evenodd" d="M349.523 74.4741C350.867 74.951 351.905 75.816 352.637 77.0686C351.27 76.5637 350.232 75.6987 349.523 74.4741Z" fill="#FF0000"/>
<path fill-rule="evenodd" clip-rule="evenodd" d="M354.719 79.1445C357.173 81.0787 359.249 83.3273 360.946 85.891C360.429 85.9356 359.997 85.7623 359.649 85.372C357.882 83.3512 356.239 81.2754 354.719 79.1445Z" fill="#FF0000"/>
<path fill-rule="evenodd" clip-rule="evenodd" d="M223.436 84.8555C222.59 86.5033 221.812 88.2336 221.101 90.0454C212.807 100.577 206.839 112.341 203.195 125.337C203.78 122.76 204.299 120.165 204.752 117.552C206.722 112.688 208.798 107.844 210.98 103.02C214.727 96.6803 218.879 90.6251 223.436 84.8555Z" fill="#FF0000"/>
<path fill-rule="evenodd" clip-rule="evenodd" d="M220.328 103.536C220.328 103.882 220.328 104.228 220.328 104.574C217.383 108.381 214.962 112.533 213.062 117.03C211.976 118.373 211.284 119.93 210.986 121.701C210.221 123.648 209.356 125.55 208.391 127.41C209.187 123.912 210.139 120.452 211.245 117.03C212.613 114.65 214.083 112.314 215.657 110.024C216.253 109.126 216.253 108.261 215.657 107.429C216.518 106.473 217.556 105.867 218.771 105.612C218.557 104.329 219.076 103.637 220.328 103.536Z" fill="#FF0000"/>
<path fill-rule="evenodd" clip-rule="evenodd" d="M208.38 127.93C208.124 129.127 207.951 130.338 207.861 131.563C206.87 133.095 206.351 134.826 206.304 136.753C205.234 139.709 204.715 142.823 204.747 146.095C204.311 147.07 204.137 148.108 204.228 149.209C204.055 149.209 203.882 149.209 203.709 149.209C203.643 146.935 203.816 144.686 204.228 142.462C204.772 139.544 205.204 136.603 205.526 133.639C206.534 131.723 207.485 129.82 208.38 127.93Z" fill="#FF0000"/>
<path fill-rule="evenodd" clip-rule="evenodd" d="M203.183 125.333C203.318 130.646 202.972 135.922 202.145 141.163C202.318 142.288 202.491 143.412 202.664 144.536C203.194 143.809 203.713 143.117 204.221 142.46C203.809 144.684 203.636 146.934 203.702 149.207C203.357 150.862 203.01 152.593 202.664 154.397C202.36 154.289 202.101 154.115 201.886 153.878C201.626 147.48 201.54 141.079 201.626 134.675C201.626 133.81 201.626 132.946 201.626 132.08C201.874 129.708 202.393 127.459 203.183 125.333Z" fill="#FF0000"/>
<path fill-rule="evenodd" clip-rule="evenodd" d="M201.633 134.677C201.546 141.08 201.633 147.481 201.892 153.88C202.107 154.117 202.366 154.29 202.671 154.399C203.017 152.594 203.363 150.864 203.709 149.209C203.795 154.575 203.709 159.937 203.449 165.297C203.25 165.009 202.991 164.836 202.671 164.778C200.533 154.727 200.187 144.693 201.633 134.677Z" fill="#FF0000"/>
<path fill-rule="evenodd" clip-rule="evenodd" d="M316.312 56.3096C318.239 56.7476 320.141 57.2667 322.022 57.8667C323.772 58.7729 325.589 59.6376 327.472 60.4619C327.617 61.4543 327.184 62.1467 326.174 62.538C326.285 61.6847 326.112 60.9062 325.655 60.2023C322.16 59.5722 319.046 58.2746 316.312 56.3096Z" fill="#FF0000"/>
<path fill-rule="evenodd" clip-rule="evenodd" d="M326.171 62.5377C325.132 63.7488 324.094 64.9604 323.056 66.1716C322.126 67.1896 321.001 67.8821 319.682 68.248C317.932 67.866 316.289 67.3468 314.75 66.6907C317.439 66.8475 320.034 66.5012 322.537 65.6524C322.55 63.3725 323.761 62.3342 326.171 62.5377Z" fill="#FF0000"/>
<path fill-rule="evenodd" clip-rule="evenodd" d="M336.569 65.1328C338.828 66.2605 340.903 67.6446 342.797 69.2845C341.016 68.3721 339.199 67.507 337.348 66.6897C336.947 66.7649 336.601 66.9377 336.31 67.2086C336.213 68.5247 335.954 69.7355 335.531 70.8414C335.332 68.7712 335.678 66.8687 336.569 65.1328Z" fill="#FF0000"/>
<path fill-rule="evenodd" clip-rule="evenodd" d="M203.702 149.208C203.875 149.208 204.048 149.208 204.221 149.208C204.188 157.009 204.275 164.793 204.481 172.563C204.268 171.836 204.008 171.144 203.702 170.487C203.438 168.568 203.093 166.665 202.664 164.778C202.984 164.835 203.244 165.008 203.443 165.297C203.702 159.937 203.788 154.574 203.702 149.208Z" fill="#FF0000"/>
<path fill-rule="evenodd" clip-rule="evenodd" d="M317.367 81.7392C317.398 81.4574 317.571 81.2846 317.886 81.2202C318.24 81.6058 318.586 81.9515 318.924 82.2582C318.476 84.0347 317.87 85.7645 317.107 87.4482C314.568 92.499 310.676 95.9592 305.43 97.8281C305.43 97.6553 305.43 97.4819 305.43 97.3091C311.698 94.2351 315.85 89.3046 317.886 82.5177C317.849 82.1207 317.676 81.8612 317.367 81.7392Z" fill="white"/>
<path fill-rule="evenodd" clip-rule="evenodd" d="M319.957 78.6255C319.373 79.2234 319.373 79.7424 319.957 80.1825C320.472 80.0932 320.818 80.2666 320.995 80.7015C319.712 80.4876 319.02 81.0066 318.919 82.2585C318.581 81.9517 318.235 81.6061 317.881 81.2205C317.566 81.2848 317.393 81.4576 317.362 81.7395C312.973 86.6435 308.994 91.8334 305.425 97.3093C305.425 97.4822 305.425 97.6555 305.425 97.8283C305.109 98.2908 304.936 98.8097 304.906 99.3853C304.309 98.8014 303.79 98.8014 303.349 99.3853C298.112 106.694 293.095 114.134 288.299 121.702C287.569 121.457 287.223 120.938 287.261 120.145C296.079 105.454 306.285 91.7872 317.881 79.1445C318.573 78.9717 319.266 78.7983 319.957 78.6255Z" fill="white"/>
<path fill-rule="evenodd" clip-rule="evenodd" d="M239.515 104.575C240.796 104.762 241.834 105.281 242.629 106.132C241.035 106.429 240.343 107.38 240.553 108.987C241.68 113.389 242.545 113.389 243.148 108.987C241.901 108.569 241.988 108.137 243.407 107.689C244.228 108.447 244.92 109.312 245.483 110.284C245.957 109.685 246.39 109.772 246.78 110.544C246.434 110.716 246.089 110.89 245.743 111.063C246.261 111.495 246.78 111.928 247.299 112.36C246.777 112.825 246.777 113.171 247.299 113.398C247.933 113.197 248.279 112.765 248.337 112.101C247.907 111.34 247.821 110.562 248.078 109.765C248.645 111.085 248.991 112.47 249.116 113.917C249.84 114.969 250.705 115.142 251.711 114.436C251.967 115.284 252.053 116.149 251.97 117.031C251.128 116.958 250.522 117.305 250.154 118.069C249.971 117.252 249.625 116.387 249.116 115.474C248.943 115.82 248.77 116.166 248.597 116.512C247.674 116.004 246.809 116.177 246.002 117.031C245.217 116.638 244.525 116.119 243.926 115.474C243.58 116.512 242.888 117.204 241.85 117.55C241.668 116.549 241.322 115.511 240.812 114.436C239.42 115.159 239.333 115.851 240.553 116.512C239.939 117.533 240.285 118.225 241.591 118.588C241.411 119.209 241.151 119.209 240.812 118.588C240.584 119.406 240.151 120.098 239.515 120.664C240.25 120.85 240.942 121.456 241.591 122.481C240.28 122.572 239.328 121.967 238.736 120.664C237.338 122.747 235.954 124.477 234.584 125.854C234.411 125.508 234.238 125.162 234.065 124.816C232.978 126.706 232.199 128.522 231.73 130.265C232.199 132.399 232.372 134.562 232.249 136.753C231.73 136.753 231.211 136.753 230.692 136.753C230.803 137.606 230.629 138.385 230.173 139.088C231.5 139.805 231.5 140.583 230.173 141.424C230.273 142.239 230.273 143.017 230.173 143.759C230.519 143.932 230.864 144.106 231.211 144.278C231.15 144.936 230.978 145.629 230.692 146.354C232.925 147.641 232.752 148.42 230.173 148.69C230.692 149.036 231.211 149.382 231.73 149.728C231.196 149.622 230.677 149.881 230.173 150.506C230.99 150.69 231.855 151.036 232.768 151.544C232.085 152.268 232.258 152.787 233.287 153.101C230.743 153.402 230.57 154.267 232.768 155.696C232.098 156.781 232.444 157.473 233.806 157.772C233.006 158.592 232.4 159.544 231.989 160.627C230.859 159.904 230.34 159.039 230.432 158.032C228.954 158.516 228.868 159.294 230.173 160.367C229.913 160.627 229.654 160.886 229.394 161.146C228.947 160.322 228.601 159.457 228.356 158.551C227.828 159.863 227.223 159.863 226.54 158.551C226.181 158.823 225.921 159.169 225.761 159.589C225.535 157.6 225.968 155.783 227.059 154.139C226.712 153.966 226.367 153.793 226.021 153.62C226.485 150.452 226.831 147.252 227.059 144.019C227.365 143.19 227.884 142.498 228.616 141.943C228.157 141.399 227.811 140.793 227.578 140.126C228.042 139.402 228.388 138.623 228.616 137.791C228.467 136.456 228.467 135.159 228.616 133.898C228.962 133.726 229.307 133.552 229.654 133.379C228.728 132.826 228.469 132.047 228.875 131.044C229.913 128.968 230.951 126.892 231.989 124.816C232.693 124.359 233.471 124.186 234.325 124.297C234.159 122.319 234.938 121.627 236.66 122.221C236.747 121.962 236.833 121.702 236.92 121.443C236.549 117.892 235.943 114.345 235.103 110.803C235.344 110.06 235.777 109.455 236.401 108.987C236.13 108.696 235.957 108.349 235.882 107.949C236.372 105.99 237.583 104.866 239.515 104.575Z" fill="white"/>
<path fill-rule="evenodd" clip-rule="evenodd" d="M279.479 139.868C279.044 139.691 278.871 139.345 278.96 138.83C285.665 129.783 292.499 120.787 299.461 111.842C301.545 108.357 303.015 104.638 303.872 100.684C303.858 100.129 303.685 99.6964 303.353 99.3866C303.793 98.8027 304.312 98.8027 304.91 99.3866C303.467 107.116 300.094 113.863 294.79 119.627C294.433 120.059 294.519 120.405 295.049 120.665C301.347 116.702 307.575 112.637 313.733 108.469C317.416 105.826 320.789 102.798 323.853 99.3866C325.629 96.8373 327.013 94.0689 328.005 91.0826C329.514 84.9341 330.465 78.7062 330.86 72.3988C331.446 71.2944 331.532 70.0836 331.119 68.7658C330.853 69.2988 330.594 69.8178 330.341 70.3228C328.849 75.2725 325.735 78.7326 320.999 80.7027C320.821 80.2678 320.476 80.0945 319.961 80.1837C325.664 78.1986 329.038 74.2194 330.081 68.2468C326.588 71.6525 323.215 75.1126 319.961 78.6267C319.269 78.7996 318.577 78.9729 317.885 79.1457C322.199 74.4857 326.697 69.9875 331.379 65.6519C332.125 75.218 331.001 84.5599 328.005 93.6776C325.794 98.4882 322.594 102.553 318.404 105.874C309.408 112.102 300.412 118.33 291.416 124.558C287.119 129.442 283.14 134.545 279.479 139.868Z" fill="white"/>
<path fill-rule="evenodd" clip-rule="evenodd" d="M330.855 72.397C330.994 71.5675 330.82 70.876 330.336 70.3219C330.589 69.8172 330.848 69.2984 331.114 68.7656C331.527 70.0828 331.44 71.293 330.855 72.397Z" fill="white"/>
<path fill-rule="evenodd" clip-rule="evenodd" d="M257.158 110.282C256.278 110.898 255.413 110.811 254.563 110.023C252.396 108.192 250.666 106.029 249.373 103.535C248.918 103.146 248.399 102.886 247.816 102.757C245.567 102.411 243.318 102.411 241.069 102.757C240.441 103.296 239.922 103.902 239.512 104.573C237.581 104.864 236.369 105.988 235.879 107.947C235.954 108.348 236.127 108.694 236.398 108.985C235.775 109.454 235.342 110.059 235.1 110.801C235.941 114.344 236.546 117.89 236.917 121.441C236.83 121.7 236.744 121.96 236.657 122.219C234.935 121.626 234.156 122.317 234.322 124.295C233.469 124.184 232.69 124.358 231.986 124.814C230.948 126.89 229.91 128.966 228.872 131.042C228.466 132.045 228.726 132.824 229.651 133.378C229.305 133.55 228.959 133.724 228.613 133.897C228.464 135.157 228.464 136.454 228.613 137.789C228.385 138.622 228.039 139.4 227.575 140.125C227.808 140.792 228.155 141.397 228.613 141.941C227.881 142.496 227.362 143.188 227.056 144.017C226.681 144.234 226.422 144.58 226.277 145.055C226.086 147.313 225.827 149.562 225.499 151.802C225.426 152.596 225.08 153.115 224.461 153.359C224.758 149.549 225.104 145.742 225.499 141.941C226.189 135.461 228.178 129.406 231.467 123.776C233.005 122.759 234.389 121.548 235.619 120.143C235.966 118.932 235.966 117.721 235.619 116.51C232.975 111.439 233.926 107.027 238.474 103.276C241.35 101.563 244.464 101.044 247.816 101.719C248.899 102.13 249.851 102.736 250.67 103.535C251.905 106.758 254.068 109.007 257.158 110.282Z" fill="white"/>
<path fill-rule="evenodd" clip-rule="evenodd" d="M335.004 118.587C337.747 119.956 340.341 121.513 342.789 123.258C343.068 124.098 343.241 124.963 343.308 125.853C337.623 122.771 331.827 119.83 325.922 117.03C324.797 118.241 323.673 119.453 322.548 120.663C322.657 120.968 322.83 121.227 323.067 121.442C322.257 121.607 321.651 122.039 321.251 122.739C321.064 121.16 320.718 120.986 320.213 122.22C319.867 121.529 319.867 120.836 320.213 120.144C321.101 118.87 321.793 117.486 322.289 115.992C324.308 113.307 326.297 113.393 328.257 116.252C330.523 117.041 332.771 117.82 335.004 118.587Z" fill="white"/>
<path fill-rule="evenodd" clip-rule="evenodd" d="M335.014 118.589C332.782 117.821 330.533 117.042 328.267 116.253C326.307 113.394 324.318 113.308 322.299 115.994C321.803 117.487 321.111 118.871 320.223 120.146C319.877 120.837 319.877 121.53 320.223 122.221C320.729 120.987 321.075 121.161 321.261 122.74C321.662 122.04 322.267 121.608 323.078 121.443C322.84 121.228 322.667 120.969 322.559 120.665C323.683 119.454 324.807 118.242 325.932 117.032C331.838 119.831 337.633 122.772 343.318 125.854C343.251 124.964 343.079 124.099 342.799 123.259C346.93 125.668 350.909 128.263 354.736 131.044C355.565 132.215 355.219 132.908 353.698 133.12C352.403 132.56 351.192 131.868 350.065 131.044C342.287 126.462 334.329 122.137 326.191 118.07C325.684 118.317 325.252 118.663 324.894 119.108C321.891 125.759 319.123 132.506 316.59 139.348C315.363 141.004 314.066 142.561 312.698 144.019C312.659 143.028 312.14 142.422 311.141 142.203C311.795 141.625 312.4 141.539 312.957 141.943C313.303 141.252 313.822 140.733 314.514 140.386C315.926 138.587 316.877 136.684 317.369 134.677C316.591 133.454 315.725 133.367 314.774 134.418C314.946 134.591 315.12 134.764 315.293 134.937C314.28 136.013 313.328 137.138 312.438 138.31C312.231 138.192 312.145 138.019 312.179 137.791C314.967 132.11 317.303 126.228 319.185 120.146C320.335 117.758 321.805 115.596 323.597 113.658C324.462 113.312 325.326 113.312 326.191 113.658C329.332 115.053 332.274 116.696 335.014 118.589Z" fill="white"/>
<path fill-rule="evenodd" clip-rule="evenodd" d="M354.725 131.043C360.057 134.299 365.247 137.759 370.295 141.423C370.468 141.769 370.642 142.115 370.814 142.461C370.642 142.461 370.468 142.461 370.295 142.461C364.587 139.608 359.051 136.494 353.688 133.119C355.209 132.906 355.554 132.214 354.725 131.043Z" fill="white"/>
<path fill-rule="evenodd" clip-rule="evenodd" d="M423.203 139.347C434.877 138.829 446.641 138.656 458.495 138.828C459.706 139.174 460.917 139.52 462.128 139.866C461.436 140.904 460.744 141.942 460.052 142.98C453.674 151.089 447.1 159.047 440.33 166.854C440.35 166.292 440.524 165.773 440.849 165.297C440.577 164.937 440.23 164.678 439.811 164.518C440.527 163.519 441.306 162.567 442.146 161.664C442.467 161.171 442.381 160.739 441.887 160.366C443.822 159.419 445.552 158.208 447.077 156.733C446.331 156.62 445.639 156.36 445.001 155.955C446.293 156.269 447.504 155.923 448.634 154.917C449.231 152.717 450.355 150.814 452.007 149.208C452.18 149.381 452.354 149.554 452.526 149.727C453.012 148.376 453.963 147.598 455.381 147.391C455.739 146.837 455.999 146.232 456.159 145.575C456.332 145.748 456.506 145.921 456.678 146.094C456.907 145.276 457.339 144.583 457.976 144.018C457.317 142.955 457.144 141.917 457.457 140.904C457.072 140.495 456.639 140.15 456.159 139.866C454.447 139.878 452.89 140.051 451.488 140.385C442.183 139.358 432.754 139.012 423.203 139.347Z" fill="white"/>
<path fill-rule="evenodd" clip-rule="evenodd" d="M458.531 138.829C459.956 138.667 461.34 138.839 462.681 139.348C462.617 139.663 462.444 139.835 462.163 139.867C460.952 139.521 459.742 139.175 458.531 138.829Z" fill="white"/>
<path fill-rule="evenodd" clip-rule="evenodd" d="M423.253 139.347C432.804 139.012 442.232 139.358 451.538 140.385C452.939 140.051 454.496 139.878 456.208 139.866C456.688 140.15 457.121 140.496 457.506 140.904C457.193 141.917 457.366 142.955 458.025 144.018C457.388 144.584 456.956 145.276 456.727 146.094C456.555 145.921 456.381 145.748 456.208 145.575C456.048 146.232 455.789 146.838 455.43 147.392C454.012 147.598 453.061 148.377 452.576 149.727C452.403 149.554 452.229 149.381 452.057 149.208C450.405 150.814 449.28 152.717 448.683 154.917C447.553 155.923 446.342 156.269 445.05 155.955C445.688 156.36 446.38 156.62 447.126 156.733C445.601 158.208 443.872 159.419 441.936 160.366C442.43 160.739 442.516 161.171 442.196 161.664C441.355 162.567 440.577 163.519 439.86 164.518C440.28 164.678 440.626 164.937 440.898 165.296C440.573 165.772 440.4 166.291 440.379 166.853C437.745 167.586 436.188 169.316 435.709 172.043C434.33 171.868 433.119 172.214 432.076 173.081C431.504 171.685 431.59 170.301 432.335 168.929C432.508 169.102 432.681 169.275 432.854 169.448C432.922 167.958 433.527 166.747 434.671 165.815C434.345 165.34 434.172 164.821 434.152 164.258C436.207 162.47 438.369 160.74 440.639 159.069C440.67 157.317 441.276 155.847 442.455 154.657C442.283 154.484 442.109 154.311 441.936 154.138C444.414 152.449 445.452 150.113 445.05 147.132C436.102 147.279 427.193 147.625 418.323 148.17C418.15 147.824 417.977 147.478 417.804 147.132C417.184 147.615 416.492 147.961 415.728 148.17C413.53 147.905 411.368 147.732 409.241 147.651C408.929 146.029 408.323 145.856 407.424 147.132C406.808 146.58 406.548 145.888 406.646 145.056C405.612 145.145 404.747 144.799 404.051 144.018C403.631 144.178 403.285 144.438 403.013 144.797C403.66 145.572 403.66 146.35 403.013 147.132C402.623 146.677 402.364 146.158 402.234 145.575C401.362 146.998 400.324 147.863 399.12 148.17C398.948 147.824 398.774 147.478 398.601 147.132C397.217 148.516 395.834 148.516 394.45 147.132C394.277 147.478 394.103 147.824 393.931 148.17C393.034 147.716 392.083 147.803 391.076 148.43C393.325 148.602 395.574 148.776 397.823 148.949C398.298 149.093 398.644 149.352 398.861 149.727C397.867 149.58 397.002 149.752 396.266 150.246C394.882 150.246 393.498 150.246 392.114 150.246C390.574 149.988 389.017 149.815 387.443 149.727C383.326 150.47 379.174 150.815 374.988 150.765C375.601 149.952 376.465 149.519 377.583 149.467C376.717 149.295 375.853 149.121 374.988 148.949C375.334 148.776 375.68 148.602 376.026 148.43C375.417 148.212 374.898 147.866 374.469 147.392C375.161 147.045 375.161 146.7 374.469 146.354C375.114 146.117 375.547 146.376 375.766 147.132C376.663 146.253 376.404 145.647 374.988 145.316C375.26 144.957 375.606 144.697 376.026 144.537C376.561 145.336 377.253 145.596 378.102 145.316C377.682 145.156 377.336 144.896 377.064 144.537C377.459 144.324 377.978 144.238 378.621 144.278C378.332 144.079 378.159 143.819 378.102 143.499C378.789 142.745 379.222 142.918 379.399 144.018C383.5 142.647 387.652 141.955 391.855 141.942C394.218 142.786 396.466 142.612 398.601 141.423C400.417 141.922 402.233 141.835 404.051 141.164C403.409 141.043 402.89 140.784 402.494 140.385C409.379 139.632 416.299 139.286 423.253 139.347Z" fill="white"/>
<path fill-rule="evenodd" clip-rule="evenodd" d="M287.249 120.145C287.211 120.937 287.557 121.456 288.287 121.702C284.77 127.175 281.656 132.884 278.945 138.828C278.855 139.343 279.029 139.689 279.464 139.866C278.719 141.188 277.855 142.4 276.869 143.499C276.616 142.04 277.135 140.743 278.426 139.607C277.49 138.01 276.452 137.924 275.312 139.347C273.81 142.439 272.253 145.466 270.641 148.43C269.323 148.843 268.112 148.756 267.008 148.17C268.029 148.294 268.981 148.122 269.862 147.651C274.892 137.923 280.687 128.754 287.249 120.145Z" fill="white"/>
<path fill-rule="evenodd" clip-rule="evenodd" d="M352.127 146.613C351.91 146.988 351.564 147.247 351.089 147.392C352.04 147.997 352.992 148.603 353.943 149.208C354.116 149.035 354.29 148.862 354.462 148.689C354.809 149.208 354.809 149.727 354.462 150.246C354.29 150.073 354.116 149.9 353.943 149.727C353.01 150.94 351.886 151.286 350.57 150.765C350.211 151.038 349.951 151.384 349.791 151.803C349.632 151.384 349.372 151.038 349.013 150.765C348.8 151.161 348.713 151.68 348.753 152.322C348.539 152.085 348.279 151.912 347.975 151.803C346.457 153.158 345.073 152.985 343.823 151.284C343.561 152.759 342.696 153.451 341.228 153.36C341.266 151.46 340.747 151.114 339.671 152.322C339.281 151.868 339.022 151.349 338.892 150.765C337.439 153.591 336.142 153.504 335 150.506C335.646 150.269 336.078 150.529 336.297 151.284C336.552 150.613 336.638 149.921 336.557 149.208C337.78 149.293 338.991 149.207 340.19 148.949C339.601 148.421 339.774 148.075 340.709 147.911C340.401 147.67 340.054 147.583 339.671 147.651C340.598 146.968 341.464 147.141 342.266 148.17C345.079 147.374 347.934 146.682 350.829 146.094C351.385 146.109 351.817 146.282 352.127 146.613Z" fill="white"/>
<path fill-rule="evenodd" clip-rule="evenodd" d="M434.134 164.258C434.48 163.393 434.826 162.528 435.172 161.663C438.299 157.493 441.24 153.167 443.995 148.688C444.277 148.657 444.45 148.484 444.514 148.169C441.667 147.487 438.898 147.487 436.21 148.169C427.389 148.588 418.566 149.021 409.741 149.467C409.284 149.834 408.938 150.267 408.703 150.764C408.184 151.11 407.665 151.456 407.146 151.802C406.77 149.796 407.462 148.412 409.222 147.65C411.35 147.731 413.512 147.905 415.71 148.169C416.474 147.96 417.166 147.614 417.786 147.131C417.959 147.478 418.132 147.823 418.305 148.169C427.175 147.624 436.084 147.278 445.033 147.131C445.435 150.112 444.397 152.448 441.919 154.138C442.092 154.311 442.265 154.484 442.438 154.657C441.258 155.846 440.653 157.317 440.622 159.068C438.352 160.74 436.189 162.47 434.134 164.258Z" fill="white"/>
<path fill-rule="evenodd" clip-rule="evenodd" d="M436.219 148.169C438.907 147.486 441.674 147.486 444.521 148.169C444.457 148.483 444.284 148.656 444.002 148.687C441.509 148.175 438.914 148.002 436.219 148.169Z" fill="white"/>
<path fill-rule="evenodd" clip-rule="evenodd" d="M378.07 143.499C378.127 143.819 378.3 144.078 378.589 144.277C377.946 144.237 377.427 144.323 377.032 144.536C377.304 144.896 377.65 145.155 378.07 145.315C377.221 145.595 376.529 145.336 375.994 144.536C375.575 144.696 375.228 144.956 374.956 145.315C376.372 145.647 376.631 146.252 375.734 147.131C375.515 146.376 375.083 146.116 374.437 146.353C375.129 146.699 375.129 147.045 374.437 147.391C374.867 147.866 375.386 148.211 375.994 148.429C375.648 148.602 375.302 148.775 374.956 148.948C375.821 149.121 376.686 149.294 377.551 149.467C376.433 149.518 375.569 149.951 374.956 150.764C374.636 150.707 374.376 150.534 374.177 150.245C373.386 150.878 372.434 151.225 371.323 151.283C365.256 151.823 359.201 152.342 353.159 152.84C352.668 152.587 352.149 152.415 351.602 152.321C350.62 152.826 349.582 153.172 348.488 153.359C342.136 153.391 335.909 154.17 329.804 155.695C323.724 156.164 317.669 156.77 311.64 157.511C310.671 157.28 309.719 157.107 308.786 156.992C307.919 158.145 306.882 158.318 305.672 157.511C303.746 158.591 301.67 159.283 299.444 159.587C298.635 159.312 297.856 158.966 297.109 158.549C295.149 159.981 292.9 160.759 290.362 160.884C288.499 160.992 286.683 161.251 284.913 161.663C284.698 161.426 284.438 161.252 284.134 161.144C282.554 161.813 280.997 161.986 279.463 161.663C281.058 159.31 280.539 158.272 277.906 158.549C279.747 157.202 281.65 157.202 283.615 158.549C284.824 157.424 286.208 156.559 287.767 155.954C289.151 156.646 290.535 156.646 291.919 155.954C292.278 156.227 292.537 156.573 292.697 156.992C295.485 156.766 297.821 155.641 299.703 153.619C299.268 152.754 299.527 152.667 300.482 153.359C301.001 152.84 301.52 152.321 302.039 151.802C302.558 152.321 303.077 152.84 303.596 153.359C304.756 152.976 305.794 152.976 306.71 153.359C308.073 153.069 309.37 152.464 310.602 151.543C313.129 150.823 315.637 150.737 318.127 151.283C320.467 151.015 322.889 150.496 325.393 149.726C326.068 149.965 326.76 150.138 327.469 150.245C329.19 149.195 331.006 149.022 332.918 149.726C333.427 148.958 334.033 148.265 334.735 147.65C336.375 148.992 338.019 148.992 339.665 147.65C340.049 147.582 340.395 147.669 340.703 147.91C339.768 148.074 339.596 148.421 340.184 148.948C338.985 149.206 337.774 149.292 336.551 149.207C336.633 149.92 336.546 150.612 336.292 151.283C336.072 150.528 335.64 150.268 334.994 150.505C336.136 153.503 337.433 153.59 338.887 150.764C339.016 151.348 339.275 151.867 339.665 152.321C340.741 151.113 341.26 151.459 341.222 153.359C342.69 153.45 343.555 152.758 343.817 151.283C345.067 152.984 346.451 153.157 347.969 151.802C348.273 151.911 348.532 152.084 348.747 152.321C348.707 151.679 348.793 151.16 349.007 150.764C349.366 151.037 349.625 151.383 349.785 151.802C349.945 151.383 350.205 151.037 350.564 150.764C351.879 151.285 353.004 150.939 353.937 149.726C354.11 149.899 354.283 150.072 354.456 150.245C354.802 149.726 354.802 149.207 354.456 148.688C354.283 148.861 354.11 149.035 353.937 149.207C352.986 148.602 352.034 147.997 351.083 147.391C351.558 147.247 351.904 146.987 352.121 146.612C352.79 147.464 353.655 147.723 354.716 147.391C354.369 147.218 354.024 147.045 353.678 146.872C354.723 146.652 355.675 146.219 356.532 145.574C357.456 145.698 358.408 145.871 359.386 146.093C360.003 145.398 360.781 145.052 361.722 145.055C363.463 145.137 365.192 145.137 366.912 145.055C367.402 145.266 367.748 145.612 367.95 146.093C367.983 144.857 368.416 144.511 369.247 145.055C369.97 144.348 370.835 143.916 371.842 143.758C373.911 143.499 375.987 143.412 378.07 143.499Z" fill="white"/>
<path fill-rule="evenodd" clip-rule="evenodd" d="M409.229 147.651C407.468 148.412 406.776 149.796 407.153 151.803C406.833 151.745 406.573 151.572 406.374 151.284C405.125 152.905 403.481 153.943 401.444 154.397C400.802 156.077 399.937 157.634 398.849 159.068C396.663 157.028 396.144 157.287 397.292 159.847C397.323 160.735 396.977 161.427 396.254 161.923C396.427 162.096 396.6 162.269 396.773 162.442C396.106 162.797 395.501 162.71 394.956 162.182C394.415 162.765 394.069 163.457 393.918 164.258C392.298 164.392 390.914 165.257 389.766 166.853C389.594 166.681 389.42 166.507 389.247 166.334C388.892 167.001 388.979 167.606 389.507 168.151C388.719 168.852 388.027 169.631 387.431 170.486C386.951 169.894 386.518 169.894 386.133 170.486C385.744 170.161 385.311 169.902 384.836 169.708C386.713 168.61 387.923 167.226 388.469 165.556C389.234 164.873 390.099 164.354 391.064 163.999C390.417 163.224 390.417 162.445 391.064 161.663C393.867 158.26 396.548 154.8 399.108 151.284C399.352 150.725 399.266 150.206 398.849 149.727C398.632 149.352 398.286 149.092 397.811 148.948C395.562 148.775 393.313 148.602 391.064 148.429C392.071 147.803 393.022 147.716 393.918 148.17C394.091 147.823 394.265 147.478 394.437 147.132C395.822 148.516 397.205 148.516 398.589 147.132C398.762 147.478 398.935 147.823 399.108 148.17C400.312 147.863 401.35 146.998 402.222 145.575C402.352 146.158 402.611 146.677 403.001 147.132C403.648 146.35 403.648 145.571 403.001 144.796C403.273 144.437 403.619 144.177 404.039 144.018C404.735 144.799 405.6 145.145 406.634 145.056C406.536 145.888 406.796 146.58 407.412 147.132C408.312 145.856 408.917 146.029 409.229 147.651Z" fill="white"/>
<path fill-rule="evenodd" clip-rule="evenodd" d="M312.684 144.016C309.891 146.888 306.777 149.396 303.342 151.541C308.698 150.887 314.061 150.109 319.43 149.206C336.445 146.863 353.398 144.615 370.291 142.459C370.464 142.459 370.637 142.459 370.81 142.459C381.362 141.767 391.915 141.075 402.468 140.383C402.864 140.782 403.383 141.041 404.025 141.162C402.207 141.833 400.391 141.919 398.575 141.421C396.44 142.61 394.191 142.784 391.828 141.94C387.626 141.953 383.474 142.645 379.373 144.016C379.195 142.916 378.763 142.743 378.075 143.497C375.992 143.411 373.916 143.498 371.848 143.757C370.84 143.914 369.976 144.347 369.253 145.054C368.421 144.509 367.989 144.855 367.955 146.092C367.754 145.61 367.408 145.264 366.917 145.054C365.198 145.136 363.468 145.136 361.728 145.054C360.787 145.051 360.009 145.397 359.392 146.092C358.413 145.87 357.462 145.697 356.538 145.573C355.681 146.218 354.729 146.651 353.683 146.871C354.029 147.043 354.375 147.217 354.721 147.39C353.661 147.722 352.796 147.462 352.126 146.611C351.816 146.279 351.384 146.107 350.829 146.092C347.933 146.68 345.079 147.371 342.266 148.168C341.463 147.138 340.598 146.966 339.671 147.649C338.025 148.991 336.381 148.991 334.74 147.649C334.038 148.264 333.433 148.956 332.924 149.725C331.012 149.021 329.196 149.194 327.475 150.244C326.766 150.137 326.074 149.964 325.399 149.725C322.895 150.495 320.473 151.014 318.133 151.282C315.643 150.735 313.135 150.822 310.608 151.541C309.376 152.463 308.078 153.068 306.715 153.358C305.799 152.974 304.761 152.974 303.602 153.358C303.083 152.839 302.564 152.32 302.045 151.801C301.526 152.32 301.007 152.839 300.488 153.358C299.533 152.666 299.273 152.753 299.709 153.617C297.826 155.64 295.491 156.764 292.703 156.991C292.543 156.571 292.284 156.225 291.924 155.953C290.54 156.645 289.157 156.645 287.773 155.953C286.214 156.558 284.83 157.423 283.621 158.548C281.655 157.201 279.752 157.201 277.912 158.548C276.761 158.097 275.551 157.924 274.279 158.029C274.361 157.316 274.274 156.624 274.02 155.953C273.545 156.552 273.113 156.465 272.722 155.693C273.496 154.644 273.323 153.779 272.203 153.098C272.895 152.579 272.895 152.06 272.203 151.541C273.705 150.389 275.434 149.783 277.393 149.725C277.509 148.769 277.682 147.818 277.912 146.871C277.676 145.864 277.33 144.913 276.874 144.016C278.32 144.472 279.012 145.51 278.95 147.13C278.605 150.153 276.875 151.623 273.76 151.541C274.675 153.224 275.021 155.041 274.798 156.991C282.77 155.403 290.728 153.759 298.671 152.06C303.83 147.855 308.328 143.098 312.165 137.788C312.131 138.016 312.217 138.189 312.424 138.307C313.314 137.135 314.266 136.01 315.279 134.934C315.106 134.761 314.932 134.588 314.76 134.415C315.711 133.365 316.577 133.451 317.355 134.674C316.863 136.681 315.912 138.584 314.5 140.383C313.808 140.729 313.289 141.248 312.943 141.94C312.386 141.535 311.781 141.622 311.127 142.2C312.126 142.419 312.645 143.024 312.684 144.016Z" fill="white"/>
<path d="M241.071 102.756C243.32 102.41 245.569 102.41 247.818 102.756C248.401 102.885 248.92 103.145 249.375 103.535C250.668 106.028 252.398 108.191 254.565 110.022C255.416 110.81 256.281 110.897 257.16 110.282C258.552 110.14 259.33 110.659 259.495 111.838C257.587 112.727 255.598 113.419 253.527 113.914C252.8 116.355 252.021 118.777 251.191 121.18C249.738 121.504 248.267 121.851 246.78 122.218C247.804 123.848 248.928 125.405 250.153 126.889C252.952 133.007 255.894 139.063 258.976 145.054L260.793 146.87C262.911 147.146 264.987 147.578 267.02 148.168C268.124 148.754 269.335 148.841 270.653 148.428C272.265 145.465 273.823 142.436 275.325 139.345C276.465 137.922 277.503 138.008 278.438 139.605C277.147 140.741 276.629 142.039 276.881 143.497V144.016C277.338 144.913 277.684 145.864 277.919 146.87C277.69 147.818 277.516 148.769 277.4 149.725C275.441 149.783 273.712 150.389 272.21 151.541C272.902 152.06 272.902 152.58 272.21 153.099C273.33 153.78 273.503 154.644 272.729 155.694C273.12 156.465 273.553 156.552 274.027 155.953C274.281 156.624 274.368 157.316 274.287 158.029C275.558 157.924 276.769 158.097 277.919 158.548C280.552 158.272 281.07 159.31 279.476 161.662C277.507 162.961 275.257 163.567 272.729 163.479C270.911 163.991 269.181 164.596 267.54 165.295C257.849 167.545 248.161 169.794 238.476 172.042C235.849 172.458 233.254 172.977 230.691 173.599C230.475 173.275 230.128 173.102 229.653 173.079C227.424 173.683 225.175 173.943 222.906 173.859C223.079 173.686 223.252 173.512 223.424 173.339C222.194 172.206 222.281 171.082 223.684 169.966C223.878 166.818 224.311 163.703 224.982 160.624C224.543 158.747 224.369 156.843 224.462 154.915V153.358C225.082 153.114 225.428 152.595 225.501 151.801C225.829 149.561 226.088 147.312 226.279 145.054C226.423 144.579 226.683 144.233 227.058 144.016C226.83 147.249 226.485 150.45 226.02 153.618C226.366 153.79 226.712 153.964 227.058 154.137C225.968 155.781 225.535 157.598 225.76 159.586C225.92 159.167 226.18 158.821 226.539 158.548C227.222 159.86 227.827 159.86 228.355 158.548C228.599 159.454 228.946 160.319 229.393 161.143L230.171 160.365C228.867 159.292 228.953 158.513 230.431 158.029C230.339 159.035 230.858 159.901 231.988 160.624C232.399 159.541 233.005 158.589 233.804 157.77C232.443 157.471 232.097 156.778 232.767 155.694C230.569 154.265 230.742 153.4 233.286 153.099C232.258 152.785 232.085 152.265 232.767 151.541C231.854 151.033 230.988 150.686 230.171 150.503C230.675 149.878 231.195 149.619 231.729 149.725C231.21 149.379 230.69 149.033 230.171 148.687C232.751 148.417 232.924 147.639 230.691 146.352C230.977 145.626 231.149 144.934 231.21 144.276C230.863 144.103 230.518 143.929 230.171 143.756C230.272 143.014 230.272 142.236 230.171 141.421C231.499 140.58 231.499 139.802 230.171 139.085C230.628 138.382 230.802 137.603 230.691 136.75H232.248C232.371 134.559 232.198 132.397 231.729 130.263C232.199 128.52 232.977 126.702 234.064 124.813C234.237 125.159 234.411 125.505 234.584 125.851C235.954 124.474 237.337 122.744 238.735 120.661C239.327 121.964 240.279 122.569 241.589 122.478C240.941 121.453 240.249 120.848 239.513 120.661C240.15 120.096 240.583 119.403 240.811 118.585C241.15 119.206 241.41 119.206 241.589 118.585C240.284 118.222 239.938 117.53 240.551 116.509C239.332 115.848 239.419 115.156 240.811 114.433C241.321 115.508 241.667 116.546 241.849 117.547C242.887 117.201 243.579 116.509 243.925 115.471C244.524 116.116 245.217 116.636 246.001 117.029C246.809 116.174 247.673 116.001 248.596 116.509C248.769 116.163 248.942 115.817 249.115 115.471C249.623 116.384 249.97 117.25 250.153 118.067C250.521 117.302 251.127 116.956 251.969 117.029C252.052 116.147 251.967 115.281 251.71 114.433C250.705 115.139 249.839 114.966 249.115 113.914C248.99 112.467 248.643 111.082 248.077 109.762C247.819 110.559 247.906 111.338 248.336 112.098C248.278 112.762 247.932 113.195 247.298 113.396C246.776 113.169 246.777 112.823 247.298 112.358C246.779 111.925 246.261 111.492 245.742 111.06C246.088 110.887 246.434 110.714 246.78 110.541C246.389 109.77 245.956 109.683 245.482 110.282C244.919 109.31 244.227 108.445 243.406 107.687C241.987 108.134 241.901 108.566 243.147 108.984C242.545 113.386 241.679 113.386 240.551 108.984C240.342 107.377 241.034 106.426 242.627 106.129C241.833 105.278 240.795 104.759 239.513 104.573C239.923 103.901 240.443 103.295 241.071 102.756ZM247.303 146.611C247.94 149.527 249.325 152.036 251.456 154.136C254.593 155.742 257.88 156.954 261.316 157.769C262.267 158.028 262.873 158.634 263.132 159.585C263.546 158.673 263.46 157.807 262.874 156.991C260.081 156.311 257.313 155.532 254.57 154.655C251.126 152.853 248.704 150.172 247.303 146.611Z" fill="white"/>
<path fill-rule="evenodd" clip-rule="evenodd" d="M392.079 150.246C384.356 150.889 376.571 151.581 368.725 152.322C355.783 153.12 342.981 154.504 330.32 156.474C329.801 156.474 329.282 156.474 328.763 156.474C317.552 157.528 306.48 159.085 295.548 161.145C290.669 161.612 285.825 162.304 281.017 163.221C276.527 163.961 272.029 164.653 267.523 165.297C269.165 164.597 270.895 163.992 272.713 163.48C275.242 163.568 277.49 162.963 279.46 161.664C280.994 161.986 282.551 161.814 284.131 161.145C284.435 161.253 284.694 161.426 284.909 161.664C286.68 161.252 288.496 160.993 290.359 160.885C292.897 160.76 295.146 159.982 297.105 158.55C297.853 158.967 298.632 159.313 299.441 159.588C301.667 159.284 303.743 158.591 305.669 157.512C306.878 158.319 307.916 158.145 308.782 156.993C309.716 157.107 310.667 157.28 311.637 157.512C317.665 156.771 323.72 156.165 329.801 155.695C335.906 154.171 342.133 153.392 348.485 153.36C349.579 153.173 350.617 152.827 351.599 152.322C352.146 152.415 352.664 152.588 353.155 152.841C359.197 152.343 365.252 151.824 371.32 151.284C372.431 151.225 373.383 150.879 374.174 150.246C374.373 150.535 374.632 150.707 374.953 150.765C379.139 150.815 383.291 150.47 387.408 149.727C388.982 149.815 390.539 149.988 392.079 150.246Z" fill="white"/>
<path fill-rule="evenodd" clip-rule="evenodd" d="M396.233 150.244C396.969 149.751 397.834 149.578 398.828 149.725C399.245 150.204 399.331 150.723 399.088 151.282C396.527 154.799 393.846 158.259 391.043 161.662C390.396 162.444 390.396 163.222 391.043 163.998C390.078 164.353 389.213 164.872 388.448 165.555C387.903 167.224 386.692 168.608 384.815 169.707C385.291 169.901 385.723 170.16 386.113 170.485C386.497 169.893 386.93 169.893 387.41 170.485C388.006 169.629 388.698 168.851 389.486 168.15C388.958 167.605 388.872 166.999 389.227 166.333C389.399 166.506 389.573 166.679 389.746 166.852C390.893 165.256 392.277 164.391 393.898 164.257C394.048 163.456 394.394 162.764 394.936 162.181C395.48 162.709 396.086 162.796 396.752 162.441C396.579 162.268 396.406 162.094 396.233 161.922C396.957 161.425 397.303 160.734 397.271 159.846C396.124 157.286 396.643 157.026 398.828 159.067C399.916 157.633 400.781 156.076 401.423 154.396C403.46 153.942 405.104 152.904 406.353 151.282C406.552 151.571 406.812 151.744 407.132 151.801C398.599 161.978 389.257 171.406 379.106 180.086C370.105 186.429 360.244 190.754 349.523 193.061C358.685 188.901 367.163 183.711 374.954 177.491C383.709 169.262 391.494 160.265 398.309 150.504C397.638 150.249 396.946 150.163 396.233 150.244Z" fill="white"/>
<path fill-rule="evenodd" clip-rule="evenodd" d="M434.124 164.259C434.144 164.821 434.318 165.34 434.643 165.816C433.5 166.747 432.895 167.959 432.827 169.449C432.654 169.276 432.48 169.103 432.308 168.93C431.562 170.301 431.476 171.686 432.048 173.082C433.091 172.214 434.302 171.868 435.681 172.044C436.161 169.316 437.718 167.587 440.352 166.854C429.612 180.708 417.329 192.99 403.503 203.702C401.427 204.913 399.351 206.125 397.275 207.335C390.77 208.307 384.196 208.653 377.554 208.373C377.039 208.463 376.693 208.289 376.516 207.854C376.688 207.854 376.862 207.854 377.035 207.854C382.573 207.941 388.109 207.854 393.642 207.595C396.274 205.423 398.869 203.26 401.427 201.107C413.676 189.904 424.575 177.621 434.124 164.259Z" fill="white"/>
<path fill-rule="evenodd" clip-rule="evenodd" d="M224.444 154.916C224.351 156.844 224.524 158.747 224.963 160.624C224.292 163.704 223.86 166.818 223.666 169.966C222.263 171.082 222.176 172.206 223.406 173.34C223.234 173.513 223.06 173.686 222.887 173.859C225.157 173.943 227.406 173.683 229.634 173.08C230.11 173.103 230.456 173.276 230.672 173.599C213.137 177.637 195.836 182.481 178.773 188.131C178.884 187.26 178.538 186.741 177.735 186.574C182.81 184.273 188 182.11 193.305 180.087C188.23 177.477 182.867 176.266 177.216 176.454C174.03 177.429 170.916 178.553 167.874 179.827C167.567 179.489 167.222 179.143 166.836 178.789C167.413 178.392 167.759 177.873 167.874 177.232C171.723 174.854 175.875 173.297 180.33 172.561C182.473 172.665 184.549 173.098 186.558 173.859C189.723 175.483 192.75 177.299 195.64 179.308C199.3 178.063 202.846 176.679 206.28 175.156C211.781 173.582 217.231 171.852 222.628 169.966C223.265 164.879 223.871 159.862 224.444 154.916Z" fill="white"/>
<path fill-rule="evenodd" clip-rule="evenodd" d="M167.897 177.231C167.782 177.872 167.436 178.391 166.859 178.789C167.245 179.143 167.59 179.489 167.897 179.827C164.369 181.504 160.909 183.321 157.516 185.277C156.095 187.203 155.229 189.366 154.921 191.765C154.452 191.397 154.279 190.878 154.402 190.207C154.03 187.669 154.722 185.507 156.478 183.719C160.214 181.419 164.021 179.257 167.897 177.231Z" fill="white"/>
<path fill-rule="evenodd" clip-rule="evenodd" d="M177.737 186.574C178.541 186.74 178.887 187.259 178.775 188.131C173.936 189.774 169.092 191.245 164.242 192.543C168.568 190.119 173.067 188.129 177.737 186.574Z" fill="white"/>
<path fill-rule="evenodd" clip-rule="evenodd" d="M486.021 179.826C484.297 180.195 482.913 181.147 481.869 182.681C481.377 182.932 480.858 183.018 480.312 182.94C480.312 183.459 480.312 183.978 480.312 184.497C478.595 184.224 477.471 184.916 476.938 186.573C476.766 186.401 476.592 186.227 476.419 186.054C475.803 186.606 475.543 187.298 475.641 188.13C473.565 189.607 471.229 190.645 468.635 191.244C468.462 191.072 468.288 190.898 468.116 190.725C467.761 191.392 467.847 191.997 468.375 192.542C467.452 192.034 466.587 192.207 465.78 193.061C465.188 193.445 465.188 193.878 465.78 194.358C464.616 194.864 463.405 195.037 462.147 194.877C461.784 196.172 461.265 197.383 460.59 198.51C459.209 198.852 457.998 199.544 456.957 200.586C456.835 200.199 456.661 199.766 456.438 199.289C457.194 199.069 457.453 198.637 457.217 197.991C456.698 198.337 456.179 198.683 455.66 199.029C455.473 197.935 455.127 196.897 454.622 195.915C454.002 196.966 453.223 197.14 452.286 196.434C451.896 196.889 451.637 197.408 451.508 197.991C451.335 197.645 451.161 197.299 450.989 196.953C450.643 197.645 450.297 197.645 449.951 196.953C449.332 197.72 449.072 198.413 449.172 199.029C448.813 198.757 448.554 198.411 448.394 197.991C448.08 199.019 447.561 199.193 446.837 198.51C445.734 198.888 444.61 199.234 443.463 199.548C442.574 199.352 442.055 198.833 441.906 197.991C446.865 195.862 451.882 193.7 456.957 191.504C457.822 191.158 458.687 191.158 459.552 191.504C458.979 192.091 459.152 192.524 460.071 192.801C460.849 190.543 462.147 190.024 463.964 191.244C464.998 190.255 464.738 189.649 463.185 189.428C464.315 188.804 465.526 188.545 466.818 188.649C466.818 188.13 466.818 187.611 466.818 187.092C468.699 186.666 470.516 185.973 472.267 185.016C476.266 182.088 480.851 179.493 486.021 177.231C486.506 178.059 486.506 178.924 486.021 179.826Z" fill="white"/>
<path fill-rule="evenodd" clip-rule="evenodd" d="M154.406 190.207C154.283 190.877 154.456 191.396 154.925 191.763C154.816 192.501 154.557 193.193 154.147 193.838C153.734 192.521 153.82 191.311 154.406 190.207Z" fill="white"/>
<path fill-rule="evenodd" clip-rule="evenodd" d="M486.024 179.828C486.509 178.925 486.509 178.06 486.024 177.233C480.854 179.494 476.269 182.089 472.271 185.018C470.519 185.975 468.703 186.667 466.821 187.094C466.821 187.613 466.821 188.132 466.821 188.651C465.53 188.546 464.318 188.805 463.188 189.429C464.742 189.651 465.001 190.256 463.967 191.245C462.15 190.025 460.852 190.544 460.074 192.802C459.155 192.525 458.982 192.092 459.555 191.505C458.69 191.159 457.826 191.159 456.96 191.505C451.886 193.701 446.869 195.863 441.91 197.992C441.91 197.646 441.737 197.473 441.391 197.473C442.601 196.782 443.813 196.089 445.024 195.397C445.196 195.397 445.37 195.397 445.543 195.397C458.429 190.164 470.885 184.11 482.91 177.233C487.047 175.077 491.199 173.087 495.366 171.264C492.475 174.417 489.361 177.272 486.024 179.828Z" fill="white"/>
<path fill-rule="evenodd" clip-rule="evenodd" d="M486.021 179.826C458.327 205.262 425.804 221.005 388.452 227.054C377.429 228.502 366.357 228.934 355.238 228.351C342.581 227.512 329.952 226.387 317.352 224.978C317.352 224.631 317.179 224.459 316.833 224.459C317.05 224.084 317.396 223.824 317.871 223.68C316.45 223.17 315.066 222.565 313.719 221.864C312.457 222.331 311.159 222.676 309.827 222.902C302.097 222.055 294.399 221.017 286.732 219.788C286.293 218.614 285.602 218.268 284.656 218.75C284.14 216.684 283.621 216.684 283.099 218.75C282.148 218.923 281.196 219.096 280.245 219.269C268.191 218.344 255.995 217.393 243.656 216.414C243.384 216.055 243.038 215.796 242.619 215.636C233.573 216.27 224.318 216.27 214.853 215.636C210.912 216.248 206.933 216.767 202.916 217.193C201.053 217.04 199.323 216.867 197.727 216.674C196.069 217.742 194.599 218.435 193.315 218.75C186.642 220.037 179.895 221.334 173.075 222.642C171.037 223.018 169.134 223.624 167.366 224.459C165.758 224.591 164.201 224.937 162.695 225.497C162.709 223.997 163.314 223.478 164.512 223.94C165.156 222.829 166.02 222.656 167.107 223.421C169.024 223.313 170.667 222.621 172.037 221.345C171.515 220.88 171.515 220.534 172.037 220.307C172.396 220.579 172.656 220.925 172.815 221.345C173.085 220.817 173.518 220.472 174.113 220.307C175.051 220.552 176.002 220.725 176.967 220.826C179.785 220.167 182.64 219.734 185.531 219.528C184.938 219.144 184.938 218.711 185.531 218.231C186.857 217.481 188.24 216.876 189.682 216.414C188.845 215.328 188.412 214.204 188.385 213.041C187.693 213.387 187.174 213.906 186.828 214.598C186.655 214.425 186.482 214.252 186.309 214.079C186.126 214.687 186.212 215.292 186.568 215.895C185.977 217.077 185.285 217.25 184.493 216.414C184.731 215.406 184.212 214.714 182.936 214.338C184.211 213.167 185.595 212.648 187.087 212.782C185.912 212.659 184.788 212.4 183.714 212.003C182.759 212.695 182.5 212.608 182.936 211.744C182.279 211.583 181.673 211.324 181.119 210.965C179.618 211.913 178.32 212.605 177.227 213.041C175.283 212.909 173.38 212.909 171.518 213.041C176.898 211.088 182.434 209.444 188.125 208.111C197.493 206.072 206.835 204.255 216.15 202.661C231.685 201.232 247.255 200.367 262.859 200.066C285.033 200.736 307.177 201.947 329.288 203.699C337.993 204.883 346.816 205.574 355.757 205.775C362.839 206.59 369.932 207.282 377.035 207.851C376.862 207.851 376.689 207.851 376.516 207.851C374.093 208.512 371.671 208.512 369.25 207.851C368.688 208.456 368.255 209.148 367.953 209.927C367.735 209.319 367.39 208.8 366.915 208.37C366.594 208.863 366.681 209.295 367.174 209.668C366.214 210.723 365.868 210.723 366.136 209.668C363.606 207.833 360.837 207.401 357.833 208.37C357.749 209.252 357.836 210.117 358.092 210.965C358.62 210.339 358.88 210.512 358.87 211.484C358.705 212.079 358.36 212.512 357.833 212.782C358.005 212.954 358.179 213.128 358.351 213.301C355.679 213.015 354.901 213.966 356.016 216.155C359.327 217.662 359.586 217.316 356.795 215.117C357.833 214.425 358.87 214.425 359.908 215.117C358.689 215.778 358.775 216.47 360.168 217.193C360.631 216.564 361.064 216.564 361.465 217.193C359.398 218.132 359.572 218.651 361.984 218.75C363.291 218.69 364.329 218.171 365.098 217.193C365.729 218.669 366.594 219.966 367.693 221.085C367.52 221.258 367.347 221.431 367.174 221.604C368.093 222.701 368.872 222.615 369.51 221.345C370.029 222.037 370.548 222.037 371.067 221.345C371.44 222.181 371.354 222.96 370.807 223.68C371.608 224.296 372.473 224.469 373.402 224.199C371.59 223.334 371.676 222.383 373.661 221.345C374.469 221.711 375.075 221.365 375.478 220.307C374.237 219.627 374.237 219.108 375.478 218.75C376.086 218.967 376.605 219.313 377.035 219.788C377.554 219.528 378.073 219.269 378.592 219.009C377.309 217.8 377.482 216.675 379.111 215.636C379.457 214.252 379.803 212.868 380.149 211.484C380.996 212.13 381.515 211.87 381.706 210.706C381.226 210.109 381.226 209.59 381.706 209.149C380.528 208.755 379.403 208.842 378.332 209.408C377.96 209.126 377.701 208.78 377.554 208.37C384.196 208.65 390.77 208.304 397.275 207.332C402.775 207.727 408.311 207.294 413.883 206.035C423.214 203.645 432.383 200.79 441.389 197.472C441.735 197.472 441.908 197.644 441.908 197.991C442.057 198.832 442.576 199.351 443.465 199.547C444.611 199.233 445.736 198.887 446.838 198.51C447.562 199.192 448.081 199.019 448.395 197.991C448.555 198.41 448.814 198.756 449.173 199.029C449.073 198.412 449.333 197.72 449.952 196.953C450.298 197.644 450.644 197.644 450.99 196.953C451.163 197.299 451.336 197.644 451.509 197.991C451.638 197.407 451.897 196.888 452.287 196.434C453.224 197.139 454.003 196.966 454.623 195.915C455.128 196.897 455.474 197.934 455.661 199.029C456.18 198.682 456.699 198.337 457.218 197.991C457.454 198.636 457.195 199.068 456.439 199.288C456.662 199.765 456.836 200.198 456.958 200.585C457.999 199.543 459.21 198.852 460.591 198.51C461.266 197.382 461.785 196.172 462.148 194.877C463.406 195.036 464.617 194.863 465.781 194.358C465.189 193.878 465.189 193.445 465.781 193.06C466.588 192.206 467.452 192.033 468.376 192.541C467.848 191.997 467.761 191.391 468.116 190.725C468.289 190.898 468.462 191.071 468.635 191.244C471.23 190.644 473.565 189.606 475.641 188.13C475.544 187.298 475.803 186.606 476.42 186.054C476.593 186.227 476.766 186.4 476.939 186.573C477.471 184.916 478.595 184.224 480.312 184.497C480.312 183.978 480.312 183.459 480.312 182.94C480.858 183.017 481.377 182.931 481.869 182.681C482.913 181.146 484.297 180.195 486.021 179.826Z" fill="white"/>
<path fill-rule="evenodd" clip-rule="evenodd" d="M243.652 201.105C250.86 201.129 258.039 201.129 265.19 201.105C266.278 201.736 266.191 202.169 264.931 202.403C265.19 202.49 265.45 202.576 265.709 202.662C267.012 202.061 268.396 201.715 269.861 201.624C271.938 201.854 273.928 201.941 275.83 201.884C274.518 202.567 274.518 203.173 275.83 203.7C275.484 203.873 275.138 204.047 274.792 204.219C274.091 203.77 273.658 203.251 273.494 202.662C271.117 203.503 270.512 204.887 271.678 206.814C271.418 206.987 271.159 207.161 270.899 207.333C269.515 207.161 268.044 207.161 266.488 207.333C266.67 205.998 266.411 204.787 265.709 203.7C265.534 205.741 264.929 207.644 263.893 209.409C262.964 206.805 262.359 206.805 262.076 209.409C261.692 208.817 261.259 208.817 260.779 209.409C260.433 208.718 260.087 208.025 259.741 207.333C259.041 208.429 259.214 209.381 260.26 210.188C260 210.447 259.741 210.707 259.481 210.966C258.5 209.217 257.894 207.314 257.665 205.257C257.279 206.031 256.933 206.81 256.627 207.593C257.29 208.873 257.29 210.17 256.627 211.485C256.268 211.213 256.008 210.867 255.848 210.447C255.491 210.892 255.058 211.238 254.551 211.485C253.97 209.403 253.97 207.327 254.551 205.257C254.071 204.665 253.638 204.665 253.253 205.257C252.551 204.642 251.946 203.95 251.437 203.181C250.808 203.583 250.808 204.015 251.437 204.479C250.892 204.734 250.373 204.648 249.88 204.219C249.336 204.678 248.73 205.024 248.063 205.257C246.159 204.738 244.602 203.7 243.392 202.143C242.115 203.186 240.818 203.273 239.5 202.403C239.673 202.23 239.846 202.057 240.019 201.884C241.335 201.787 242.546 201.528 243.652 201.105Z" fill="white"/>
<path fill-rule="evenodd" clip-rule="evenodd" d="M438.784 199.549C439.445 199.849 439.445 200.194 438.784 200.587C437.725 200.969 436.687 201.402 435.67 201.885C436.362 202.058 437.054 202.231 437.746 202.404C436.876 203.015 436.185 203.793 435.67 204.739C434.889 205.386 434.11 205.386 433.335 204.739C433.015 205.232 433.101 205.664 433.594 206.037C433.019 206.368 432.414 206.627 431.778 206.815C430.678 206.318 429.553 206.231 428.404 206.556C428.923 206.729 429.442 206.902 429.961 207.075C428.958 207.205 428.007 207.465 427.107 207.853C427.319 208.749 427.232 209.614 426.847 210.448C426.366 209.496 425.761 209.323 425.031 209.929C424.33 209.141 423.551 208.449 422.695 207.853C422.188 208.101 421.756 208.446 421.398 208.891C420.493 207.787 419.369 207.354 418.024 207.594C418.623 208.068 418.537 208.5 417.765 208.891C416.825 208.795 415.787 208.45 414.651 207.853C413.913 208.219 413.221 208.392 412.575 208.372C412.257 207.471 412.603 206.952 413.613 206.815C414.819 206.977 416.029 207.149 417.246 207.334C417.497 206.842 417.583 206.323 417.505 205.777C419.362 205.93 421.005 205.411 422.436 204.22C423.075 204.536 423.767 204.709 424.512 204.739C429.372 203.264 434.129 201.534 438.784 199.549Z" fill="white"/>
<path fill-rule="evenodd" clip-rule="evenodd" d="M376.532 207.853C376.71 208.287 377.055 208.461 377.57 208.372C377.717 208.781 377.976 209.127 378.349 209.41C379.42 208.843 380.544 208.757 381.722 209.15C381.242 209.591 381.242 210.11 381.722 210.707C381.532 211.872 381.013 212.131 380.165 211.486C379.819 212.87 379.473 214.253 379.127 215.637C377.498 216.677 377.326 217.801 378.608 219.011C378.089 219.27 377.57 219.53 377.051 219.789C376.621 219.315 376.102 218.969 375.494 218.751C374.253 219.11 374.253 219.629 375.494 220.308C375.091 221.367 374.486 221.712 373.678 221.346C371.692 222.384 371.606 223.336 373.418 224.201C372.49 224.471 371.624 224.298 370.823 223.682C371.37 222.962 371.456 222.183 371.083 221.346C370.564 222.038 370.045 222.038 369.526 221.346C368.888 222.616 368.109 222.703 367.19 221.606C367.363 221.433 367.536 221.26 367.709 221.087C366.61 219.968 365.745 218.67 365.114 217.194C364.344 218.173 363.306 218.692 362 218.751C359.587 218.653 359.414 218.134 361.481 217.194C361.079 216.566 360.647 216.566 360.184 217.194C358.791 216.471 358.705 215.78 359.924 215.118C358.886 214.427 357.848 214.427 356.81 215.118C359.602 217.318 359.342 217.664 356.032 216.156C354.916 213.968 355.695 213.017 358.367 213.302C358.194 213.129 358.021 212.956 357.848 212.783C358.375 212.514 358.721 212.081 358.886 211.486C358.896 210.513 358.636 210.341 358.108 210.967C357.851 210.118 357.765 209.253 357.848 208.372C360.853 207.402 363.621 207.834 366.152 209.669C365.884 210.724 366.23 210.724 367.19 209.669C366.697 209.296 366.61 208.864 366.931 208.372C367.405 208.801 367.751 209.32 367.969 209.929C368.271 209.149 368.703 208.457 369.266 207.853C371.687 208.513 374.109 208.513 376.532 207.853Z" fill="white"/>
<path fill-rule="evenodd" clip-rule="evenodd" d="M162.682 225.497C161.842 225.776 160.977 225.949 160.087 226.016C158.539 226.257 156.982 226.429 155.416 226.535C155.416 225.843 155.416 225.151 155.416 224.459C154.806 224.346 154.287 224.518 153.859 224.978C154.205 225.151 154.551 225.324 154.897 225.497C154.188 226.245 153.41 226.937 152.561 227.573C150.969 226.702 150.883 225.664 152.302 224.459C152.129 224.286 151.956 224.113 151.783 223.94C151.437 224.286 151.091 224.632 150.745 224.978C150.106 224.381 150.106 223.776 150.745 223.162C152.878 221.529 154.954 220.231 156.973 219.269C157.879 220.491 159.09 221.01 160.606 220.826C160.495 219.973 160.668 219.195 161.125 218.491C163.357 218.086 165.606 217.308 167.872 216.155C169.075 216.962 169.854 216.616 170.207 215.117C170.38 215.29 170.553 215.463 170.726 215.636C170.982 214.788 171.069 213.923 170.986 213.041C171.158 213.041 171.332 213.041 171.505 213.041C173.367 212.909 175.27 212.909 177.214 213.041C178.307 212.605 179.605 211.914 181.106 210.965C181.66 211.324 182.265 211.583 182.923 211.744C182.487 212.608 182.746 212.695 183.701 212.003C184.775 212.4 185.899 212.659 187.074 212.782C185.582 212.648 184.198 213.167 182.923 214.339C184.199 214.715 184.718 215.406 184.479 216.415C185.272 217.25 185.964 217.078 186.555 215.896C186.199 215.293 186.113 214.688 186.296 214.079C186.469 214.252 186.642 214.425 186.815 214.598C187.161 213.906 187.68 213.387 188.372 213.041C188.399 214.204 188.832 215.329 189.669 216.415C188.227 216.876 186.844 217.482 185.517 218.231C184.925 218.711 184.925 219.144 185.517 219.529C182.627 219.735 179.772 220.167 176.954 220.826C175.989 220.726 175.037 220.552 174.1 220.307C173.504 220.472 173.071 220.818 172.802 221.345C172.642 220.926 172.383 220.58 172.024 220.307C171.501 220.535 171.501 220.88 172.024 221.345C170.654 222.621 169.01 223.313 167.093 223.421C166.007 222.657 165.142 222.83 164.498 223.94C163.301 223.478 162.696 223.997 162.682 225.497Z" fill="white"/>
<path fill-rule="evenodd" clip-rule="evenodd" d="M316.846 224.459C306.998 223.293 297.137 222.255 287.264 221.346C256.122 216.896 224.811 216.031 193.328 218.751C194.612 218.436 196.082 217.743 197.739 216.675C199.336 216.868 201.066 217.041 202.929 217.194C206.946 216.768 210.925 216.249 214.866 215.637C224.331 216.271 233.586 216.271 242.631 215.637C243.051 215.797 243.397 216.056 243.669 216.415C256.008 217.393 268.204 218.345 280.258 219.27C281.209 219.097 282.161 218.923 283.112 218.751C283.634 216.685 284.153 216.685 284.669 218.751C285.615 218.268 286.306 218.615 286.745 219.789C294.412 221.018 302.11 222.055 309.84 222.902C311.172 222.677 312.47 222.332 313.732 221.865C315.079 222.566 316.463 223.171 317.884 223.681C317.408 223.825 317.063 224.085 316.846 224.459Z" fill="white"/>
<path fill-rule="evenodd" clip-rule="evenodd" d="M244.194 231.205C246.032 231.043 247.762 231.216 249.384 231.724C247.104 231.702 246.931 231.962 248.865 232.503C252.325 232.676 255.785 232.849 259.245 233.022C263.274 233.934 267.253 234.626 271.182 235.098C271.764 235.64 272.456 235.985 273.258 236.136C271.737 236.539 270.267 236.452 268.846 235.876C268.521 237.169 268.089 237.169 267.549 235.876C266.29 237.147 264.992 237.147 263.656 235.876C263.31 236.395 263.31 236.914 263.656 237.433C263.829 237.261 264.002 237.087 264.175 236.914C265.122 237.227 266.074 237.574 267.03 237.952C267.622 238.432 267.622 238.865 267.03 239.25C268.576 239.599 269.614 238.993 270.144 237.433C270.503 237.706 270.762 238.052 270.922 238.471C271.095 238.299 271.268 238.125 271.441 237.952C272.121 238.799 272.38 239.665 272.22 240.547C273.842 239.317 274.101 239.664 272.998 241.585C269.965 241.581 266.938 240.976 263.916 239.769C264.544 239.305 264.544 238.873 263.916 238.471C263.556 238.744 263.297 239.09 263.137 239.509C261.736 239.424 260.266 239.338 258.726 239.25C260.168 239.173 260.427 238.74 259.504 237.952C258.78 238.635 258.261 238.462 257.947 237.433C256.723 237.582 255.512 237.755 254.314 237.952C250.093 237.391 245.855 237.046 241.599 236.914C237.802 236.335 233.996 235.643 230.181 234.838C229.484 235.566 229.052 235.393 228.883 234.319C228.409 234.918 227.977 234.832 227.586 234.06C228.555 232.612 229.939 231.921 231.738 231.984C235.982 231.895 240.134 231.636 244.194 231.205Z" fill="white"/>
<path fill-rule="evenodd" clip-rule="evenodd" d="M220.318 231.724C222.145 232.07 224.048 232.416 226.027 232.762C226.446 233.577 226.62 234.443 226.546 235.357C219.796 235.444 213.05 235.357 206.305 235.098C206.651 234.751 206.997 234.406 207.343 234.06C210.454 233.284 213.568 232.679 216.685 232.243C217.881 231.987 219.092 231.814 220.318 231.724Z" fill="white"/>
<path fill-rule="evenodd" clip-rule="evenodd" d="M244.173 231.207C240.113 231.637 235.961 231.896 231.717 231.985C229.919 231.922 228.535 232.614 227.565 234.061C227.956 234.833 228.389 234.919 228.863 234.321C229.031 235.394 229.464 235.567 230.16 234.84C233.975 235.644 237.781 236.336 241.578 236.916C240.368 236.916 239.156 236.916 237.945 236.916C220.259 235.438 202.613 235.697 185.008 237.694C195.419 235.041 205.972 233.224 216.667 232.245C213.55 232.68 210.436 233.285 207.325 234.061C206.978 234.407 206.633 234.753 206.287 235.099C213.031 235.359 219.778 235.445 226.527 235.359C226.602 234.444 226.428 233.579 226.008 232.764C224.03 232.417 222.127 232.071 220.3 231.726C228.217 231.215 236.175 231.042 244.173 231.207Z" fill="white"/>
<path fill-rule="evenodd" clip-rule="evenodd" d="M171.018 213.042C171.101 213.924 171.015 214.789 170.759 215.637C170.586 215.464 170.413 215.291 170.24 215.118C169.886 216.617 169.108 216.963 167.904 216.156C165.639 217.309 163.39 218.087 161.157 218.491C160.701 219.195 160.527 219.974 160.639 220.827C159.123 221.011 157.912 220.492 157.006 219.27C154.987 220.232 152.911 221.53 150.778 223.162C150.139 223.776 150.139 224.382 150.778 224.979C151.124 224.633 151.469 224.287 151.816 223.941C151.988 224.114 152.162 224.287 152.335 224.46C150.916 225.664 151.002 226.702 152.594 227.574C153.443 226.938 154.221 226.246 154.93 225.498C154.583 225.325 154.238 225.152 153.892 224.979C154.32 224.519 154.839 224.346 155.449 224.46C155.449 225.152 155.449 225.844 155.449 226.536C157.015 226.43 158.572 226.257 160.12 226.017C152.12 228.742 144.162 231.683 136.246 234.84C134.923 234.781 133.712 235.127 132.613 235.878C132.44 235.791 132.267 235.705 132.094 235.618C132.492 234.855 132.837 234.077 133.132 233.283C141.809 225.998 151.497 220.289 162.195 216.156C165.058 214.913 167.999 213.875 171.018 213.042Z" fill="white"/>
<path fill-rule="evenodd" clip-rule="evenodd" d="M133.13 233.283C132.836 234.077 132.49 234.856 132.092 235.619C132.265 235.706 132.438 235.792 132.611 235.878C133.71 235.128 134.921 234.782 136.244 234.84C131.421 237.511 126.576 240.019 121.711 242.366C125.462 239.215 129.268 236.188 133.13 233.283Z" fill="white"/>
<path fill-rule="evenodd" clip-rule="evenodd" d="M249.355 231.724C260.819 232.189 272.064 233.746 283.089 236.395C281.221 237.008 280.529 238.218 281.013 240.028C279.438 240.287 278.14 240.979 277.121 242.104C276.282 240.856 275.937 240.856 276.083 242.104C276.819 242.602 277.598 243.035 278.418 243.402C285.225 245.056 291.885 246.527 298.399 247.813C300.507 247.778 302.583 247.778 304.627 247.813C307.409 248.412 310.263 249.277 313.19 250.408C314.282 250.141 315.234 249.968 316.044 249.889C328.328 252.212 340.696 252.818 353.152 251.705C352.431 251.244 352.517 250.984 353.411 250.927C354.103 251.273 354.795 251.619 355.487 251.965C356.435 250.995 357.559 250.995 358.86 251.965C362.595 251.956 366.314 251.956 370.018 251.965C372.285 251.635 374.447 250.943 376.506 249.889C378.652 250.205 380.728 250.551 382.733 250.927C359.575 253.49 336.394 253.663 313.19 251.446C294.543 248.299 276.032 244.406 257.659 239.769C251.022 238.724 244.449 237.773 237.938 236.914C239.148 236.914 240.36 236.914 241.57 236.914C245.826 237.046 250.065 237.391 254.285 237.952C255.483 237.755 256.694 237.582 257.918 237.433C258.232 238.461 258.751 238.635 259.475 237.952C260.399 238.74 260.139 239.172 258.697 239.25C260.237 239.338 261.707 239.424 263.108 239.509C263.268 239.09 263.527 238.744 263.887 238.471C264.515 238.873 264.515 239.305 263.887 239.769C266.909 240.975 269.936 241.581 272.969 241.585C274.072 239.663 273.813 239.317 272.19 240.547C272.351 239.664 272.092 238.799 271.412 237.952C271.239 238.125 271.066 238.298 270.893 238.471C270.733 238.052 270.474 237.706 270.114 237.433C269.585 238.993 268.547 239.599 267 239.25C267.593 238.865 267.593 238.432 267 237.952C266.045 237.573 265.093 237.227 264.146 236.914C263.973 237.087 263.8 237.26 263.627 237.433C263.281 236.914 263.281 236.395 263.627 235.876C264.963 237.147 266.26 237.147 267.519 235.876C268.06 237.169 268.492 237.169 268.817 235.876C270.237 236.452 271.708 236.539 273.228 236.136C272.427 235.985 271.735 235.64 271.152 235.098C267.224 234.626 263.245 233.934 259.216 233.022C255.756 232.849 252.296 232.676 248.836 232.503C246.902 231.962 247.075 231.702 249.355 231.724Z" fill="white"/>
<path fill-rule="evenodd" clip-rule="evenodd" d="M283.093 236.398C284.98 236.717 286.883 236.89 288.802 236.917C307.916 241.555 327.291 244.323 346.928 245.221C348.424 245.946 350.674 246.465 353.675 246.778C357.859 246.3 362.097 246.3 366.39 246.778C370.54 246.066 374.692 245.547 378.846 245.221C379.409 245.632 380.014 245.978 380.662 246.259C384.641 245.567 388.62 244.874 392.599 244.183C394.739 244.88 396.729 244.534 398.567 243.145C400.161 243.299 401.718 243.299 403.238 243.145C403.719 242.192 404.324 242.02 405.054 242.626C408.176 241.257 408.349 241.602 405.573 243.664C404.684 243.088 404.337 243.434 404.535 244.702C403.682 244.813 402.903 244.639 402.2 244.183C400.191 245.282 397.942 246.148 395.453 246.778C394.939 246.031 394.247 245.512 393.377 245.221C392.256 245.645 391.304 246.596 390.523 248.075C388.335 248.879 386.085 249.484 383.776 249.891C383.84 250.207 384.013 250.379 384.295 250.41C383.927 250.88 383.408 251.052 382.738 250.929C380.732 250.554 378.656 250.208 376.51 249.891C374.452 250.946 372.289 251.638 370.023 251.967C366.319 251.959 362.6 251.959 358.865 251.967C357.564 250.997 356.439 250.997 355.491 251.967C354.8 251.621 354.107 251.276 353.415 250.929C352.522 250.987 352.436 251.247 353.156 251.708C340.701 252.821 328.332 252.215 316.049 249.891C315.239 249.971 314.287 250.144 313.194 250.41C310.268 249.28 307.413 248.415 304.631 247.816C302.587 247.78 300.511 247.78 298.403 247.816C291.89 246.53 285.23 245.059 278.423 243.404C277.602 243.037 276.824 242.605 276.087 242.107C275.941 240.859 276.287 240.859 277.125 242.107C278.145 240.982 279.442 240.289 281.017 240.031C280.534 238.221 281.226 237.01 283.093 236.398Z" fill="white"/>
<path fill-rule="evenodd" clip-rule="evenodd" d="M395.731 248.334C392 249.357 388.194 250.049 384.313 250.41C384.031 250.379 383.858 250.206 383.794 249.891C386.104 249.484 388.353 248.879 390.541 248.075C391.323 246.596 392.274 245.644 393.395 245.22C394.265 245.511 394.957 246.03 395.471 246.777C397.96 246.147 400.21 245.282 402.218 244.182C402.922 244.639 403.701 244.812 404.554 244.701C404.356 243.434 404.702 243.088 405.592 243.663C408.367 241.602 408.195 241.256 405.073 242.625C404.343 242.019 403.738 242.192 403.256 243.144C401.736 243.299 400.179 243.299 398.585 243.144C396.747 244.533 394.758 244.879 392.617 244.182C388.638 244.874 384.659 245.566 380.68 246.258C380.032 245.978 379.427 245.632 378.864 245.22C374.709 245.546 370.558 246.065 366.408 246.777C362.115 246.299 357.877 246.299 353.692 246.777C350.691 246.464 348.442 245.945 346.945 245.22C356.808 245.307 366.669 245.22 376.528 244.961C386.255 244.374 395.77 242.903 405.073 240.549C411.351 239.379 417.406 237.476 423.238 234.84C423.858 235.02 423.858 235.279 423.238 235.619C414.686 241.28 405.517 245.518 395.731 248.334Z" fill="white"/>
<path d="M71.4103 327.947V287.259H82.9192V327.947H71.4103ZM44.2073 327.947V287.259H55.7163V327.947H44.2073ZM54.9025 312.078V302.546H72.2241V312.078H54.9025ZM91.6618 327.947V287.259H129.851V327.947H118.458V293.827L121.015 296.384H100.497L102.996 293.827V327.947H91.6618ZM158.544 328.761C155.289 328.761 152.286 328.237 149.534 327.191C146.783 326.145 144.38 324.672 142.327 322.774C140.312 320.836 138.742 318.588 137.619 316.031C136.495 313.473 135.933 310.664 135.933 307.603C135.933 304.541 136.495 301.732 137.619 299.174C138.742 296.617 140.312 294.389 142.327 292.49C144.38 290.552 146.783 289.061 149.534 288.014C152.286 286.968 155.289 286.445 158.544 286.445C161.838 286.445 164.841 286.968 167.553 288.014C170.305 289.061 172.688 290.552 174.703 292.49C176.718 294.389 178.287 296.617 179.411 299.174C180.574 301.732 181.155 304.541 181.155 307.603C181.155 310.664 180.574 313.493 179.411 316.089C178.287 318.647 176.718 320.875 174.703 322.774C172.688 324.672 170.305 326.145 167.553 327.191C164.841 328.237 161.838 328.761 158.544 328.761ZM158.544 319.228C160.094 319.228 161.528 318.957 162.845 318.414C164.201 317.872 165.364 317.097 166.333 316.089C167.34 315.043 168.115 313.803 168.658 312.369C169.239 310.935 169.53 309.346 169.53 307.603C169.53 305.82 169.239 304.231 168.658 302.836C168.115 301.403 167.34 300.182 166.333 299.174C165.364 298.128 164.201 297.334 162.845 296.791C161.528 296.249 160.094 295.977 158.544 295.977C156.994 295.977 155.541 296.249 154.184 296.791C152.867 297.334 151.704 298.128 150.697 299.174C149.728 300.182 148.953 301.403 148.372 302.836C147.829 304.231 147.558 305.82 147.558 307.603C147.558 309.346 147.829 310.935 148.372 312.369C148.953 313.803 149.728 315.043 150.697 316.089C151.704 317.097 152.867 317.872 154.184 318.414C155.541 318.957 156.994 319.228 158.544 319.228ZM231.427 327.947V287.259H242.936V327.947H231.427ZM204.224 327.947V287.259H215.733V327.947H204.224ZM214.919 312.078V302.546H232.241V312.078H214.919ZM247.61 327.947L265.571 287.259H276.905L294.924 327.947H282.95L268.884 292.897H273.418L259.351 327.947H247.61ZM257.433 320.042L260.397 311.555H280.276L283.241 320.042H257.433ZM299.587 327.947V287.259H318.187C321.907 287.259 325.104 287.859 327.778 289.061C330.491 290.262 332.583 292.006 334.056 294.292C335.528 296.539 336.264 299.213 336.264 302.313C336.264 305.375 335.528 308.029 334.056 310.276C332.583 312.524 330.491 314.268 327.778 315.508C325.104 316.709 321.907 317.31 318.187 317.31H305.981L311.096 312.311V327.947H299.587ZM311.096 313.532L305.981 308.242H317.49C319.892 308.242 321.675 307.719 322.837 306.673C324.039 305.626 324.639 304.173 324.639 302.313C324.639 300.414 324.039 298.942 322.837 297.896C321.675 296.849 319.892 296.326 317.49 296.326H305.981L311.096 291.037V313.532ZM362.042 328.761C358.786 328.761 355.783 328.237 353.032 327.191C350.281 326.145 347.878 324.672 345.824 322.774C343.809 320.836 342.24 318.588 341.116 316.031C339.992 313.473 339.431 310.664 339.431 307.603C339.431 304.541 339.992 301.732 341.116 299.174C342.24 296.617 343.809 294.389 345.824 292.49C347.878 290.552 350.281 289.061 353.032 288.014C355.783 286.968 358.786 286.445 362.042 286.445C365.335 286.445 368.338 286.968 371.051 288.014C373.802 289.061 376.186 290.552 378.201 292.49C380.216 294.389 381.785 296.617 382.909 299.174C384.071 301.732 384.653 304.541 384.653 307.603C384.653 310.664 384.071 313.493 382.909 316.089C381.785 318.647 380.216 320.875 378.201 322.774C376.186 324.672 373.802 326.145 371.051 327.191C368.338 328.237 365.335 328.761 362.042 328.761ZM362.042 319.228C363.592 319.228 365.025 318.957 366.343 318.414C367.699 317.872 368.862 317.097 369.83 316.089C370.838 315.043 371.613 313.803 372.155 312.369C372.737 310.935 373.027 309.346 373.027 307.603C373.027 305.82 372.737 304.231 372.155 302.836C371.613 301.403 370.838 300.182 369.83 299.174C368.862 298.128 367.699 297.334 366.343 296.791C365.025 296.249 363.592 295.977 362.042 295.977C360.491 295.977 359.038 296.249 357.682 296.791C356.365 297.334 355.202 298.128 354.195 299.174C353.226 300.182 352.451 301.403 351.869 302.836C351.327 304.231 351.056 305.82 351.056 307.603C351.056 309.346 351.327 310.935 351.869 312.369C352.451 313.803 353.226 315.043 354.195 316.089C355.202 317.097 356.365 317.872 357.682 318.414C359.038 318.957 360.491 319.228 362.042 319.228ZM399.727 320.274L387.462 318.821C388.818 318.86 389.923 318.414 390.775 317.484C391.667 316.515 392.364 315.178 392.868 313.473C393.41 311.768 393.798 309.753 394.03 307.428C394.302 305.103 394.495 302.565 394.612 299.814L395.077 287.259H427.86V322.948H416.525V296.384H404.842L404.667 300.802C404.59 303.166 404.435 305.375 404.202 307.428C404.009 309.482 403.718 311.362 403.33 313.067C402.982 314.772 402.497 316.244 401.877 317.484C401.296 318.685 400.579 319.615 399.727 320.274ZM386.241 336.143V318.821H433.382V336.143H422.861V327.947H396.82V336.143H386.241ZM466.088 327.947V287.259H477.597V327.947H466.088ZM438.885 327.947V287.259H450.394V327.947H438.885ZM449.58 312.078V302.546H466.902V312.078H449.58ZM486.339 327.947V287.259H497.674V300.221H507.09C512.05 300.221 515.887 301.325 518.599 303.534C521.351 305.743 522.726 309.056 522.726 313.473C522.726 318.24 521.196 321.844 518.134 324.285C515.073 326.726 510.888 327.947 505.579 327.947H486.339ZM497.674 319.693H504.823C506.761 319.693 508.292 319.17 509.415 318.123C510.578 317.077 511.159 315.605 511.159 313.706C511.159 311.768 510.578 310.412 509.415 309.637C508.292 308.823 506.761 308.416 504.823 308.416H497.674V319.693ZM527.202 327.947V287.259H538.536V327.947H527.202ZM547.304 327.947V287.259H579.215V296.152H558.696V319.054H579.97V327.947H547.304ZM557.882 311.613V303.011H576.773V311.613H557.882Z" fill="white"/>
<path d="M200.233 399.644C199.458 399.644 198.625 399.586 197.734 399.47C196.881 399.354 195.971 399.179 195.002 398.947L195.641 389.53C196.184 389.647 196.707 389.705 197.211 389.705C198.8 389.705 200.001 389.085 200.815 387.845C201.628 386.566 202.19 384.783 202.5 382.497C202.849 380.211 203.062 377.537 203.14 374.476L203.721 358.259H236.504V398.947H225.169V364.827L227.669 367.384H211.219L213.544 364.711L213.254 374.011C213.137 377.963 212.866 381.528 212.44 384.706C212.014 387.845 211.335 390.538 210.405 392.785C209.475 394.994 208.177 396.699 206.511 397.901C204.883 399.063 202.791 399.644 200.233 399.644ZM265.203 399.761C261.948 399.761 258.944 399.237 256.193 398.191C253.442 397.145 251.039 395.672 248.986 393.774C246.971 391.836 245.401 389.588 244.277 387.031C243.154 384.473 242.592 381.664 242.592 378.603C242.592 375.541 243.154 372.732 244.277 370.174C245.401 367.617 246.971 365.389 248.986 363.49C251.039 361.552 253.442 360.061 256.193 359.014C258.944 357.968 261.948 357.445 265.203 357.445C268.497 357.445 271.5 357.968 274.212 359.014C276.964 360.061 279.347 361.552 281.362 363.49C283.377 365.389 284.946 367.617 286.07 370.174C287.232 372.732 287.814 375.541 287.814 378.603C287.814 381.664 287.232 384.493 286.07 387.089C284.946 389.647 283.377 391.875 281.362 393.774C279.347 395.672 276.964 397.145 274.212 398.191C271.5 399.237 268.497 399.761 265.203 399.761ZM265.203 390.228C266.753 390.228 268.187 389.957 269.504 389.414C270.86 388.872 272.023 388.097 272.992 387.089C273.999 386.043 274.774 384.803 275.317 383.369C275.898 381.935 276.189 380.346 276.189 378.603C276.189 376.82 275.898 375.231 275.317 373.836C274.774 372.403 273.999 371.182 272.992 370.174C272.023 369.128 270.86 368.334 269.504 367.791C268.187 367.249 266.753 366.977 265.203 366.977C263.653 366.977 262.2 367.249 260.843 367.791C259.526 368.334 258.363 369.128 257.356 370.174C256.387 371.182 255.612 372.403 255.031 373.836C254.488 375.231 254.217 376.82 254.217 378.603C254.217 380.346 254.488 381.935 255.031 383.369C255.612 384.803 256.387 386.043 257.356 387.089C258.363 388.097 259.526 388.872 260.843 389.414C262.2 389.957 263.653 390.228 265.203 390.228ZM302.888 391.274L290.623 389.821C291.98 389.86 293.084 389.414 293.936 388.484C294.828 387.515 295.525 386.178 296.029 384.473C296.572 382.768 296.959 380.753 297.192 378.428C297.463 376.103 297.657 373.565 297.773 370.814L298.238 358.259H331.021V393.948H319.686V367.384H308.003L307.829 371.802C307.751 374.166 307.596 376.375 307.364 378.428C307.17 380.482 306.879 382.362 306.492 384.067C306.143 385.772 305.659 387.244 305.039 388.484C304.457 389.685 303.74 390.615 302.888 391.274ZM289.403 407.143V389.821H336.543V407.143H326.022V398.947H299.982V407.143H289.403ZM367.738 398.947L356.287 379.591L365.529 374.127L380.7 398.947H367.738ZM341.814 398.947V358.259H353.264V398.947H341.814ZM349.951 383.369V374.069H364.715V383.369H349.951ZM366.633 379.823L355.996 378.661L368.493 358.259H380.584L366.633 379.823ZM384.505 398.947V358.259H395.84V382.148L412.638 358.259H423.45V398.947H412.115V375.115L395.375 398.947H384.505Z" fill="#FF0000"/>
</svg>
