<svg width="529" height="395" viewBox="0 0 529 395" fill="none" xmlns="http://www.w3.org/2000/svg">
<path fill-rule="evenodd" clip-rule="evenodd" d="M361.727 86.1845C365.543 86.0121 368.923 87.1142 371.866 89.4908C374.337 91.5919 376.394 94.0165 378.038 96.7648C376.3 96.7224 374.683 96.1348 373.189 95.0014C374.233 95.1561 375.262 95.2297 376.274 95.2218C374.801 93.6021 373.185 92.1324 371.425 90.8133C372.013 90.5193 372.013 90.2257 371.425 89.9317C369.583 88.4456 367.526 87.7843 365.253 87.9479C363.928 87.5789 362.752 86.9912 361.727 86.1845Z" fill="#0B557C"/>
<path fill-rule="evenodd" clip-rule="evenodd" d="M361.271 86.1835C361.418 86.1835 361.565 86.1835 361.712 86.1835C362.737 86.9903 363.913 87.5779 365.239 87.9469C367.512 87.7833 369.569 88.4446 371.41 89.9307C371.998 90.2247 371.998 90.5183 371.41 90.8124C373.17 92.1314 374.786 93.6012 376.26 95.2208C375.247 95.2288 374.218 95.1551 373.174 95.0004C369.897 93.5827 366.664 92.0397 363.475 90.3715C359.692 88.6448 356.312 89.2324 353.336 92.1349C351.039 92.5295 349.423 91.6478 348.487 89.4899C349.462 88.5725 350.638 87.9844 352.013 87.7265C352.243 87.4792 352.39 87.1851 352.454 86.8448C351.498 84.8522 350.175 83.1624 348.487 81.7751C349.056 81.3461 349.056 80.9053 348.487 80.4525C345.84 78.9823 343.342 77.2926 340.992 75.3828C347.774 75.467 352.917 78.4061 356.422 84.1997C357.45 84.3465 358.479 84.4938 359.508 84.6406C360.018 85.3146 360.606 85.8291 361.271 86.1835Z" fill="#0B557C"/>
<path fill-rule="evenodd" clip-rule="evenodd" d="M361.289 86.1835C360.624 85.8291 360.036 85.3146 359.525 84.6405C358.497 84.4937 357.468 84.3465 356.44 84.1997C352.935 78.4061 347.792 75.467 341.01 75.3828C343.36 77.2925 345.858 78.9823 348.504 80.4525C349.074 80.9053 349.074 81.3461 348.504 81.7751C344.777 78.8064 340.809 76.1613 336.602 73.8398C341.844 73.8769 346.84 75.1258 351.59 77.587C353.516 79.365 355.279 81.2751 356.88 83.318C358.203 83.4648 359.525 83.6121 360.848 83.7589C361.289 84.1997 361.73 84.6405 362.171 85.0814C361.617 85.2652 361.323 85.6324 361.289 86.1835Z" fill="#0B557C"/>
<path fill-rule="evenodd" clip-rule="evenodd" d="M204.319 70.313C201.543 72.5004 198.898 74.8514 196.384 77.3663C194.779 79.2646 193.016 81.0279 191.094 82.6563C191.028 82.1926 191.101 81.7517 191.314 81.3338C193.431 80.2908 194.313 78.6747 193.959 76.4847C194.941 76.8369 195.529 76.396 195.722 75.1622C196.947 75.6845 197.608 75.2437 197.706 73.8397C199.809 72.4709 202.013 71.2952 204.319 70.313Z" fill="#FF0000"/>
<path fill-rule="evenodd" clip-rule="evenodd" d="M191.109 82.6562C189.999 84.5812 188.677 86.3447 187.141 87.9469C187.427 87.0938 187.574 86.212 187.582 85.3016C188.022 85.3016 188.463 85.3016 188.904 85.3016C188.904 84.7139 188.904 84.1257 188.904 83.538C189.707 83.3921 190.442 83.098 191.109 82.6562Z" fill="#FF0000"/>
<path fill-rule="evenodd" clip-rule="evenodd" d="M240.489 45.627C244.752 45.5539 249.014 45.627 253.273 45.8475C258.262 46.596 263.258 47.2572 268.261 47.8312C268.408 47.8312 268.555 47.8312 268.702 47.8312C271.024 49.5002 273.669 50.6023 276.637 51.1375C277.025 51.7352 277.172 52.3965 277.078 53.1212C275.032 52.9484 274.004 53.8301 273.992 55.7662C271.867 56.487 269.663 56.781 267.38 56.6479C267.233 56.6479 267.086 56.6479 266.939 56.6479C265.663 55.8698 264.194 55.3553 262.53 55.105C257.995 54.4829 253.44 54.1153 248.865 54.0029C243.419 54.4314 237.982 55.019 232.554 55.7662C231.66 55.6948 230.779 55.7684 229.909 55.9866C227.454 56.9939 224.956 57.8756 222.415 58.6316C221.669 59.2078 221.081 59.869 220.651 60.6154C217.79 61.2753 215.072 62.3038 212.496 63.7012C211.103 64.7654 209.854 65.9406 208.749 67.2279C208.455 67.3747 208.161 67.5219 207.867 67.6687C207.403 67.603 206.962 67.6762 206.545 67.8891C205.546 68.5177 204.811 69.3262 204.34 70.3137C202.035 71.2959 199.831 72.4716 197.728 73.8404C197.63 75.2444 196.969 75.6853 195.744 75.1629C195.551 76.3968 194.963 76.8376 193.981 76.4854C194.334 78.6754 193.453 80.2915 191.336 81.3345C191.123 81.7524 191.05 82.1933 191.115 82.657C190.449 83.0988 189.714 83.3928 188.911 83.5387C188.911 84.1263 188.911 84.7144 188.911 85.302C188.47 85.302 188.03 85.302 187.589 85.302C187.581 86.2124 187.434 87.094 187.148 87.947C186.085 88.0326 185.644 88.6202 185.825 89.7104C184.793 89.9273 183.912 90.4417 183.18 91.2533C183.687 91.9604 183.687 92.6948 183.18 93.4575C181.844 95.4033 180.595 97.387 179.433 99.4087C178.493 102.316 177.685 105.255 177.009 108.225C177.009 108.372 177.009 108.519 177.009 108.666C176.249 110.272 175.44 111.888 174.584 113.515C174.311 116.033 173.944 118.531 173.482 121.01C173.051 121.567 172.61 122.155 172.16 122.773C172.013 121.818 171.866 120.863 171.719 119.907C172.421 115.456 172.715 110.974 172.6 106.462C175.695 95.4231 180.765 85.4308 187.809 76.4854C188.413 74.9464 189.074 73.4767 189.793 72.077C189.94 72.077 190.087 72.077 190.234 72.077C193.685 68.6994 197.212 65.3931 200.814 62.1583C204.643 60.3055 208.023 57.8809 210.953 54.8845C212.645 54.7025 213.967 53.9676 214.92 52.6804C219.617 51.1101 224.173 49.3468 228.586 47.3904C232.469 46.4875 236.437 45.8999 240.489 45.627Z" fill="#FF0000"/>
<path fill-rule="evenodd" clip-rule="evenodd" d="M228.572 47.3911C224.159 49.3476 219.603 51.111 214.906 52.6813C215.788 52.0936 216.67 51.5055 217.551 50.9179C221.174 49.5636 224.847 48.3879 228.572 47.3911Z" fill="#FF0000"/>
<path fill-rule="evenodd" clip-rule="evenodd" d="M214.913 52.6807C213.96 53.9681 212.638 54.7031 210.945 54.8852C212.051 53.8164 213.374 53.0819 214.913 52.6807Z" fill="#FF0000"/>
<path fill-rule="evenodd" clip-rule="evenodd" d="M291.18 58.8502C291.326 58.8502 291.474 58.8502 291.62 58.8502C291.712 60.4567 292.594 61.412 294.266 61.7157C295.903 64.4538 298.254 66.2904 301.319 67.2263C302.61 69.0364 304.006 70.7998 305.507 72.5164C305.803 72.8479 306.17 72.9952 306.609 72.9573C308.756 75.6967 310.519 78.6358 311.899 81.7742C311.805 82.4989 311.952 83.1602 312.34 83.758C311.439 83.974 310.557 83.9004 309.695 83.5375C309.695 83.3907 309.695 83.2435 309.695 83.0967C308.547 81.5004 307.371 79.8838 306.168 78.2474C303.452 76.4858 301.248 74.2079 299.556 71.4143C296.185 69.2237 292.805 67.0195 289.416 64.8016C287.971 64.0041 286.502 63.3429 285.008 62.8178C285.008 61.9361 285.008 61.0544 285.008 60.1728C285.367 59.2333 285.587 58.2048 285.669 57.0868C285.916 56.8567 286.21 56.7099 286.551 56.646C288.124 57.3403 289.667 58.0752 291.18 58.8502Z" fill="#FF0000"/>
<path fill-rule="evenodd" clip-rule="evenodd" d="M220.654 60.6152C219.478 61.3502 218.303 62.0847 217.127 62.8196C214.336 64.0673 211.691 65.5368 209.191 67.2285C209.044 67.2285 208.897 67.2285 208.75 67.2285C209.855 65.9411 211.105 64.7657 212.497 63.7014C215.074 62.3038 217.792 61.2752 220.654 60.6152Z" fill="#FF0000"/>
<path fill-rule="evenodd" clip-rule="evenodd" d="M284.996 60.1724C284.996 61.0541 284.996 61.9357 284.996 62.8174C286.49 63.3425 287.959 64.0037 289.405 64.8012C292.793 67.0191 296.173 69.2233 299.544 71.4139C301.236 74.2075 303.44 76.4854 306.157 78.247C307.36 79.8834 308.535 81.5 309.683 83.0963C305.042 78.381 300.192 73.8989 295.136 69.6505C291.775 67.2448 288.248 65.1142 284.555 63.2583C284.422 62.1302 284.569 61.1012 284.996 60.1724Z" fill="#FF0000"/>
<path fill-rule="evenodd" clip-rule="evenodd" d="M210.954 54.8828C208.024 57.8792 204.644 60.3039 200.815 62.1568C197.213 65.3917 193.686 68.698 190.234 72.0758C190.787 70.9327 191.522 69.9037 192.439 68.9899C194.802 66.7733 197.153 64.5691 199.492 62.3772C200.097 61.931 200.685 61.4902 201.255 61.0546C203.917 59.1392 206.562 57.2285 209.191 55.3237C209.778 55.1769 210.366 55.0296 210.954 54.8828Z" fill="#FF0000"/>
<path fill-rule="evenodd" clip-rule="evenodd" d="M207.853 67.6683C206.813 68.7051 205.638 69.5864 204.328 70.3122C204.799 69.3251 205.533 68.517 206.531 67.8886C206.949 67.6758 207.39 67.6026 207.853 67.6683Z" fill="#FF0000"/>
<path fill-rule="evenodd" clip-rule="evenodd" d="M306.609 72.9585C306.903 73.1053 307.197 73.2526 307.491 73.3994C309.416 76.0548 311.326 78.7001 313.223 81.3353C313.816 82.5226 314.404 83.6984 314.986 84.8623C313.81 83.9805 312.782 82.952 311.9 81.7761C310.52 78.6375 308.756 75.6981 306.609 72.9585Z" fill="#FF0000"/>
<path fill-rule="evenodd" clip-rule="evenodd" d="M311.892 81.7754C312.773 82.9511 313.802 83.9796 314.978 84.8613C314.907 85.6103 314.98 86.3452 315.198 87.0655C316.31 88.7112 317.412 90.3273 318.504 91.9148C319.018 93.6672 319.385 95.4306 319.607 97.205C317.738 93.7179 315.681 90.3384 313.435 87.0655C313.034 86.2107 312.373 85.7699 311.451 85.743C310.863 85.0081 310.275 84.2737 309.688 83.5388C310.549 83.9016 311.431 83.9752 312.333 83.7592C311.945 83.1614 311.797 82.5001 311.892 81.7754Z" fill="#FF0000"/>
<path fill-rule="evenodd" clip-rule="evenodd" d="M314.979 84.8594C316.611 86.9468 317.786 89.2979 318.505 91.9116C317.413 90.3244 316.312 88.7086 315.199 87.0632C314.982 86.343 314.909 85.6082 314.979 84.8594Z" fill="#FF0000"/>
<path fill-rule="evenodd" clip-rule="evenodd" d="M311.445 85.7422C312.368 85.7691 313.029 86.2099 313.429 87.0647C315.675 90.3376 317.733 93.7171 319.601 97.2042C319.379 95.4298 319.012 93.6664 318.499 91.914C320.986 96.5852 322.603 101.582 323.348 106.903C323.348 107.197 323.201 107.344 322.907 107.344C320.209 99.5142 316.388 92.3134 311.445 85.7422Z" fill="#FF0000"/>
<path fill-rule="evenodd" clip-rule="evenodd" d="M323.355 106.903C324.14 108.086 324.361 109.409 324.016 110.871C323.601 109.701 323.234 108.525 322.914 107.344C323.208 107.344 323.355 107.197 323.355 106.903Z" fill="#FF0000"/>
<path fill-rule="evenodd" clip-rule="evenodd" d="M240.922 45.1853C244.073 44.748 247.306 44.6012 250.62 44.7445C251.796 44.7445 252.971 44.7445 254.147 44.7445C257.137 45.0469 260.076 45.635 262.964 46.5079C255.662 45.3996 248.314 44.9587 240.922 45.1853Z" fill="#FF0000"/>
<path fill-rule="evenodd" clip-rule="evenodd" d="M240.484 45.626C240.484 45.4792 240.484 45.3319 240.484 45.1851C240.631 45.1851 240.778 45.1851 240.925 45.1851C248.318 44.9585 255.665 45.3994 262.967 46.5077C264.846 46.6831 266.609 47.124 268.258 47.8302C263.254 47.2562 258.258 46.595 253.269 45.8464C249.01 45.626 244.748 45.5528 240.484 45.626Z" fill="#FF0000"/>
<path fill-rule="evenodd" clip-rule="evenodd" d="M240.474 45.186C240.474 45.3328 240.474 45.4801 240.474 45.6269C236.422 45.8998 232.454 46.4875 228.57 47.3904C230.374 46.939 232.137 46.3513 233.861 45.6269C236.062 45.4435 238.267 45.2967 240.474 45.186Z" fill="#FF0000"/>
<path fill-rule="evenodd" clip-rule="evenodd" d="M232.544 55.7652C232.276 56.158 232.129 56.5989 232.104 57.0878C229.777 57.7654 227.425 58.3531 225.049 58.8513C223.908 58.8341 223.026 59.275 222.404 60.174C221.872 60.4976 221.284 60.6444 220.641 60.6149C221.07 59.8684 221.658 59.2071 222.404 58.6309C224.946 57.8748 227.444 56.993 229.899 55.9856C230.769 55.7674 231.651 55.6937 232.544 55.7652Z" fill="#FF0000"/>
<path fill-rule="evenodd" clip-rule="evenodd" d="M266.921 56.647C266.333 56.647 265.745 56.647 265.157 56.647C260.236 55.3254 255.166 54.7373 249.948 54.8836C246.043 54.9149 242.149 55.1354 238.266 55.5449C236.962 55.6679 235.787 56.0356 234.739 56.647C233.828 56.6545 232.947 56.8013 232.094 57.0879C232.119 56.599 232.266 56.1581 232.535 55.7653C237.963 55.0181 243.4 54.4305 248.846 54.002C253.421 54.1144 257.976 54.482 262.512 55.1041C264.176 55.3545 265.645 55.8689 266.921 56.647Z" fill="#FF0000"/>
<path fill-rule="evenodd" clip-rule="evenodd" d="M225.051 58.8516C224.31 59.5162 223.428 59.957 222.406 60.1739C223.028 59.2751 223.91 58.8344 225.051 58.8516Z" fill="#FF0000"/>
<path fill-rule="evenodd" clip-rule="evenodd" d="M291.602 58.8511C293.505 60.1678 295.269 61.6379 296.893 63.2606C297.495 64.3012 298.377 65.0363 299.539 65.4653C300.274 65.9063 300.862 66.4941 301.303 67.2292C298.237 66.293 295.885 64.456 294.247 61.7173C292.575 61.4134 291.693 60.4579 291.602 58.8511Z" fill="#FF0000"/>
<path fill-rule="evenodd" clip-rule="evenodd" d="M296.891 63.2603C298.032 63.6653 298.913 64.4001 299.535 65.4641C298.374 65.0352 297.492 64.3005 296.891 63.2603Z" fill="#FF0000"/>
<path fill-rule="evenodd" clip-rule="evenodd" d="M301.305 67.2271C303.39 68.87 305.153 70.78 306.594 72.9576C306.155 72.9955 305.788 72.8483 305.492 72.5168C303.992 70.8003 302.596 69.037 301.305 67.2271Z" fill="#FF0000"/>
<path fill-rule="evenodd" clip-rule="evenodd" d="M189.787 72.0781C189.068 73.4778 188.407 74.9476 187.803 76.4866C180.758 85.4322 175.688 95.4248 172.594 106.464C173.091 104.275 173.531 102.071 173.916 99.8514C175.589 95.7193 177.353 91.6049 179.206 87.5077C182.389 82.1223 185.916 76.979 189.787 72.0781Z" fill="#FF0000"/>
<path fill-rule="evenodd" clip-rule="evenodd" d="M187.147 87.9458C187.147 88.2398 187.147 88.5334 187.147 88.8275C184.646 92.0615 182.589 95.5883 180.975 99.4078C180.053 100.549 179.466 101.871 179.212 103.375C178.563 105.029 177.828 106.645 177.008 108.225C177.684 105.254 178.493 102.315 179.432 99.4078C180.595 97.3861 181.843 95.4023 183.18 93.4564C183.686 92.6937 183.686 91.9593 183.18 91.2521C183.911 90.4405 184.793 89.9261 185.825 89.7092C185.643 88.619 186.084 88.0313 187.147 87.9458Z" fill="#FF0000"/>
<path fill-rule="evenodd" clip-rule="evenodd" d="M177.003 108.667C176.785 109.683 176.639 110.712 176.562 111.752C175.72 113.054 175.279 114.524 175.239 116.161C174.331 118.672 173.89 121.317 173.917 124.096C173.546 124.924 173.399 125.806 173.476 126.741C173.329 126.741 173.182 126.741 173.035 126.741C172.979 124.81 173.126 122.899 173.476 121.01C173.938 118.532 174.305 116.033 174.578 113.516C175.434 111.888 176.243 110.272 177.003 108.667Z" fill="#FF0000"/>
<path fill-rule="evenodd" clip-rule="evenodd" d="M172.592 106.461C172.707 110.973 172.413 115.455 171.711 119.907C171.857 120.862 172.005 121.817 172.151 122.772C172.602 122.155 173.042 121.566 173.474 121.009C173.124 122.898 172.977 124.808 173.033 126.74C172.74 128.146 172.446 129.615 172.151 131.148C171.893 131.056 171.673 130.909 171.49 130.707C171.27 125.272 171.196 119.835 171.27 114.396C171.27 113.661 171.27 112.927 171.27 112.192C171.48 110.177 171.921 108.267 172.592 106.461Z" fill="#FF0000"/>
<path fill-rule="evenodd" clip-rule="evenodd" d="M171.274 114.397C171.201 119.836 171.274 125.273 171.495 130.708C171.677 130.91 171.898 131.057 172.156 131.149C172.45 129.616 172.744 128.146 173.038 126.741C173.111 131.299 173.038 135.854 172.817 140.407C172.648 140.162 172.428 140.015 172.156 139.966C170.34 131.428 170.047 122.905 171.274 114.397Z" fill="#FF0000"/>
<path fill-rule="evenodd" clip-rule="evenodd" d="M268.68 47.8311C270.316 48.2032 271.932 48.644 273.529 49.1537C275.016 49.9235 276.559 50.658 278.159 51.3581C278.282 52.2011 277.914 52.7892 277.056 53.1216C277.151 52.3968 277.004 51.7355 276.616 51.1377C273.647 50.6024 271.001 49.5002 268.68 47.8311Z" fill="#FF0000"/>
<path fill-rule="evenodd" clip-rule="evenodd" d="M277.053 53.1209C276.171 54.1496 275.289 55.1788 274.407 56.2075C273.617 57.0722 272.662 57.6605 271.541 57.9713C270.055 57.6468 268.659 57.2058 267.352 56.6485C269.635 56.7816 271.84 56.4875 273.966 55.7666C273.977 53.8299 275.006 52.948 277.053 53.1209Z" fill="#FF0000"/>
<path fill-rule="evenodd" clip-rule="evenodd" d="M285.889 55.3257C287.807 56.2836 289.571 57.4592 291.179 58.8522C289.666 58.0772 288.123 57.3424 286.55 56.6481C286.21 56.712 285.916 56.8588 285.669 57.0889C285.587 58.2068 285.366 59.2353 285.007 60.1746C284.838 58.4162 285.132 56.8002 285.889 55.3257Z" fill="#FF0000"/>
<path fill-rule="evenodd" clip-rule="evenodd" d="M173.022 126.741C173.169 126.741 173.316 126.741 173.463 126.741C173.435 133.367 173.509 139.979 173.684 146.579C173.503 145.961 173.282 145.373 173.022 144.815C172.798 143.186 172.505 141.569 172.141 139.966C172.413 140.015 172.633 140.162 172.802 140.407C173.022 135.854 173.095 131.299 173.022 126.741Z" fill="#FF0000"/>
<path fill-rule="evenodd" clip-rule="evenodd" d="M269.577 69.4311C269.603 69.1917 269.75 69.0449 270.018 68.9902C270.318 69.3178 270.612 69.6114 270.899 69.8719C270.519 71.3809 270.005 72.8503 269.357 74.2804C267.2 78.5707 263.894 81.5098 259.438 83.0973C259.438 82.9505 259.438 82.8032 259.438 82.6564C264.762 80.0453 268.288 75.8573 270.018 70.0923C269.987 69.7551 269.84 69.5347 269.577 69.4311Z" fill="#0D5679"/>
<path fill-rule="evenodd" clip-rule="evenodd" d="M271.783 66.7861C271.287 67.294 271.287 67.7348 271.783 68.1087C272.221 68.0328 272.514 68.1801 272.665 68.5495C271.575 68.3679 270.987 68.8087 270.902 69.872C270.615 69.6115 270.321 69.3179 270.02 68.9904C269.752 69.045 269.606 69.1918 269.579 69.4312C265.851 73.5967 262.471 78.0052 259.44 82.6566C259.44 82.8034 259.44 82.9506 259.44 83.0974C259.171 83.4902 259.024 83.931 258.999 84.4199C258.491 83.924 258.05 83.924 257.676 84.4199C253.228 90.6283 248.966 96.9474 244.892 103.376C244.272 103.168 243.978 102.727 244.01 102.054C251.501 89.5747 260.17 77.966 270.02 67.227C270.608 67.0802 271.196 66.9329 271.783 66.7861Z" fill="#0D5679"/>
<path fill-rule="evenodd" clip-rule="evenodd" d="M203.45 88.8281C204.539 88.9868 205.421 89.4277 206.096 90.1507C204.742 90.4024 204.154 91.2105 204.332 92.5753C205.29 96.3146 206.025 96.3146 206.536 92.5753C205.478 92.2204 205.552 91.8532 206.757 91.4732C207.454 92.1168 208.042 92.8517 208.52 93.6774C208.923 93.1687 209.29 93.2423 209.622 93.8978C209.328 94.0446 209.035 94.1919 208.741 94.3387C209.181 94.7059 209.622 95.0736 210.063 95.4408C209.62 95.8358 209.62 96.1294 210.063 96.3225C210.601 96.1519 210.895 95.7847 210.945 95.2204C210.579 94.5745 210.506 93.9133 210.724 93.2366C211.206 94.3581 211.5 95.5338 211.606 96.7633C212.221 97.6569 212.956 97.8037 213.81 97.2042C214.028 97.9245 214.101 98.6594 214.031 99.4084C213.315 99.3467 212.801 99.6407 212.488 100.29C212.332 99.5962 212.038 98.8613 211.606 98.0859C211.459 98.3799 211.312 98.6735 211.165 98.9676C210.381 98.536 209.647 98.6828 208.961 99.4084C208.294 99.0747 207.706 98.6338 207.198 98.0859C206.904 98.9676 206.316 99.5552 205.434 99.8492C205.28 98.9989 204.986 98.1172 204.553 97.2042C203.37 97.8183 203.296 98.4059 204.332 98.9676C203.811 99.8347 204.105 100.422 205.214 100.731C205.061 101.258 204.841 101.258 204.553 100.731C204.359 101.426 203.991 102.014 203.45 102.494C204.075 102.653 204.663 103.167 205.214 104.037C204.1 104.115 203.292 103.601 202.789 102.494C201.602 104.264 200.426 105.733 199.262 106.903C199.116 106.609 198.968 106.315 198.822 106.021C197.898 107.626 197.237 109.169 196.838 110.65C197.236 112.462 197.383 114.299 197.279 116.161C196.838 116.161 196.397 116.161 195.956 116.161C196.05 116.885 195.903 117.547 195.515 118.144C196.643 118.753 196.643 119.414 195.515 120.128C195.601 120.82 195.601 121.482 195.515 122.112C195.809 122.259 196.103 122.406 196.397 122.553C196.346 123.112 196.199 123.7 195.956 124.316C197.853 125.409 197.706 126.071 195.515 126.3C195.956 126.594 196.397 126.888 196.838 127.182C196.384 127.092 195.943 127.312 195.515 127.843C196.209 127.999 196.944 128.293 197.719 128.725C197.14 129.34 197.287 129.78 198.16 130.047C196 130.303 195.852 131.038 197.719 132.251C197.15 133.173 197.444 133.761 198.601 134.015C197.922 134.711 197.407 135.519 197.058 136.439C196.098 135.825 195.657 135.09 195.736 134.235C194.48 134.646 194.407 135.308 195.515 136.219C195.295 136.439 195.074 136.66 194.854 136.88C194.474 136.181 194.18 135.446 193.972 134.676C193.524 135.79 193.009 135.79 192.429 134.676C192.124 134.907 191.904 135.201 191.768 135.558C191.576 133.868 191.944 132.325 192.87 130.929C192.576 130.782 192.283 130.635 191.988 130.488C192.383 127.797 192.677 125.078 192.87 122.332C193.13 121.628 193.571 121.04 194.193 120.569C193.803 120.107 193.509 119.592 193.311 119.026C193.705 118.411 193.999 117.749 194.193 117.042C194.067 115.908 194.067 114.806 194.193 113.736C194.487 113.589 194.78 113.442 195.074 113.295C194.288 112.825 194.068 112.163 194.413 111.311C195.295 109.548 196.177 107.784 197.058 106.021C197.656 105.633 198.317 105.486 199.042 105.58C198.901 103.9 199.563 103.313 201.026 103.817C201.099 103.596 201.173 103.376 201.246 103.156C200.931 100.14 200.417 97.127 199.703 94.1183C199.908 93.4874 200.276 92.9734 200.805 92.5753C200.575 92.328 200.428 92.0339 200.365 91.6936C200.781 90.0299 201.81 89.075 203.45 88.8281Z" fill="#0D5679"/>
<path fill-rule="evenodd" clip-rule="evenodd" d="M237.39 118.807C237.02 118.656 236.873 118.363 236.949 117.925C242.644 110.24 248.449 102.599 254.362 95.0013C256.133 92.0406 257.382 88.8815 258.11 85.5231C258.097 85.0514 257.95 84.6842 257.669 84.421C258.043 83.9251 258.483 83.9251 258.991 84.421C257.766 90.9865 254.9 96.7175 250.395 101.614C250.091 101.981 250.165 102.274 250.615 102.496C255.965 99.1289 261.255 95.6758 266.486 92.1358C269.614 89.891 272.479 87.3191 275.082 84.421C276.59 82.2556 277.766 79.9041 278.609 77.3675C279.89 72.1448 280.698 66.8547 281.034 61.4971C281.531 60.559 281.605 59.5305 281.254 58.4112C281.028 58.8639 280.807 59.3048 280.593 59.7337C279.326 63.9381 276.681 66.8772 272.657 68.5506C272.507 68.1812 272.213 68.0339 271.776 68.1098C276.62 66.4235 279.486 63.0436 280.372 57.9703C277.405 60.8632 274.54 63.8023 271.776 66.7872C271.188 66.934 270.6 67.0813 270.012 67.2281C273.677 63.2697 277.497 59.4489 281.474 55.7661C282.108 63.8918 281.153 71.827 278.609 79.5717C276.731 83.6579 274.012 87.1111 270.453 89.9316C262.812 95.2217 255.17 100.512 247.529 105.802C243.88 109.951 240.5 114.286 237.39 118.807Z" fill="#0D5679"/>
<path fill-rule="evenodd" clip-rule="evenodd" d="M281.034 61.4957C281.152 60.7911 281.005 60.2037 280.594 59.7331C280.808 59.3043 281.029 58.8637 281.255 58.4111C281.605 59.5299 281.532 60.558 281.034 61.4957Z" fill="#0D5679"/>
<path fill-rule="evenodd" clip-rule="evenodd" d="M218.429 93.6758C217.683 94.1987 216.948 94.1251 216.225 93.4554C214.385 91.9001 212.915 90.0631 211.817 87.9449C211.431 87.6138 210.99 87.3934 210.494 87.2836C208.584 86.9895 206.673 86.9895 204.763 87.2836C204.23 87.7416 203.789 88.2561 203.441 88.8266C201.8 89.0734 200.771 90.0283 200.355 91.692C200.419 92.0324 200.566 92.3264 200.796 92.5737C200.266 92.9718 199.899 93.4858 199.694 94.1167C200.407 97.1255 200.922 100.138 201.237 103.154C201.163 103.374 201.09 103.595 201.016 103.815C199.553 103.311 198.892 103.899 199.032 105.579C198.308 105.484 197.646 105.632 197.049 106.02C196.167 107.783 195.285 109.546 194.403 111.31C194.058 112.162 194.279 112.823 195.065 113.293C194.771 113.44 194.477 113.587 194.183 113.734C194.057 114.805 194.057 115.907 194.183 117.041C193.989 117.748 193.695 118.409 193.301 119.024C193.5 119.591 193.794 120.105 194.183 120.567C193.561 121.039 193.121 121.627 192.86 122.331C192.542 122.515 192.322 122.809 192.199 123.212C192.037 125.13 191.817 127.04 191.538 128.943C191.476 129.618 191.182 130.059 190.656 130.266C190.909 127.029 191.202 123.796 191.538 120.567C192.124 115.063 193.814 109.92 196.608 105.138C197.914 104.273 199.089 103.245 200.134 102.052C200.428 101.023 200.428 99.9945 200.134 98.966C197.888 94.658 198.696 90.9109 202.559 87.7244C205.002 86.2692 207.647 85.8284 210.494 86.4019C211.414 86.7511 212.223 87.2655 212.919 87.9449C213.968 90.6825 215.805 92.5927 218.429 93.6758Z" fill="#0D5679"/>
<path fill-rule="evenodd" clip-rule="evenodd" d="M284.558 100.73C286.887 101.893 289.092 103.216 291.171 104.698C291.408 105.411 291.555 106.146 291.612 106.902C286.783 104.284 281.86 101.786 276.843 99.4079C275.888 100.436 274.933 101.465 273.978 102.494C274.07 102.752 274.217 102.973 274.419 103.155C273.73 103.295 273.216 103.663 272.876 104.257C272.717 102.915 272.423 102.768 271.994 103.816C271.7 103.229 271.7 102.641 271.994 102.053C272.748 100.97 273.336 99.7946 273.757 98.5262C275.472 96.2449 277.162 96.3185 278.827 98.7467C280.751 99.4172 282.662 100.078 284.558 100.73Z" fill="#0D5679"/>
<path fill-rule="evenodd" clip-rule="evenodd" d="M284.568 100.731C282.671 100.079 280.761 99.418 278.837 98.7475C277.172 96.3193 275.482 96.2457 273.767 98.5271C273.346 99.7954 272.758 100.971 272.004 102.054C271.71 102.641 271.71 103.23 272.004 103.817C272.433 102.769 272.727 102.916 272.886 104.258C273.226 103.663 273.74 103.296 274.428 103.156C274.227 102.973 274.08 102.753 273.988 102.495C274.943 101.466 275.898 100.437 276.853 99.4088C281.87 101.787 286.792 104.285 291.621 106.903C291.565 106.147 291.418 105.412 291.181 104.699C294.689 106.744 298.069 108.949 301.32 111.312C302.024 112.306 301.73 112.894 300.438 113.075C299.338 112.599 298.309 112.011 297.352 111.312C290.745 107.419 283.986 103.745 277.074 100.29C276.642 100.501 276.275 100.794 275.971 101.172C273.42 106.822 271.069 112.553 268.918 118.365C267.876 119.771 266.774 121.094 265.612 122.333C265.579 121.49 265.138 120.976 264.289 120.79C264.845 120.299 265.359 120.225 265.832 120.569C266.126 119.982 266.567 119.541 267.155 119.247C268.354 117.718 269.162 116.102 269.579 114.398C268.918 113.358 268.183 113.285 267.375 114.177C267.522 114.324 267.669 114.471 267.816 114.618C266.955 115.532 266.147 116.488 265.391 117.483C265.215 117.383 265.142 117.236 265.171 117.043C267.539 112.217 269.523 107.221 271.122 102.054C272.099 100.026 273.348 98.1894 274.869 96.5433C275.604 96.2492 276.339 96.2492 277.074 96.5433C279.742 97.7278 282.24 99.124 284.568 100.731Z" fill="#0D5679"/>
<path fill-rule="evenodd" clip-rule="evenodd" d="M301.311 111.311C305.84 114.076 310.248 117.016 314.537 120.127C314.684 120.421 314.831 120.715 314.978 121.009C314.831 121.009 314.684 121.009 314.537 121.009C309.688 118.586 304.986 115.941 300.43 113.074C301.722 112.893 302.015 112.305 301.311 111.311Z" fill="#0D5679"/>
<path fill-rule="evenodd" clip-rule="evenodd" d="M359.477 118.364C369.393 117.924 379.386 117.777 389.454 117.923C390.483 118.217 391.511 118.511 392.54 118.805C391.952 119.687 391.364 120.568 390.777 121.45C385.359 128.338 379.775 135.098 374.024 141.729C374.042 141.251 374.189 140.81 374.465 140.406C374.234 140.101 373.94 139.881 373.584 139.745C374.192 138.896 374.853 138.088 375.567 137.32C375.839 136.902 375.766 136.535 375.347 136.218C376.991 135.414 378.46 134.385 379.755 133.132C379.121 133.036 378.534 132.815 377.992 132.471C379.089 132.738 380.118 132.444 381.078 131.589C381.585 129.721 382.54 128.104 383.943 126.74C384.09 126.887 384.237 127.034 384.384 127.181C384.796 126.034 385.605 125.373 386.809 125.197C387.114 124.727 387.334 124.212 387.47 123.654C387.617 123.801 387.764 123.948 387.911 124.095C388.105 123.4 388.472 122.812 389.013 122.332C388.453 121.429 388.306 120.547 388.572 119.687C388.245 119.34 387.878 119.046 387.47 118.805C386.015 118.815 384.693 118.962 383.503 119.246C375.598 118.373 367.589 118.079 359.477 118.364Z" fill="#0D5679"/>
<path fill-rule="evenodd" clip-rule="evenodd" d="M389.484 117.924C390.695 117.786 391.87 117.933 393.01 118.365C392.955 118.632 392.808 118.779 392.569 118.805C391.541 118.512 390.512 118.218 389.484 117.924Z" fill="#0D5679"/>
<path fill-rule="evenodd" clip-rule="evenodd" d="M359.516 118.364C367.629 118.08 375.638 118.374 383.542 119.246C384.732 118.962 386.055 118.815 387.509 118.805C387.917 119.046 388.284 119.34 388.611 119.687C388.346 120.547 388.492 121.429 389.052 122.332C388.511 122.812 388.144 123.4 387.95 124.095C387.803 123.948 387.656 123.801 387.509 123.654C387.373 124.212 387.153 124.727 386.848 125.197C385.644 125.373 384.836 126.034 384.424 127.181C384.277 127.034 384.129 126.887 383.983 126.74C382.58 128.104 381.624 129.721 381.117 131.589C380.157 132.444 379.129 132.738 378.031 132.471C378.573 132.815 379.161 133.036 379.795 133.132C378.5 134.385 377.03 135.414 375.386 136.218C375.806 136.535 375.879 136.902 375.607 137.32C374.893 138.088 374.231 138.896 373.623 139.745C373.979 139.881 374.273 140.101 374.505 140.406C374.228 140.81 374.081 141.251 374.064 141.729C371.826 142.351 370.504 143.82 370.096 146.137C368.925 145.988 367.897 146.282 367.011 147.019C366.525 145.833 366.598 144.657 367.231 143.492C367.378 143.639 367.525 143.786 367.672 143.933C367.73 142.667 368.244 141.638 369.215 140.847C368.938 140.443 368.791 140.002 368.774 139.524C370.52 138.005 372.357 136.536 374.284 135.116C374.311 133.628 374.825 132.379 375.827 131.369C375.68 131.222 375.533 131.075 375.386 130.928C377.491 129.493 378.373 127.509 378.031 124.977C370.431 125.102 362.863 125.396 355.329 125.859C355.182 125.564 355.034 125.271 354.888 124.977C354.361 125.387 353.774 125.681 353.124 125.859C351.257 125.634 349.421 125.486 347.614 125.418C347.349 124.04 346.835 123.893 346.071 124.977C345.547 124.508 345.327 123.92 345.41 123.214C344.532 123.289 343.797 122.995 343.206 122.332C342.849 122.468 342.555 122.688 342.324 122.993C342.874 123.652 342.874 124.313 342.324 124.977C341.993 124.591 341.772 124.15 341.663 123.654C340.922 124.863 340.04 125.598 339.018 125.859C338.871 125.564 338.724 125.271 338.577 124.977C337.401 126.153 336.226 126.153 335.05 124.977C334.903 125.271 334.756 125.564 334.609 125.859C333.848 125.473 333.04 125.547 332.185 126.079C334.095 126.226 336.005 126.373 337.916 126.52C338.319 126.642 338.613 126.863 338.797 127.181C337.953 127.056 337.219 127.203 336.593 127.622C335.417 127.622 334.242 127.622 333.066 127.622C331.759 127.402 330.436 127.256 329.099 127.181C325.602 127.812 322.075 128.105 318.519 128.063C319.04 127.372 319.774 127.004 320.723 126.961C319.988 126.814 319.254 126.667 318.519 126.52C318.813 126.373 319.107 126.226 319.401 126.079C318.884 125.894 318.443 125.601 318.078 125.197C318.666 124.903 318.666 124.61 318.078 124.316C318.627 124.115 318.994 124.335 319.18 124.977C319.942 124.23 319.722 123.716 318.519 123.434C318.75 123.129 319.044 122.908 319.401 122.773C319.856 123.452 320.443 123.672 321.164 123.434C320.808 123.298 320.514 123.078 320.282 122.773C320.618 122.592 321.059 122.518 321.605 122.552C321.36 122.383 321.213 122.163 321.164 121.891C321.748 121.251 322.115 121.398 322.266 122.332C325.75 121.167 329.276 120.58 332.846 120.569C334.853 121.285 336.763 121.138 338.577 120.128C340.119 120.551 341.662 120.477 343.206 119.907C342.66 119.805 342.219 119.585 341.883 119.246C347.731 118.606 353.609 118.312 359.516 118.364Z" fill="#0D5679"/>
<path fill-rule="evenodd" clip-rule="evenodd" d="M243.998 102.054C243.965 102.727 244.26 103.168 244.879 103.376C241.893 108.026 239.248 112.875 236.944 117.924C236.868 118.361 237.016 118.655 237.385 118.806C236.753 119.929 236.018 120.958 235.181 121.892C234.966 120.653 235.407 119.55 236.503 118.585C235.709 117.229 234.827 117.156 233.858 118.365C232.582 120.991 231.26 123.563 229.891 126.08C228.771 126.431 227.743 126.357 226.805 125.859C227.672 125.965 228.48 125.818 229.229 125.418C233.502 117.155 238.424 109.367 243.998 102.054Z" fill="#0D5679"/>
<path fill-rule="evenodd" clip-rule="evenodd" d="M299.103 124.537C298.918 124.855 298.625 125.075 298.221 125.198C299.029 125.712 299.837 126.226 300.646 126.741C300.792 126.594 300.94 126.447 301.086 126.3C301.38 126.741 301.38 127.182 301.086 127.622C300.94 127.476 300.792 127.328 300.646 127.182C299.853 128.212 298.898 128.505 297.78 128.063C297.475 128.295 297.255 128.589 297.119 128.945C296.983 128.589 296.763 128.295 296.458 128.063C296.276 128.399 296.203 128.84 296.237 129.386C296.055 129.184 295.834 129.037 295.576 128.945C294.286 130.096 293.111 129.949 292.049 128.504C291.827 129.757 291.092 130.345 289.845 130.268C289.877 128.654 289.437 128.36 288.522 129.386C288.191 129 287.971 128.559 287.861 128.063C286.627 130.464 285.525 130.39 284.555 127.843C285.103 127.642 285.47 127.862 285.657 128.504C285.873 127.934 285.946 127.346 285.877 126.741C286.916 126.813 287.945 126.739 288.963 126.52C288.463 126.072 288.61 125.778 289.404 125.639C289.142 125.434 288.848 125.36 288.522 125.418C289.31 124.838 290.045 124.984 290.727 125.859C293.116 125.182 295.541 124.595 298 124.096C298.472 124.108 298.839 124.255 299.103 124.537Z" fill="#0D5679"/>
<path fill-rule="evenodd" clip-rule="evenodd" d="M368.766 139.524C369.06 138.789 369.354 138.055 369.648 137.32C372.304 133.777 374.802 130.103 377.142 126.299C377.382 126.272 377.528 126.125 377.583 125.858C375.165 125.278 372.813 125.278 370.53 125.858C363.037 126.214 355.542 126.581 348.046 126.96C347.658 127.272 347.364 127.64 347.165 128.062C346.724 128.356 346.283 128.65 345.842 128.944C345.523 127.239 346.11 126.064 347.606 125.417C349.413 125.486 351.249 125.633 353.116 125.858C353.766 125.68 354.353 125.386 354.88 124.976C355.026 125.27 355.174 125.564 355.32 125.858C362.855 125.395 370.423 125.101 378.024 124.976C378.365 127.508 377.483 129.492 375.379 130.927C375.526 131.074 375.673 131.222 375.82 131.368C374.818 132.379 374.303 133.628 374.277 135.116C372.349 136.535 370.512 138.005 368.766 139.524Z" fill="#0D5679"/>
<path fill-rule="evenodd" clip-rule="evenodd" d="M370.539 125.857C372.822 125.277 375.173 125.277 377.591 125.857C377.537 126.125 377.39 126.271 377.151 126.298C375.033 125.863 372.829 125.716 370.539 125.857Z" fill="#0D5679"/>
<path fill-rule="evenodd" clip-rule="evenodd" d="M321.136 121.891C321.184 122.163 321.331 122.383 321.576 122.552C321.031 122.518 320.59 122.591 320.254 122.772C320.485 123.077 320.779 123.298 321.136 123.434C320.415 123.672 319.827 123.451 319.372 122.772C319.016 122.908 318.722 123.129 318.491 123.434C319.693 123.715 319.914 124.23 319.152 124.976C318.965 124.335 318.598 124.114 318.05 124.315C318.637 124.609 318.637 124.903 318.05 125.197C318.415 125.6 318.856 125.894 319.372 126.079C319.078 126.225 318.785 126.373 318.491 126.519C319.225 126.666 319.96 126.813 320.695 126.96C319.746 127.004 319.011 127.372 318.491 128.062C318.219 128.013 317.998 127.867 317.829 127.621C317.157 128.159 316.349 128.453 315.405 128.503C310.251 128.962 305.108 129.402 299.976 129.826C299.559 129.611 299.118 129.464 298.653 129.385C297.819 129.814 296.937 130.108 296.008 130.266C290.613 130.294 285.323 130.955 280.138 132.25C274.973 132.649 269.83 133.164 264.709 133.793C263.885 133.597 263.077 133.45 262.284 133.352C261.549 134.331 260.667 134.479 259.639 133.793C258.003 134.71 256.24 135.298 254.349 135.556C253.662 135.323 253.001 135.029 252.366 134.675C250.701 135.891 248.791 136.552 246.635 136.659C245.053 136.75 243.51 136.97 242.006 137.32C241.823 137.118 241.603 136.971 241.345 136.879C240.002 137.447 238.68 137.594 237.377 137.32C238.731 135.322 238.291 134.44 236.055 134.675C237.618 133.531 239.234 133.531 240.904 134.675C241.931 133.72 243.107 132.985 244.431 132.471C245.606 133.058 246.781 133.058 247.957 132.471C248.262 132.702 248.483 132.996 248.618 133.352C250.987 133.16 252.97 132.205 254.57 130.487C254.199 129.752 254.42 129.679 255.231 130.266C255.672 129.826 256.113 129.385 256.553 128.944C256.994 129.385 257.435 129.826 257.876 130.266C258.861 129.941 259.743 129.941 260.521 130.266C261.679 130.02 262.781 129.506 263.827 128.724C265.974 128.113 268.104 128.039 270.219 128.503C272.207 128.276 274.264 127.835 276.391 127.181C276.964 127.383 277.552 127.531 278.154 127.621C279.616 126.73 281.159 126.582 282.783 127.181C283.215 126.528 283.729 125.94 284.326 125.417C285.719 126.557 287.116 126.557 288.514 125.417C288.84 125.36 289.134 125.433 289.396 125.638C288.602 125.777 288.455 126.072 288.955 126.519C287.936 126.738 286.908 126.812 285.869 126.74C285.938 127.345 285.864 127.933 285.648 128.503C285.462 127.861 285.095 127.641 284.546 127.842C285.516 130.389 286.618 130.463 287.853 128.062C287.962 128.558 288.183 128.999 288.514 129.385C289.428 128.359 289.869 128.653 289.836 130.266C291.083 130.344 291.818 129.756 292.041 128.503C293.102 129.948 294.278 130.095 295.567 128.944C295.826 129.036 296.046 129.183 296.228 129.385C296.195 128.839 296.268 128.398 296.449 128.062C296.754 128.294 296.974 128.588 297.11 128.944C297.246 128.588 297.466 128.294 297.771 128.062C298.889 128.504 299.844 128.211 300.637 127.181C300.784 127.327 300.931 127.475 301.078 127.621C301.372 127.181 301.372 126.74 301.078 126.299C300.931 126.446 300.784 126.593 300.637 126.74C299.829 126.225 299.02 125.711 298.212 125.197C298.616 125.074 298.91 124.854 299.094 124.536C299.663 125.259 300.397 125.479 301.298 125.197C301.004 125.05 300.71 124.903 300.416 124.756C301.305 124.569 302.113 124.201 302.841 123.654C303.626 123.759 304.434 123.906 305.266 124.095C305.789 123.504 306.45 123.21 307.249 123.213C308.728 123.282 310.197 123.282 311.658 123.213C312.074 123.392 312.368 123.686 312.539 124.095C312.568 123.044 312.935 122.75 313.641 123.213C314.255 122.612 314.99 122.245 315.846 122.111C317.603 121.891 319.366 121.817 321.136 121.891Z" fill="#0D5679"/>
<path fill-rule="evenodd" clip-rule="evenodd" d="M347.603 125.417C346.107 126.064 345.52 127.24 345.839 128.944C345.567 128.895 345.347 128.748 345.178 128.503C344.116 129.881 342.72 130.763 340.99 131.148C340.445 132.575 339.71 133.898 338.786 135.116C336.929 133.383 336.488 133.603 337.463 135.777C337.49 136.532 337.196 137.119 336.581 137.541C336.728 137.687 336.875 137.835 337.022 137.982C336.456 138.283 335.942 138.209 335.479 137.761C335.019 138.256 334.725 138.844 334.598 139.524C333.221 139.638 332.046 140.373 331.071 141.729C330.924 141.582 330.777 141.435 330.63 141.288C330.328 141.854 330.402 142.368 330.85 142.831C330.181 143.426 329.593 144.088 329.087 144.815C328.679 144.312 328.312 144.312 327.985 144.815C327.654 144.539 327.287 144.318 326.883 144.153C328.477 143.221 329.505 142.045 329.969 140.627C330.619 140.046 331.353 139.606 332.173 139.304C331.623 138.645 331.623 137.984 332.173 137.32C334.554 134.43 336.831 131.491 339.006 128.503C339.213 128.029 339.14 127.588 338.786 127.181C338.601 126.863 338.308 126.642 337.904 126.52C335.994 126.373 334.083 126.226 332.173 126.079C333.028 125.547 333.836 125.473 334.598 125.858C334.744 125.564 334.892 125.271 335.038 124.977C336.214 126.152 337.389 126.152 338.565 124.977C338.712 125.271 338.859 125.564 339.006 125.858C340.028 125.598 340.91 124.863 341.651 123.654C341.761 124.15 341.981 124.59 342.312 124.977C342.862 124.313 342.862 123.651 342.312 122.993C342.544 122.688 342.838 122.467 343.194 122.332C343.786 122.995 344.52 123.289 345.398 123.213C345.315 123.92 345.536 124.508 346.06 124.977C346.824 123.893 347.338 124.04 347.603 125.417Z" fill="#0D5679"/>
<path fill-rule="evenodd" clip-rule="evenodd" d="M265.604 122.33C263.232 124.77 260.587 126.9 257.669 128.722C262.218 128.167 266.773 127.505 271.335 126.738C285.787 124.748 300.188 122.838 314.536 121.007C314.683 121.007 314.83 121.007 314.977 121.007C323.941 120.42 332.904 119.832 341.868 119.244C342.204 119.583 342.645 119.803 343.19 119.905C341.647 120.475 340.104 120.549 338.562 120.126C336.748 121.136 334.838 121.283 332.831 120.567C329.261 120.578 325.734 121.165 322.251 122.33C322.1 121.396 321.733 121.249 321.149 121.889C319.379 121.816 317.616 121.89 315.859 122.11C315.003 122.244 314.269 122.611 313.655 123.212C312.948 122.749 312.581 123.043 312.552 124.093C312.381 123.684 312.087 123.39 311.671 123.212C310.21 123.281 308.741 123.281 307.262 123.212C306.464 123.209 305.802 123.503 305.279 124.093C304.447 123.905 303.639 123.758 302.854 123.652C302.126 124.2 301.318 124.568 300.43 124.755C300.724 124.901 301.017 125.049 301.311 125.195C300.411 125.477 299.676 125.257 299.107 124.534C298.844 124.252 298.477 124.106 298.005 124.093C295.546 124.592 293.121 125.18 290.731 125.857C290.05 124.982 289.315 124.835 288.527 125.416C287.129 126.556 285.733 126.556 284.339 125.416C283.743 125.938 283.228 126.526 282.796 127.179C281.172 126.581 279.629 126.728 278.167 127.62C277.565 127.529 276.978 127.382 276.404 127.179C274.277 127.833 272.22 128.274 270.232 128.502C268.117 128.037 265.987 128.111 263.84 128.722C262.794 129.505 261.692 130.019 260.534 130.265C259.756 129.939 258.874 129.939 257.889 130.265C257.448 129.824 257.007 129.383 256.567 128.942C256.126 129.383 255.685 129.824 255.244 130.265C254.433 129.677 254.213 129.751 254.583 130.485C252.984 132.203 251 133.159 248.632 133.351C248.496 132.995 248.275 132.701 247.97 132.469C246.795 133.057 245.619 133.057 244.444 132.469C243.12 132.983 241.944 133.718 240.917 134.673C239.248 133.529 237.631 133.529 236.068 134.673C235.091 134.29 234.062 134.143 232.982 134.232C233.051 133.627 232.978 133.039 232.762 132.469C232.359 132.978 231.992 132.904 231.66 132.249C232.317 131.357 232.17 130.623 231.219 130.045C231.806 129.604 231.806 129.163 231.219 128.722C232.494 127.743 233.963 127.228 235.627 127.179C235.725 126.367 235.873 125.559 236.068 124.755C235.868 123.9 235.574 123.092 235.186 122.33C236.415 122.717 237.002 123.599 236.95 124.975C236.656 127.542 235.187 128.791 232.541 128.722C233.318 130.152 233.612 131.695 233.423 133.351C240.195 132.002 246.954 130.606 253.701 129.163C258.084 125.591 261.904 121.55 265.163 117.04C265.134 117.233 265.207 117.38 265.383 117.481C266.139 116.485 266.947 115.53 267.808 114.615C267.661 114.469 267.514 114.321 267.367 114.175C268.176 113.282 268.91 113.355 269.571 114.395C269.154 116.1 268.346 117.716 267.147 119.244C266.559 119.538 266.118 119.979 265.824 120.567C265.351 120.223 264.837 120.296 264.281 120.787C265.13 120.973 265.571 121.488 265.604 122.33Z" fill="#0D5679"/>
<path d="M204.775 87.283C206.685 86.989 208.596 86.989 210.507 87.283C211.002 87.3928 211.443 87.6131 211.829 87.9442C212.927 90.0624 214.397 91.8996 216.237 93.4549C216.96 94.1245 217.695 94.1975 218.442 93.6746C219.625 93.5545 220.286 93.996 220.426 94.9979C218.805 95.7529 217.115 96.34 215.356 96.7606C214.739 98.8338 214.077 100.891 213.372 102.932C212.138 103.208 210.888 103.502 209.625 103.814C210.495 105.199 211.45 106.521 212.49 107.782C214.868 112.979 217.367 118.123 219.985 123.212C220.499 123.726 221.013 124.24 221.527 124.755C223.327 124.988 225.091 125.355 226.818 125.856C227.756 126.354 228.785 126.428 229.904 126.077C231.273 123.56 232.595 120.988 233.871 118.362C234.84 117.153 235.722 117.226 236.516 118.583C235.42 119.548 234.98 120.649 235.194 121.889V122.33C235.582 123.092 235.876 123.9 236.076 124.755C235.881 125.559 235.733 126.368 235.635 127.18C233.971 127.229 232.502 127.743 231.226 128.722C231.814 129.163 231.814 129.604 231.226 130.045C232.178 130.623 232.324 131.358 231.667 132.249C231.999 132.904 232.366 132.978 232.769 132.47C232.985 133.039 233.059 133.627 232.99 134.232C234.07 134.143 235.099 134.291 236.076 134.674C238.311 134.439 238.752 135.32 237.398 137.318C235.725 138.422 233.815 138.936 231.667 138.861C230.122 139.296 228.653 139.81 227.259 140.404C219.027 142.315 210.798 144.225 202.571 146.136C200.34 146.489 198.136 146.929 195.959 147.458C195.775 147.183 195.481 147.036 195.077 147.017C193.184 147.53 191.273 147.75 189.345 147.679L189.787 147.237C188.742 146.274 188.816 145.32 190.008 144.372C190.172 141.697 190.539 139.052 191.109 136.436C190.736 134.842 190.589 133.225 190.669 131.588V130.265C191.195 130.058 191.489 129.617 191.551 128.942C191.829 127.039 192.049 125.129 192.212 123.212C192.334 122.808 192.555 122.514 192.873 122.33C192.679 125.076 192.386 127.794 191.991 130.485C192.285 130.632 192.579 130.78 192.873 130.927C191.947 132.323 191.579 133.866 191.77 135.555C191.906 135.199 192.127 134.905 192.431 134.674C193.012 135.788 193.526 135.788 193.974 134.674C194.182 135.443 194.476 136.178 194.856 136.878L195.517 136.217C194.409 135.305 194.483 134.644 195.738 134.232C195.66 135.087 196.101 135.822 197.06 136.436C197.409 135.517 197.924 134.708 198.603 134.013C197.447 133.759 197.153 133.17 197.722 132.249C195.855 131.035 196.002 130.3 198.163 130.045C197.29 129.778 197.143 129.337 197.722 128.722C196.947 128.29 196.211 127.996 195.517 127.841C195.945 127.31 196.387 127.09 196.841 127.18C196.4 126.885 195.958 126.592 195.517 126.298C197.708 126.068 197.856 125.407 195.959 124.313C196.202 123.697 196.348 123.109 196.399 122.551C196.105 122.404 195.811 122.256 195.517 122.109C195.603 121.479 195.603 120.818 195.517 120.126C196.645 119.412 196.645 118.75 195.517 118.141C195.905 117.544 196.053 116.883 195.959 116.158H197.281C197.386 114.297 197.239 112.46 196.841 110.647C197.24 109.167 197.9 107.623 198.824 106.018C198.971 106.312 199.119 106.606 199.265 106.9C200.429 105.731 201.605 104.261 202.792 102.492C203.295 103.598 204.103 104.113 205.217 104.035C204.666 103.164 204.078 102.65 203.453 102.492C203.994 102.011 204.361 101.423 204.555 100.728C204.844 101.255 205.064 101.256 205.217 100.728C204.108 100.42 203.814 99.8318 204.335 98.9647C203.299 98.403 203.373 97.8161 204.555 97.202C204.989 98.1147 205.282 98.9963 205.436 99.8465C206.318 99.5525 206.906 98.9645 207.2 98.0828C207.709 98.6308 208.297 99.0724 208.964 99.4061C209.649 98.6805 210.384 98.5332 211.168 98.9647C211.315 98.6707 211.461 98.3768 211.608 98.0828C212.04 98.8583 212.334 99.594 212.49 100.288C212.803 99.6386 213.317 99.3444 214.033 99.4061C214.103 98.6572 214.031 97.9222 213.813 97.202C212.959 97.8015 212.224 97.6542 211.608 96.7606C211.502 95.5313 211.209 94.3555 210.727 93.2342C210.509 93.9108 210.581 94.5719 210.947 95.2176C210.897 95.7819 210.603 96.1495 210.065 96.3201C209.622 96.1271 209.622 95.8331 210.065 95.4383C209.624 95.0711 209.184 94.7029 208.743 94.3358C209.037 94.189 209.331 94.0421 209.625 93.8953C209.293 93.2398 208.925 93.1659 208.522 93.6746C208.044 92.8491 207.457 92.1141 206.76 91.4705C205.554 91.8505 205.48 92.2182 206.539 92.5731C206.027 96.3119 205.293 96.3119 204.335 92.5731C204.157 91.2082 204.745 90.4 206.098 90.1483C205.424 89.4253 204.542 88.9847 203.453 88.826C203.801 88.2557 204.242 87.741 204.775 87.283ZM210.064 124.533C210.605 127.011 211.781 129.142 213.592 130.926C216.257 132.29 219.049 133.319 221.968 134.012C222.775 134.232 223.29 134.747 223.511 135.555C223.862 134.779 223.788 134.044 223.29 133.35C220.918 132.773 218.566 132.111 216.236 131.366C213.311 129.836 211.254 127.558 210.064 124.533Z" fill="#0D5679"/>
<path fill-rule="evenodd" clip-rule="evenodd" d="M333.042 127.622C326.482 128.168 319.869 128.756 313.205 129.385C302.212 130.063 291.338 131.239 280.583 132.912C280.142 132.912 279.701 132.912 279.261 132.912C269.737 133.808 260.332 135.13 251.047 136.879C246.902 137.276 242.788 137.864 238.704 138.643C234.89 139.272 231.069 139.86 227.242 140.406C228.637 139.812 230.106 139.298 231.651 138.863C233.798 138.938 235.708 138.424 237.381 137.32C238.684 137.595 240.007 137.448 241.349 136.879C241.607 136.972 241.828 137.119 242.01 137.32C243.514 136.971 245.057 136.75 246.639 136.659C248.795 136.553 250.705 135.892 252.37 134.675C253.005 135.03 253.666 135.324 254.353 135.557C256.244 135.299 258.008 134.711 259.643 133.794C260.671 134.479 261.553 134.332 262.288 133.353C263.081 133.45 263.89 133.597 264.713 133.794C269.834 133.164 274.977 132.65 280.142 132.251C285.327 130.956 290.617 130.294 296.012 130.267C296.941 130.108 297.823 129.814 298.657 129.385C299.122 129.465 299.563 129.611 299.98 129.826C305.112 129.403 310.255 128.962 315.409 128.504C316.353 128.454 317.161 128.16 317.833 127.622C318.002 127.867 318.223 128.014 318.495 128.063C322.051 128.106 325.578 127.812 329.075 127.181C330.412 127.256 331.734 127.402 333.042 127.622Z" fill="#0D5679"/>
<path fill-rule="evenodd" clip-rule="evenodd" d="M336.567 127.621C337.192 127.202 337.927 127.055 338.771 127.18C339.125 127.587 339.199 128.028 338.991 128.502C336.817 131.49 334.539 134.429 332.158 137.319C331.608 137.983 331.608 138.645 332.158 139.303C331.339 139.605 330.604 140.046 329.954 140.626C329.491 142.044 328.462 143.22 326.868 144.152C327.272 144.317 327.64 144.538 327.97 144.814C328.297 144.311 328.665 144.311 329.072 144.814C329.578 144.087 330.166 143.426 330.836 142.83C330.387 142.367 330.314 141.853 330.615 141.287C330.762 141.434 330.909 141.581 331.056 141.728C332.031 140.372 333.207 139.637 334.583 139.524C334.711 138.843 335.004 138.255 335.465 137.76C335.927 138.209 336.441 138.282 337.008 137.981C336.861 137.834 336.713 137.687 336.567 137.54C337.181 137.118 337.475 136.531 337.448 135.776C336.474 133.602 336.914 133.382 338.771 135.115C339.695 133.897 340.43 132.575 340.975 131.148C342.705 130.762 344.102 129.88 345.163 128.502C345.332 128.748 345.552 128.894 345.824 128.943C338.576 137.587 330.641 145.596 322.019 152.969C314.373 158.357 305.997 162.031 296.891 163.99C304.673 160.457 311.874 156.048 318.492 150.765C325.928 143.775 332.541 136.133 338.33 127.841C337.76 127.625 337.172 127.552 336.567 127.621Z" fill="#0D5679"/>
<path fill-rule="evenodd" clip-rule="evenodd" d="M368.754 139.525C368.771 140.002 368.919 140.443 369.195 140.847C368.224 141.639 367.71 142.668 367.652 143.933C367.505 143.787 367.358 143.639 367.211 143.493C366.578 144.658 366.505 145.833 366.991 147.019C367.877 146.283 368.905 145.989 370.077 146.138C370.484 143.821 371.807 142.352 374.044 141.729C364.921 153.497 354.488 163.93 342.744 173.029C340.981 174.058 339.217 175.087 337.454 176.115C331.929 176.94 326.344 177.234 320.702 176.997C320.265 177.073 319.971 176.925 319.82 176.556C319.967 176.556 320.114 176.556 320.261 176.556C324.966 176.629 329.668 176.556 334.368 176.335C336.604 174.491 338.808 172.654 340.981 170.825C351.385 161.309 360.643 150.875 368.754 139.525Z" fill="#0D5679"/>
<path fill-rule="evenodd" clip-rule="evenodd" d="M190.645 131.588C190.565 133.226 190.713 134.843 191.086 136.438C190.516 139.053 190.148 141.698 189.983 144.373C188.791 145.321 188.718 146.276 189.763 147.238C189.616 147.385 189.469 147.532 189.322 147.679C191.25 147.751 193.16 147.53 195.053 147.018C195.457 147.037 195.751 147.184 195.935 147.459C181.04 150.889 166.344 155.003 151.85 159.802C151.945 159.062 151.651 158.621 150.969 158.48C155.279 156.525 159.688 154.688 164.194 152.969C159.883 150.752 155.328 149.724 150.528 149.883C147.822 150.711 145.177 151.667 142.593 152.749C142.332 152.462 142.038 152.168 141.711 151.867C142.201 151.53 142.495 151.089 142.593 150.545C145.862 148.524 149.389 147.202 153.173 146.577C154.994 146.665 156.757 147.033 158.463 147.679C161.151 149.059 163.723 150.602 166.178 152.308C169.286 151.25 172.299 150.074 175.215 148.781C179.889 147.444 184.517 145.974 189.102 144.373C189.643 140.051 190.158 135.79 190.645 131.588Z" fill="#0D5679"/>
<path fill-rule="evenodd" clip-rule="evenodd" d="M142.616 150.544C142.519 151.088 142.224 151.529 141.734 151.867C142.062 152.167 142.355 152.461 142.616 152.748C139.619 154.173 136.68 155.716 133.798 157.378C132.591 159.014 131.856 160.851 131.594 162.889C131.195 162.576 131.049 162.135 131.153 161.566C130.837 159.41 131.425 157.573 132.917 156.055C136.09 154.101 139.323 152.264 142.616 150.544Z" fill="#0D5679"/>
<path fill-rule="evenodd" clip-rule="evenodd" d="M150.979 158.479C151.661 158.621 151.955 159.062 151.86 159.802C147.75 161.198 143.635 162.447 139.516 163.55C143.19 161.491 147.012 159.801 150.979 158.479Z" fill="#0D5679"/>
<path fill-rule="evenodd" clip-rule="evenodd" d="M412.831 152.748C411.367 153.062 410.191 153.87 409.304 155.173C408.887 155.386 408.446 155.459 407.982 155.393C407.982 155.834 407.982 156.275 407.982 156.716C406.524 156.484 405.569 157.072 405.116 158.479C404.97 158.332 404.822 158.185 404.676 158.038C404.152 158.507 403.931 159.095 404.014 159.802C402.251 161.056 400.267 161.938 398.063 162.447C397.916 162.3 397.769 162.153 397.622 162.006C397.321 162.572 397.394 163.086 397.842 163.549C397.058 163.117 396.324 163.264 395.638 163.99C395.135 164.316 395.135 164.684 395.638 165.092C394.649 165.521 393.621 165.668 392.552 165.533C392.244 166.633 391.803 167.661 391.23 168.619C390.057 168.909 389.028 169.497 388.144 170.382C388.04 170.053 387.893 169.685 387.703 169.28C388.345 169.093 388.565 168.726 388.364 168.178C387.923 168.472 387.483 168.765 387.042 169.059C386.883 168.13 386.589 167.248 386.16 166.414C385.634 167.307 384.972 167.454 384.176 166.855C383.845 167.241 383.625 167.682 383.515 168.178C383.368 167.884 383.221 167.59 383.074 167.296C382.78 167.884 382.487 167.884 382.192 167.296C381.667 167.948 381.446 168.536 381.531 169.059C381.226 168.828 381.006 168.534 380.87 168.178C380.603 169.051 380.162 169.198 379.547 168.619C378.611 168.939 377.656 169.233 376.682 169.5C375.927 169.333 375.486 168.892 375.359 168.178C379.572 166.369 383.833 164.532 388.144 162.667C388.879 162.373 389.613 162.373 390.348 162.667C389.861 163.166 390.008 163.533 390.789 163.769C391.45 161.851 392.552 161.41 394.095 162.447C394.974 161.607 394.753 161.092 393.434 160.904C394.394 160.374 395.423 160.153 396.52 160.243C396.52 159.802 396.52 159.361 396.52 158.92C398.118 158.558 399.661 157.97 401.149 157.157C404.545 154.669 408.439 152.465 412.831 150.544C413.243 151.247 413.243 151.982 412.831 152.748Z" fill="#0D5679"/>
<path fill-rule="evenodd" clip-rule="evenodd" d="M131.157 161.566C131.052 162.135 131.199 162.575 131.597 162.888C131.505 163.514 131.285 164.102 130.936 164.65C130.585 163.532 130.659 162.504 131.157 161.566Z" fill="#0D5679"/>
<path fill-rule="evenodd" clip-rule="evenodd" d="M412.835 152.749C413.246 151.982 413.246 151.248 412.835 150.545C408.443 152.466 404.548 154.67 401.152 157.157C399.664 157.97 398.121 158.558 396.523 158.921C396.523 159.362 396.523 159.803 396.523 160.243C395.426 160.154 394.397 160.375 393.437 160.905C394.757 161.093 394.977 161.607 394.099 162.448C392.555 161.411 391.453 161.852 390.792 163.77C390.012 163.534 389.865 163.167 390.351 162.668C389.617 162.374 388.882 162.374 388.147 162.668C383.837 164.533 379.575 166.37 375.363 168.179C375.363 167.885 375.216 167.738 374.922 167.738C375.95 167.15 376.979 166.562 378.008 165.974C378.155 165.974 378.302 165.974 378.449 165.974C389.395 161.529 399.975 156.386 410.189 150.545C413.703 148.714 417.23 147.024 420.77 145.475C418.314 148.153 415.669 150.578 412.835 152.749Z" fill="#0D5679"/>
<path fill-rule="evenodd" clip-rule="evenodd" d="M412.842 152.748C389.318 174.354 361.693 187.726 329.966 192.864C320.602 194.094 311.198 194.461 301.752 193.966C291.001 193.253 280.274 192.298 269.571 191.101C269.571 190.807 269.425 190.66 269.131 190.66C269.315 190.341 269.608 190.121 270.012 189.998C268.805 189.565 267.63 189.051 266.486 188.456C265.414 188.852 264.311 189.146 263.179 189.337C256.614 188.618 250.075 187.736 243.562 186.692C243.19 185.695 242.602 185.401 241.799 185.811C241.361 184.056 240.92 184.056 240.476 185.811C239.668 185.957 238.86 186.105 238.052 186.251C227.813 185.466 217.453 184.658 206.973 183.827C206.742 183.522 206.448 183.301 206.091 183.166C198.408 183.704 190.546 183.704 182.507 183.166C179.159 183.685 175.779 184.126 172.368 184.488C170.785 184.358 169.315 184.212 167.959 184.047C166.552 184.955 165.303 185.543 164.212 185.811C158.544 186.904 152.813 188.006 147.02 189.117C145.289 189.436 143.672 189.95 142.171 190.66C140.805 190.773 139.482 191.066 138.203 191.541C138.215 190.267 138.729 189.827 139.746 190.219C140.293 189.275 141.028 189.129 141.95 189.778C143.579 189.686 144.975 189.099 146.138 188.015C145.695 187.62 145.695 187.326 146.138 187.133C146.443 187.364 146.664 187.659 146.799 188.015C147.028 187.567 147.396 187.273 147.901 187.133C148.698 187.341 149.506 187.488 150.326 187.574C152.72 187.014 155.144 186.647 157.6 186.472C157.097 186.145 157.097 185.777 157.6 185.37C158.726 184.733 159.901 184.219 161.126 183.827C160.415 182.904 160.048 181.949 160.024 180.961C159.437 181.255 158.996 181.696 158.702 182.284C158.555 182.137 158.408 181.99 158.261 181.843C158.105 182.36 158.179 182.874 158.481 183.386C157.979 184.39 157.391 184.537 156.718 183.827C156.92 182.97 156.48 182.383 155.396 182.063C156.479 181.069 157.654 180.628 158.922 180.741C157.924 180.637 156.969 180.417 156.057 180.08C155.246 180.667 155.025 180.594 155.396 179.859C154.838 179.723 154.323 179.503 153.853 179.198C152.577 180.003 151.475 180.591 150.546 180.961C148.896 180.849 147.279 180.849 145.697 180.961C150.267 179.302 154.969 177.906 159.804 176.773C167.761 175.041 175.696 173.499 183.609 172.145C196.804 170.93 210.029 170.196 223.284 169.941C242.119 170.509 260.928 171.538 279.711 173.026C287.105 174.031 294.599 174.619 302.193 174.79C308.209 175.482 314.234 176.069 320.267 176.553C320.12 176.553 319.973 176.553 319.826 176.553C317.769 177.114 315.711 177.114 313.655 176.553C313.177 177.067 312.81 177.654 312.553 178.316C312.368 177.8 312.074 177.359 311.671 176.994C311.399 177.412 311.472 177.779 311.891 178.096C311.076 178.992 310.782 178.992 311.01 178.096C308.86 176.538 306.509 176.17 303.956 176.994C303.886 177.743 303.959 178.478 304.177 179.198C304.626 178.666 304.846 178.813 304.838 179.639C304.698 180.145 304.404 180.512 303.956 180.741C304.103 180.888 304.25 181.035 304.397 181.182C302.127 180.939 301.466 181.747 302.414 183.606C305.226 184.887 305.446 184.593 303.075 182.725C303.956 182.137 304.838 182.137 305.72 182.725C304.684 183.286 304.757 183.874 305.94 184.488C306.334 183.954 306.701 183.954 307.042 184.488C305.286 185.286 305.434 185.727 307.483 185.811C308.593 185.76 309.474 185.319 310.128 184.488C310.664 185.742 311.399 186.844 312.332 187.794C312.185 187.941 312.038 188.088 311.891 188.235C312.672 189.167 313.333 189.093 313.875 188.015C314.316 188.602 314.757 188.602 315.198 188.015C315.515 188.725 315.442 189.387 314.977 189.998C315.658 190.522 316.393 190.669 317.181 190.439C315.642 189.704 315.715 188.896 317.402 188.015C318.088 188.326 318.602 188.032 318.945 187.133C317.891 186.556 317.891 186.115 318.945 185.811C319.461 185.995 319.902 186.289 320.267 186.692C320.708 186.472 321.149 186.251 321.59 186.031C320.5 185.003 320.647 184.049 322.031 183.166C322.325 181.99 322.618 180.815 322.912 179.639C323.632 180.187 324.073 179.967 324.235 178.978C323.827 178.471 323.827 178.03 324.235 177.655C323.235 177.321 322.279 177.395 321.369 177.876C321.053 177.636 320.833 177.342 320.708 176.994C326.35 177.231 331.934 176.937 337.46 176.112C342.132 176.447 346.834 176.08 351.566 175.01C359.493 172.98 367.281 170.556 374.931 167.736C375.225 167.736 375.371 167.883 375.371 168.177C375.498 168.892 375.939 169.333 376.694 169.5C377.668 169.233 378.623 168.939 379.559 168.618C380.174 169.198 380.615 169.051 380.882 168.177C381.018 168.533 381.238 168.827 381.543 169.059C381.458 168.535 381.678 167.947 382.204 167.296C382.498 167.883 382.792 167.883 383.086 167.296C383.233 167.59 383.38 167.883 383.527 168.177C383.637 167.682 383.857 167.241 384.188 166.855C384.984 167.454 385.646 167.307 386.172 166.414C386.601 167.248 386.895 168.13 387.054 169.059C387.494 168.765 387.935 168.471 388.376 168.177C388.577 168.726 388.357 169.093 387.715 169.279C387.904 169.685 388.052 170.052 388.156 170.381C389.04 169.496 390.068 168.909 391.241 168.618C391.815 167.661 392.256 166.632 392.564 165.532C393.633 165.668 394.661 165.521 395.65 165.091C395.147 164.684 395.147 164.316 395.65 163.989C396.335 163.264 397.07 163.117 397.854 163.548C397.406 163.086 397.332 162.572 397.634 162.006C397.78 162.152 397.928 162.3 398.074 162.446C400.279 161.937 402.262 161.056 404.026 159.801C403.943 159.095 404.163 158.507 404.687 158.038C404.834 158.185 404.981 158.332 405.128 158.479C405.58 157.071 406.535 156.484 407.993 156.716C407.993 156.275 407.993 155.834 407.993 155.393C408.457 155.459 408.898 155.386 409.316 155.173C410.203 153.87 411.378 153.061 412.842 152.748Z" fill="#0D5679"/>
<path fill-rule="evenodd" clip-rule="evenodd" d="M206.956 170.823C213.079 170.843 219.177 170.843 225.252 170.823C226.176 171.358 226.102 171.726 225.031 171.925C225.252 171.998 225.472 172.072 225.692 172.145C226.799 171.635 227.975 171.341 229.219 171.264C230.983 171.458 232.673 171.532 234.289 171.484C233.174 172.064 233.174 172.579 234.289 173.027C233.995 173.174 233.701 173.321 233.407 173.468C232.812 173.086 232.444 172.645 232.305 172.145C230.286 172.859 229.771 174.035 230.762 175.672C230.542 175.819 230.321 175.966 230.101 176.113C228.925 175.966 227.676 175.966 226.354 176.113C226.509 174.979 226.288 173.95 225.692 173.027C225.543 174.76 225.029 176.377 224.149 177.876C223.361 175.664 222.846 175.664 222.606 177.876C222.28 177.373 221.912 177.373 221.504 177.876C221.21 177.289 220.917 176.701 220.623 176.113C220.028 177.044 220.175 177.852 221.063 178.538C220.843 178.758 220.623 178.978 220.402 179.199C219.569 177.713 219.054 176.096 218.859 174.35C218.531 175.007 218.238 175.668 217.978 176.333C218.541 177.42 218.541 178.523 217.978 179.64C217.673 179.408 217.452 179.114 217.316 178.758C217.013 179.136 216.645 179.429 216.214 179.64C215.721 177.871 215.721 176.108 216.214 174.35C215.806 173.847 215.439 173.847 215.112 174.35C214.516 173.827 214.001 173.239 213.569 172.586C213.035 172.927 213.035 173.295 213.569 173.688C213.107 173.905 212.666 173.832 212.247 173.468C211.785 173.857 211.27 174.151 210.704 174.35C209.086 173.908 207.764 173.027 206.736 171.704C205.651 172.59 204.549 172.664 203.43 171.925C203.576 171.778 203.724 171.631 203.871 171.484C204.989 171.402 206.017 171.182 206.956 170.823Z" fill="#0D5679"/>
<path fill-rule="evenodd" clip-rule="evenodd" d="M372.711 169.501C373.272 169.756 373.272 170.049 372.711 170.383C371.811 170.708 370.93 171.075 370.066 171.485C370.654 171.632 371.242 171.779 371.829 171.926C371.091 172.445 370.503 173.106 370.066 173.91C369.402 174.46 368.741 174.46 368.082 173.91C367.81 174.328 367.883 174.696 368.303 175.012C367.814 175.293 367.3 175.514 366.76 175.673C365.825 175.251 364.87 175.177 363.894 175.453C364.335 175.6 364.776 175.747 365.217 175.894C364.365 176.004 363.557 176.225 362.792 176.555C362.972 177.315 362.899 178.05 362.572 178.759C362.163 177.95 361.649 177.803 361.029 178.318C360.433 177.649 359.772 177.061 359.045 176.555C358.614 176.765 358.247 177.059 357.943 177.437C357.174 176.499 356.22 176.131 355.077 176.335C355.586 176.737 355.512 177.105 354.857 177.437C354.059 177.355 353.177 177.062 352.212 176.555C351.585 176.866 350.997 177.013 350.448 176.996C350.179 176.23 350.472 175.789 351.33 175.673C352.354 175.81 353.383 175.957 354.416 176.114C354.629 175.696 354.702 175.255 354.636 174.792C356.213 174.922 357.609 174.481 358.825 173.469C359.367 173.737 359.955 173.884 360.588 173.91C364.716 172.657 368.757 171.187 372.711 169.501Z" fill="#0D5679"/>
<path fill-rule="evenodd" clip-rule="evenodd" d="M319.832 176.554C319.983 176.924 320.276 177.071 320.714 176.995C320.838 177.343 321.059 177.637 321.375 177.877C322.285 177.396 323.24 177.322 324.24 177.656C323.833 178.031 323.833 178.472 324.24 178.979C324.078 179.968 323.638 180.189 322.918 179.64C322.624 180.816 322.33 181.991 322.036 183.167C320.653 184.05 320.506 185.005 321.595 186.032C321.154 186.253 320.714 186.473 320.273 186.694C319.908 186.29 319.467 185.997 318.95 185.812C317.896 186.117 317.896 186.557 318.95 187.134C318.608 188.033 318.094 188.327 317.407 188.016C315.721 188.898 315.647 189.706 317.187 190.441C316.398 190.67 315.663 190.523 314.983 190C315.447 189.388 315.52 188.727 315.203 188.016C314.762 188.604 314.321 188.604 313.88 188.016C313.339 189.095 312.677 189.168 311.897 188.237C312.043 188.09 312.191 187.943 312.337 187.796C311.404 186.845 310.669 185.743 310.133 184.489C309.479 185.32 308.598 185.761 307.488 185.812C305.439 185.728 305.291 185.287 307.047 184.489C306.706 183.956 306.339 183.956 305.945 184.489C304.762 183.875 304.689 183.288 305.725 182.726C304.843 182.138 303.961 182.138 303.08 182.726C305.451 184.594 305.231 184.888 302.418 183.608C301.471 181.749 302.132 180.941 304.402 181.183C304.255 181.036 304.108 180.889 303.961 180.742C304.409 180.513 304.703 180.146 304.843 179.64C304.851 178.814 304.631 178.668 304.182 179.199C303.964 178.479 303.891 177.744 303.961 176.995C306.514 176.172 308.865 176.539 311.015 178.097C310.787 178.993 311.081 178.993 311.897 178.097C311.477 177.781 311.404 177.413 311.676 176.995C312.08 177.36 312.373 177.801 312.558 178.318C312.815 177.655 313.182 177.068 313.66 176.554C315.717 177.115 317.774 177.115 319.832 176.554Z" fill="#0D5679"/>
<path fill-rule="evenodd" clip-rule="evenodd" d="M138.187 191.542C137.474 191.779 136.739 191.926 135.983 191.983C134.668 192.187 133.346 192.334 132.015 192.424C132.015 191.836 132.015 191.248 132.015 190.66C131.497 190.564 131.056 190.71 130.693 191.101C130.987 191.248 131.28 191.395 131.574 191.542C130.973 192.177 130.311 192.765 129.591 193.305C128.238 192.565 128.165 191.683 129.37 190.66C129.223 190.513 129.076 190.366 128.929 190.219C128.635 190.513 128.342 190.807 128.048 191.101C127.505 190.594 127.505 190.08 128.048 189.558C129.86 188.171 131.623 187.069 133.338 186.252C134.107 187.29 135.136 187.73 136.424 187.574C136.329 186.85 136.477 186.188 136.865 185.59C138.761 185.247 140.671 184.586 142.596 183.607C143.618 184.292 144.279 183.998 144.579 182.725C144.726 182.872 144.873 183.019 145.02 183.166C145.238 182.446 145.311 181.711 145.241 180.962C145.387 180.962 145.535 180.962 145.681 180.962C147.263 180.849 148.88 180.849 150.531 180.962C151.46 180.591 152.562 180.004 153.837 179.198C154.307 179.503 154.822 179.723 155.38 179.86C155.01 180.594 155.23 180.668 156.041 180.08C156.953 180.417 157.909 180.637 158.907 180.741C157.639 180.628 156.463 181.069 155.38 182.064C156.464 182.383 156.905 182.971 156.703 183.827C157.376 184.537 157.963 184.39 158.466 183.386C158.163 182.874 158.09 182.36 158.246 181.843C158.392 181.99 158.54 182.137 158.686 182.284C158.98 181.697 159.421 181.256 160.009 180.962C160.032 181.949 160.399 182.904 161.111 183.827C159.886 184.219 158.711 184.733 157.584 185.37C157.081 185.778 157.081 186.146 157.584 186.472C155.129 186.647 152.704 187.014 150.31 187.574C149.49 187.489 148.682 187.342 147.886 187.133C147.38 187.274 147.012 187.567 146.784 188.015C146.648 187.659 146.427 187.365 146.122 187.133C145.679 187.327 145.679 187.62 146.122 188.015C144.959 189.099 143.563 189.687 141.934 189.779C141.012 189.129 140.277 189.276 139.73 190.219C138.713 189.827 138.199 190.268 138.187 191.542Z" fill="#0D5679"/>
<path fill-rule="evenodd" clip-rule="evenodd" d="M269.137 190.661C260.772 189.67 252.396 188.788 244.01 188.016C217.557 184.236 190.961 183.501 164.219 185.812C165.309 185.544 166.558 184.956 167.966 184.048C169.322 184.213 170.791 184.359 172.374 184.489C175.786 184.127 179.166 183.686 182.513 183.167C190.553 183.705 198.414 183.705 206.098 183.167C206.454 183.302 206.748 183.523 206.98 183.828C217.46 184.659 227.82 185.467 238.058 186.252C238.866 186.106 239.675 185.958 240.483 185.812C240.926 184.057 241.367 184.057 241.805 185.812C242.609 185.402 243.196 185.696 243.569 186.693C250.081 187.737 256.62 188.619 263.186 189.338C264.318 189.147 265.42 188.853 266.492 188.457C267.636 189.052 268.812 189.566 270.019 189.999C269.615 190.122 269.321 190.342 269.137 190.661Z" fill="#0D5679"/>
<path fill-rule="evenodd" clip-rule="evenodd" d="M207.42 196.39C208.981 196.252 210.45 196.4 211.828 196.831C209.891 196.812 209.745 197.033 211.387 197.493C214.326 197.639 217.265 197.787 220.204 197.933C223.627 198.708 227.007 199.296 230.343 199.697C230.839 200.157 231.426 200.451 232.107 200.578C230.816 200.921 229.566 200.847 228.36 200.358C228.084 201.456 227.716 201.456 227.258 200.358C226.188 201.437 225.086 201.437 223.951 200.358C223.657 200.799 223.657 201.24 223.951 201.681C224.098 201.534 224.245 201.387 224.392 201.24C225.197 201.506 226.005 201.8 226.817 202.121C227.32 202.529 227.32 202.897 226.817 203.224C228.13 203.52 229.012 203.006 229.462 201.681C229.767 201.912 229.987 202.206 230.123 202.562C230.27 202.415 230.417 202.268 230.564 202.121C231.141 202.841 231.362 203.576 231.225 204.326C232.603 203.281 232.824 203.575 231.886 205.207C229.31 205.204 226.739 204.689 224.172 203.664C224.706 203.271 224.706 202.903 224.172 202.562C223.867 202.794 223.646 203.088 223.51 203.444C222.321 203.372 221.072 203.298 219.763 203.224C220.988 203.158 221.209 202.79 220.424 202.121C219.809 202.701 219.369 202.554 219.102 201.681C218.062 201.807 217.033 201.954 216.016 202.121C212.431 201.645 208.83 201.351 205.215 201.24C201.99 200.748 198.757 200.16 195.517 199.476C194.925 200.094 194.557 199.948 194.415 199.035C194.012 199.544 193.644 199.471 193.312 198.815C194.136 197.586 195.311 196.998 196.839 197.052C200.444 196.976 203.971 196.756 207.42 196.39Z" fill="#0D5679"/>
<path fill-rule="evenodd" clip-rule="evenodd" d="M187.137 196.832C188.689 197.125 190.306 197.419 191.986 197.713C192.343 198.406 192.49 199.141 192.427 199.917C186.695 199.991 180.964 199.917 175.234 199.697C175.528 199.403 175.822 199.109 176.116 198.815C178.759 198.156 181.404 197.642 184.051 197.272C185.068 197.055 186.096 196.908 187.137 196.832Z" fill="#0D5679"/>
<path fill-rule="evenodd" clip-rule="evenodd" d="M207.405 196.391C203.956 196.757 200.429 196.977 196.824 197.053C195.297 196.999 194.121 197.587 193.298 198.816C193.63 199.472 193.997 199.545 194.4 199.036C194.543 199.949 194.91 200.095 195.502 199.477C198.742 200.161 201.975 200.749 205.201 201.241C204.172 201.241 203.143 201.241 202.115 201.241C187.092 199.986 172.103 200.206 157.148 201.902C165.992 199.648 174.956 198.105 184.04 197.273C181.393 197.643 178.748 198.157 176.105 198.816C175.811 199.11 175.517 199.404 175.223 199.698C180.952 199.918 186.683 199.992 192.416 199.918C192.479 199.141 192.332 198.406 191.975 197.714C190.294 197.42 188.678 197.126 187.126 196.832C193.851 196.399 200.611 196.252 207.405 196.391Z" fill="#0D5679"/>
<path fill-rule="evenodd" clip-rule="evenodd" d="M145.266 180.962C145.337 181.711 145.264 182.446 145.046 183.167C144.899 183.02 144.752 182.873 144.605 182.726C144.305 183.999 143.644 184.293 142.621 183.607C140.697 184.587 138.787 185.248 136.89 185.591C136.502 186.189 136.355 186.85 136.45 187.575C135.162 187.731 134.133 187.29 133.364 186.253C131.649 187.07 129.886 188.172 128.074 189.559C127.531 190.08 127.531 190.594 128.074 191.102C128.368 190.808 128.661 190.514 128.955 190.22C129.102 190.367 129.249 190.514 129.396 190.661C128.191 191.684 128.264 192.566 129.616 193.306C130.337 192.766 130.999 192.178 131.6 191.543C131.306 191.396 131.013 191.249 130.719 191.102C131.082 190.711 131.523 190.564 132.041 190.661C132.041 191.249 132.041 191.837 132.041 192.424C133.372 192.334 134.694 192.188 136.009 191.984C129.214 194.298 122.455 196.797 115.73 199.478C114.606 199.428 113.578 199.722 112.644 200.36C112.497 200.286 112.35 200.213 112.203 200.139C112.541 199.491 112.835 198.83 113.085 198.155C120.455 191.967 128.685 187.118 137.772 183.607C140.204 182.552 142.702 181.67 145.266 180.962Z" fill="#0D5679"/>
<path fill-rule="evenodd" clip-rule="evenodd" d="M113.082 198.155C112.832 198.83 112.539 199.491 112.2 200.139C112.347 200.213 112.495 200.286 112.641 200.36C113.575 199.722 114.604 199.428 115.728 199.478C111.63 201.746 107.516 203.877 103.383 205.871C106.569 203.194 109.802 200.622 113.082 198.155Z" fill="#0D5679"/>
<path fill-rule="evenodd" clip-rule="evenodd" d="M211.808 196.831C221.545 197.226 231.097 198.548 240.462 200.799C238.875 201.319 238.288 202.347 238.699 203.885C237.361 204.104 236.259 204.692 235.392 205.648C234.68 204.588 234.387 204.588 234.511 205.648C235.136 206.071 235.797 206.438 236.494 206.75C242.276 208.155 247.934 209.405 253.466 210.497C255.257 210.467 257.02 210.467 258.756 210.497C261.12 211.006 263.544 211.741 266.03 212.701C266.958 212.475 267.767 212.328 268.455 212.26C278.888 214.234 289.395 214.748 299.974 213.803C299.363 213.411 299.436 213.191 300.195 213.142C300.782 213.436 301.371 213.73 301.958 214.024C302.763 213.2 303.718 213.2 304.824 214.024C307.996 214.016 311.155 214.016 314.301 214.024C316.227 213.744 318.064 213.156 319.812 212.26C321.635 212.529 323.398 212.823 325.102 213.142C305.431 215.319 285.74 215.466 266.03 213.583C250.191 210.91 234.468 207.603 218.861 203.664C213.224 202.777 207.64 201.969 202.109 201.24C203.138 201.24 204.167 201.24 205.195 201.24C208.81 201.351 212.41 201.645 215.996 202.121C217.013 201.954 218.042 201.806 219.081 201.68C219.348 202.554 219.789 202.701 220.404 202.121C221.188 202.79 220.968 203.158 219.743 203.223C221.051 203.298 222.3 203.371 223.49 203.444C223.626 203.088 223.846 202.793 224.151 202.562C224.685 202.903 224.685 203.27 224.151 203.664C226.718 204.689 229.289 205.204 231.866 205.207C232.803 203.575 232.582 203.281 231.204 204.325C231.341 203.576 231.121 202.841 230.543 202.121C230.396 202.268 230.249 202.415 230.102 202.562C229.967 202.206 229.746 201.912 229.441 201.68C228.991 203.006 228.11 203.52 226.796 203.223C227.299 202.897 227.299 202.529 226.796 202.121C225.984 201.799 225.176 201.505 224.371 201.24C224.225 201.386 224.077 201.534 223.931 201.68C223.637 201.24 223.637 200.799 223.931 200.358C225.065 201.437 226.167 201.437 227.237 200.358C227.696 201.456 228.063 201.456 228.339 200.358C229.546 200.847 230.795 200.921 232.086 200.578C231.405 200.45 230.818 200.157 230.323 199.697C226.986 199.295 223.606 198.708 220.184 197.933C217.245 197.786 214.306 197.639 211.367 197.492C209.724 197.033 209.871 196.812 211.808 196.831Z" fill="#0D5679"/>
<path fill-rule="evenodd" clip-rule="evenodd" d="M240.463 200.801C242.066 201.072 243.682 201.219 245.312 201.242C261.548 205.182 278.006 207.533 294.686 208.295C295.957 208.911 297.867 209.352 300.417 209.618C303.971 209.212 307.571 209.212 311.217 209.618C314.742 209.013 318.269 208.572 321.797 208.295C322.275 208.645 322.79 208.939 323.34 209.177C326.72 208.589 330.099 208.001 333.479 207.414C335.297 208.006 336.987 207.712 338.549 206.532C339.902 206.663 341.225 206.663 342.516 206.532C342.925 205.723 343.439 205.576 344.059 206.091C346.711 204.928 346.857 205.222 344.5 206.973C343.744 206.484 343.45 206.778 343.618 207.855C342.893 207.949 342.232 207.802 341.634 207.414C339.928 208.348 338.018 209.083 335.904 209.618C335.467 208.984 334.879 208.543 334.14 208.295C333.188 208.656 332.38 209.464 331.716 210.72C329.857 211.403 327.947 211.917 325.985 212.263C326.04 212.531 326.186 212.677 326.426 212.704C326.113 213.102 325.672 213.249 325.103 213.145C323.399 212.825 321.636 212.531 319.813 212.263C318.065 213.159 316.228 213.746 314.303 214.026C311.157 214.019 307.998 214.019 304.825 214.026C303.72 213.202 302.764 213.202 301.959 214.026C301.372 213.732 300.784 213.439 300.196 213.145C299.437 213.194 299.364 213.414 299.976 213.806C289.396 214.751 278.89 214.237 268.456 212.263C267.768 212.33 266.959 212.477 266.032 212.704C263.546 211.744 261.121 211.009 258.758 210.5C257.022 210.47 255.258 210.47 253.468 210.5C247.935 209.407 242.278 208.158 236.496 206.753C235.799 206.441 235.137 206.074 234.512 205.65C234.388 204.59 234.682 204.59 235.394 205.65C236.26 204.695 237.362 204.107 238.7 203.887C238.289 202.35 238.877 201.321 240.463 200.801Z" fill="#0D5679"/>
<path fill-rule="evenodd" clip-rule="evenodd" d="M336.143 210.94C332.974 211.809 329.741 212.397 326.444 212.703C326.205 212.677 326.058 212.53 326.003 212.263C327.965 211.916 329.875 211.402 331.734 210.72C332.398 209.463 333.206 208.655 334.159 208.295C334.898 208.542 335.485 208.983 335.922 209.617C338.036 209.082 339.947 208.347 341.653 207.413C342.251 207.801 342.912 207.948 343.637 207.854C343.469 206.778 343.763 206.483 344.519 206.972C346.876 205.221 346.729 204.928 344.078 206.091C343.458 205.576 342.944 205.723 342.535 206.532C341.244 206.663 339.921 206.663 338.567 206.532C337.006 207.711 335.316 208.005 333.497 207.413C330.118 208.001 326.738 208.589 323.358 209.177C322.808 208.939 322.293 208.645 321.815 208.295C318.287 208.572 314.76 209.013 311.235 209.617C307.589 209.211 303.989 209.211 300.434 209.617C297.885 209.352 295.974 208.911 294.703 208.295C303.081 208.369 311.457 208.295 319.831 208.075C328.094 207.576 336.176 206.327 344.078 204.327C349.411 203.334 354.554 201.717 359.507 199.478C360.035 199.631 360.035 199.851 359.507 200.139C352.244 204.948 344.455 208.548 336.143 210.94Z" fill="#0D5679"/>
<path d="M60.5359 278.997V244.436H70.3118V278.997H60.5359ZM37.4292 278.997V244.436H47.2051V278.997H37.4292ZM46.5139 265.518V257.421H61.2271V265.518H46.5139ZM77.7379 278.997V244.436H110.176V278.997H100.499V250.015L102.671 252.187H85.2426L87.3657 250.015V278.997H77.7379ZM134.549 279.688C131.784 279.688 129.233 279.244 126.896 278.355C124.559 277.466 122.518 276.216 120.774 274.603C119.062 272.957 117.729 271.048 116.774 268.876C115.82 266.703 115.343 264.317 115.343 261.716C115.343 259.116 115.82 256.73 116.774 254.557C117.729 252.385 119.062 250.492 120.774 248.879C122.518 247.234 124.559 245.966 126.896 245.078C129.233 244.189 131.784 243.745 134.549 243.745C137.347 243.745 139.898 244.189 142.202 245.078C144.539 245.966 146.563 247.234 148.275 248.879C149.986 250.492 151.319 252.385 152.274 254.557C153.261 256.73 153.755 259.116 153.755 261.716C153.755 264.317 153.261 266.72 152.274 268.925C151.319 271.097 149.986 272.99 148.275 274.603C146.563 276.216 144.539 277.466 142.202 278.355C139.898 279.244 137.347 279.688 134.549 279.688ZM134.549 271.591C135.865 271.591 137.083 271.361 138.202 270.9C139.355 270.439 140.342 269.781 141.165 268.925C142.021 268.036 142.679 266.983 143.14 265.765C143.634 264.547 143.88 263.198 143.88 261.716C143.88 260.202 143.634 258.853 143.14 257.668C142.679 256.45 142.021 255.413 141.165 254.557C140.342 253.669 139.355 252.994 138.202 252.533C137.083 252.072 135.865 251.842 134.549 251.842C133.232 251.842 131.998 252.072 130.846 252.533C129.727 252.994 128.739 253.669 127.883 254.557C127.061 255.413 126.402 256.45 125.908 257.668C125.448 258.853 125.217 260.202 125.217 261.716C125.217 263.198 125.448 264.547 125.908 265.765C126.402 266.983 127.061 268.036 127.883 268.925C128.739 269.781 129.727 270.439 130.846 270.9C131.998 271.361 133.232 271.591 134.549 271.591ZM196.457 278.997V244.436H206.233V278.997H196.457ZM173.35 278.997V244.436H183.126V278.997H173.35ZM182.435 265.518V257.421H197.148V265.518H182.435ZM210.203 278.997L225.459 244.436H235.087L250.393 278.997H240.222L228.274 249.225H232.125L220.176 278.997H210.203ZM218.547 272.282L221.065 265.074H237.951L240.469 272.282H218.547ZM254.354 278.997V244.436H270.153C273.313 244.436 276.028 244.946 278.3 245.966C280.604 246.987 282.381 248.468 283.632 250.41C284.883 252.319 285.508 254.59 285.508 257.223C285.508 259.824 284.883 262.078 283.632 263.988C282.381 265.897 280.604 267.378 278.3 268.431C276.028 269.452 273.313 269.962 270.153 269.962H259.785L264.13 265.716V278.997H254.354ZM264.13 266.752L259.785 262.26H269.561C271.601 262.26 273.115 261.815 274.103 260.926C275.123 260.038 275.634 258.803 275.634 257.223C275.634 255.611 275.123 254.36 274.103 253.471C273.115 252.582 271.601 252.138 269.561 252.138H259.785L264.13 247.645V266.752ZM307.404 279.688C304.639 279.688 302.088 279.244 299.751 278.355C297.414 277.466 295.373 276.216 293.629 274.603C291.917 272.957 290.584 271.048 289.629 268.876C288.675 266.703 288.197 264.317 288.197 261.716C288.197 259.116 288.675 256.73 289.629 254.557C290.584 252.385 291.917 250.492 293.629 248.879C295.373 247.234 297.414 245.966 299.751 245.078C302.088 244.189 304.639 243.745 307.404 243.745C310.202 243.745 312.752 244.189 315.057 245.078C317.394 245.966 319.418 247.234 321.129 248.879C322.841 250.492 324.174 252.385 325.129 254.557C326.116 256.73 326.61 259.116 326.61 261.716C326.61 264.317 326.116 266.72 325.129 268.925C324.174 271.097 322.841 272.99 321.129 274.603C319.418 276.216 317.394 277.466 315.057 278.355C312.752 279.244 310.202 279.688 307.404 279.688ZM307.404 271.591C308.72 271.591 309.938 271.361 311.057 270.9C312.209 270.439 313.197 269.781 314.02 268.925C314.876 268.036 315.534 266.983 315.995 265.765C316.488 264.547 316.735 263.198 316.735 261.716C316.735 260.202 316.488 258.853 315.995 257.668C315.534 256.45 314.876 255.413 314.02 254.557C313.197 253.669 312.209 252.994 311.057 252.533C309.938 252.072 308.72 251.842 307.404 251.842C306.087 251.842 304.853 252.072 303.701 252.533C302.582 252.994 301.594 253.669 300.738 254.557C299.915 255.413 299.257 256.45 298.763 257.668C298.303 258.853 298.072 260.202 298.072 261.716C298.072 263.198 298.303 264.547 298.763 265.765C299.257 266.983 299.915 268.036 300.738 268.925C301.594 269.781 302.582 270.439 303.701 270.9C304.853 271.361 306.087 271.591 307.404 271.591ZM339.414 272.48L328.996 271.245C330.148 271.278 331.087 270.9 331.811 270.11C332.568 269.287 333.16 268.151 333.588 266.703C334.049 265.255 334.378 263.543 334.576 261.568C334.806 259.593 334.971 257.437 335.069 255.1L335.464 244.436H363.311V274.751H353.683V252.187H343.759L343.611 255.94C343.545 257.948 343.413 259.824 343.216 261.568C343.051 263.313 342.805 264.909 342.475 266.357C342.179 267.806 341.768 269.057 341.241 270.11C340.747 271.13 340.138 271.92 339.414 272.48ZM327.96 285.959V271.245H368.001V285.959H359.065V278.997H336.946V285.959H327.96ZM395.783 278.997V244.436H405.559V278.997H395.783ZM372.676 278.997V244.436H382.452V278.997H372.676ZM381.761 265.518V257.421H396.474V265.518H381.761ZM412.985 278.997V244.436H422.612V255.446H430.611C434.824 255.446 438.083 256.384 440.387 258.26C442.724 260.136 443.892 262.951 443.892 266.703C443.892 270.752 442.592 273.813 439.992 275.887C437.392 277.96 433.837 278.997 429.327 278.997H412.985ZM422.612 271.986H428.685C430.331 271.986 431.631 271.542 432.586 270.653C433.573 269.764 434.067 268.513 434.067 266.901C434.067 265.255 433.573 264.103 432.586 263.444C431.631 262.753 430.331 262.408 428.685 262.408H422.612V271.986ZM447.694 278.997V244.436H457.322V278.997H447.694ZM464.769 278.997V244.436H491.875V251.99H474.446V271.443H492.517V278.997H464.769ZM473.755 265.123V257.816H489.801V265.123H473.755Z" fill="#0E547A"/>
<path d="M169.961 339.59C169.302 339.59 168.595 339.54 167.838 339.441C167.113 339.343 166.34 339.195 165.517 338.997L166.06 330.999C166.521 331.097 166.965 331.147 167.393 331.147C168.743 331.147 169.763 330.62 170.454 329.567C171.146 328.481 171.623 326.966 171.886 325.024C172.182 323.082 172.364 320.811 172.429 318.211L172.923 304.436H200.77V338.997H191.142V310.015L193.265 312.187H179.292L181.267 309.916L181.02 317.816C180.922 321.173 180.691 324.202 180.329 326.901C179.967 329.567 179.391 331.854 178.601 333.763C177.811 335.64 176.708 337.088 175.293 338.108C173.911 339.096 172.133 339.59 169.961 339.59ZM225.147 339.688C222.382 339.688 219.831 339.244 217.494 338.355C215.157 337.466 213.116 336.216 211.372 334.603C209.66 332.957 208.327 331.048 207.373 328.876C206.418 326.703 205.941 324.317 205.941 321.716C205.941 319.116 206.418 316.73 207.373 314.557C208.327 312.385 209.66 310.492 211.372 308.879C213.116 307.234 215.157 305.966 217.494 305.078C219.831 304.189 222.382 303.745 225.147 303.745C227.945 303.745 230.496 304.189 232.8 305.078C235.137 305.966 237.161 307.234 238.873 308.879C240.584 310.492 241.917 312.385 242.872 314.557C243.859 316.73 244.353 319.116 244.353 321.716C244.353 324.317 243.859 326.72 242.872 328.925C241.917 331.097 240.584 332.99 238.873 334.603C237.161 336.216 235.137 337.466 232.8 338.355C230.496 339.244 227.945 339.688 225.147 339.688ZM225.147 331.591C226.464 331.591 227.681 331.361 228.801 330.9C229.953 330.439 230.94 329.781 231.763 328.925C232.619 328.036 233.277 326.983 233.738 325.765C234.232 324.547 234.479 323.198 234.479 321.716C234.479 320.202 234.232 318.853 233.738 317.668C233.277 316.45 232.619 315.413 231.763 314.557C230.94 313.669 229.953 312.994 228.801 312.533C227.681 312.072 226.464 311.842 225.147 311.842C223.83 311.842 222.596 312.072 221.444 312.533C220.325 312.994 219.337 313.669 218.482 314.557C217.659 315.413 217 316.45 216.507 317.668C216.046 318.853 215.815 320.202 215.815 321.716C215.815 323.198 216.046 324.547 216.507 325.765C217 326.983 217.659 328.036 218.482 328.925C219.337 329.781 220.325 330.439 221.444 330.9C222.596 331.361 223.83 331.591 225.147 331.591ZM257.157 332.48L246.74 331.245C247.892 331.278 248.83 330.9 249.554 330.11C250.311 329.287 250.904 328.151 251.331 326.703C251.792 325.255 252.121 323.543 252.319 321.568C252.549 319.593 252.714 317.437 252.813 315.1L253.208 304.436H281.054V334.751H271.426V312.187H261.502L261.354 315.94C261.288 317.948 261.157 319.824 260.959 321.568C260.795 323.313 260.548 324.909 260.219 326.357C259.922 327.806 259.511 329.057 258.984 330.11C258.491 331.13 257.882 331.92 257.157 332.48ZM245.703 345.959V331.245H285.745V345.959H276.808V338.997H254.689V345.959H245.703ZM312.242 338.997L302.516 322.556L310.366 317.915L323.253 338.997H312.242ZM290.222 338.997V304.436H299.948V338.997H290.222ZM297.134 325.765V317.865H309.675V325.765H297.134ZM311.304 322.753L302.269 321.766L312.884 304.436H323.154L311.304 322.753ZM326.485 338.997V304.436H336.113V324.728L350.382 304.436H359.565V338.997H349.937V318.754L335.718 338.997H326.485Z" fill="#FF0000"/>
</svg>
