<svg width="1223" height="212" viewBox="0 0 1223 212" fill="none" xmlns="http://www.w3.org/2000/svg">
<path fill-rule="evenodd" clip-rule="evenodd" d="M193.531 46.1102C195.573 46.018 197.382 46.6076 198.956 47.8791C200.278 49.0033 201.379 50.3005 202.258 51.7708C201.328 51.7482 200.463 51.4338 199.664 50.8274C200.222 50.9102 200.773 50.9496 201.315 50.9453C200.526 50.0788 199.662 49.2924 198.72 48.5867C199.035 48.4294 199.035 48.2723 198.72 48.115C197.735 47.3199 196.634 46.9661 195.418 47.0536C194.709 46.8562 194.08 46.5418 193.531 46.1102Z" fill="white"/>
<path fill-rule="evenodd" clip-rule="evenodd" d="M193.287 46.1099C193.366 46.1099 193.444 46.1099 193.523 46.1099C194.072 46.5415 194.701 46.8559 195.41 47.0533C196.626 46.9658 197.726 47.3196 198.712 48.1147C199.026 48.272 199.026 48.4291 198.712 48.5864C199.653 49.2921 200.518 50.0785 201.306 50.945C200.765 50.9493 200.214 50.9099 199.655 50.8271C197.902 50.0686 196.173 49.2431 194.466 48.3506C192.442 47.4267 190.634 47.7411 189.042 49.294C187.813 49.5051 186.948 49.0334 186.447 47.8788C186.969 47.388 187.598 47.0734 188.334 46.9354C188.457 46.8031 188.536 46.6458 188.57 46.4637C188.058 45.3976 187.35 44.4935 186.447 43.7513C186.752 43.5218 186.752 43.2859 186.447 43.0437C185.031 42.2571 183.695 41.353 182.438 40.3313C186.066 40.3763 188.818 41.9488 190.693 45.0485C191.243 45.1271 191.793 45.2058 192.344 45.2844C192.617 45.645 192.931 45.9203 193.287 46.1099Z" fill="white"/>
<path fill-rule="evenodd" clip-rule="evenodd" d="M193.294 46.1095C192.938 45.9198 192.624 45.6446 192.351 45.284C191.8 45.2054 191.25 45.1266 190.7 45.0481C188.825 41.9484 186.073 40.3759 182.445 40.3309C183.702 41.3526 185.038 42.2567 186.454 43.0433C186.759 43.2855 186.759 43.5214 186.454 43.7509C184.46 42.1626 182.337 40.7474 180.086 39.5054C182.891 39.5252 185.564 40.1934 188.105 41.5102C189.135 42.4614 190.079 43.4834 190.936 44.5764C191.643 44.6549 192.351 44.7337 193.058 44.8122C193.294 45.0481 193.53 45.284 193.766 45.5198C193.47 45.6182 193.312 45.8146 193.294 46.1095Z" fill="white"/>
<path fill-rule="evenodd" clip-rule="evenodd" d="M109.315 37.6187C107.829 38.789 106.414 40.0468 105.069 41.3923C104.211 42.4079 103.267 43.3513 102.239 44.2226C102.204 43.9745 102.243 43.7386 102.357 43.515C103.49 42.957 103.961 42.0923 103.772 40.9206C104.298 41.1091 104.612 40.8732 104.715 40.2131C105.371 40.4925 105.724 40.2567 105.777 39.5055C106.902 38.7732 108.081 38.1441 109.315 37.6187Z" fill="#FF0000"/>
<path fill-rule="evenodd" clip-rule="evenodd" d="M102.248 44.2227C101.654 45.2525 100.947 46.1961 100.125 47.0533C100.278 46.5968 100.357 46.1251 100.361 45.638C100.597 45.638 100.833 45.638 101.069 45.638C101.069 45.3235 101.069 45.0089 101.069 44.6944C101.498 44.6163 101.892 44.459 102.248 44.2227Z" fill="#FF0000"/>
<path fill-rule="evenodd" clip-rule="evenodd" d="M128.668 24.4114C130.949 24.3723 133.229 24.4114 135.508 24.5293C138.177 24.9298 140.85 25.2836 143.527 25.5907C143.606 25.5907 143.684 25.5907 143.763 25.5907C145.005 26.4836 146.42 27.0733 148.008 27.3596C148.216 27.6794 148.295 28.0332 148.244 28.4209C147.15 28.3285 146.599 28.8002 146.593 29.8361C145.456 30.2217 144.277 30.379 143.055 30.3078C142.977 30.3078 142.898 30.3078 142.82 30.3078C142.137 29.8915 141.351 29.6162 140.461 29.4823C138.034 29.1495 135.597 28.9528 133.15 28.8926C130.236 29.1219 127.327 29.4363 124.423 29.8361C123.945 29.7979 123.473 29.8372 123.008 29.954C121.694 30.4929 120.358 30.9646 118.998 31.3691C118.599 31.6774 118.285 32.0312 118.055 32.4305C116.524 32.7835 115.07 33.3338 113.692 34.0814C112.946 34.6508 112.278 35.2796 111.687 35.9683C111.529 36.0468 111.372 36.1256 111.215 36.2041C110.967 36.169 110.731 36.2081 110.508 36.3221C109.973 36.6584 109.58 37.0909 109.328 37.6193C108.095 38.1447 106.915 38.7738 105.79 39.5061C105.738 40.2573 105.384 40.4931 104.729 40.2137C104.626 40.8738 104.311 41.1097 103.786 40.9212C103.975 42.0929 103.503 42.9576 102.371 43.5156C102.257 43.7392 102.217 43.9751 102.253 44.2232C101.896 44.4595 101.503 44.6168 101.073 44.6949C101.073 45.0093 101.073 45.3239 101.073 45.6383C100.837 45.6383 100.602 45.6383 100.366 45.6383C100.362 46.1254 100.283 46.5971 100.13 47.0534C99.561 47.0992 99.3252 47.4136 99.4223 47.9969C98.8702 48.1129 98.3985 48.3881 98.0072 48.8224C98.2782 49.2007 98.2782 49.5936 98.0072 50.0016C97.2923 51.0427 96.6242 52.104 96.0025 53.1857C95.4996 54.7409 95.0671 56.3133 94.7053 57.9028C94.7053 57.9813 94.7053 58.0601 94.7053 58.1386C94.2986 58.9976 93.8661 59.8622 93.4081 60.733C93.2621 62.08 93.0656 63.4166 92.8184 64.7425C92.5875 65.0409 92.3517 65.3555 92.1109 65.686C92.0323 65.1749 91.9535 64.664 91.875 64.1529C92.2507 61.7712 92.408 59.3735 92.3467 56.9593C94.0024 51.0533 96.7147 45.7072 100.484 40.9212C100.807 40.0979 101.161 39.3115 101.545 38.5627C101.624 38.5627 101.702 38.5627 101.781 38.5627C103.627 36.7556 105.514 34.9867 107.441 33.2559C109.49 32.2647 111.298 30.9675 112.866 29.3643C113.771 29.2669 114.479 28.8738 114.989 28.1851C117.502 27.345 119.939 26.4015 122.3 25.3548C124.378 24.8718 126.5 24.5574 128.668 24.4114Z" fill="#FF0000"/>
<path fill-rule="evenodd" clip-rule="evenodd" d="M122.288 25.3547C119.927 26.4015 117.489 27.3449 114.977 28.1851C115.448 27.8707 115.92 27.556 116.392 27.2416C118.33 26.5171 120.295 25.888 122.288 25.3547Z" fill="#FF0000"/>
<path fill-rule="evenodd" clip-rule="evenodd" d="M114.982 28.1848C114.472 28.8736 113.765 29.2669 112.859 29.3643C113.451 28.7925 114.159 28.3995 114.982 28.1848Z" fill="#FF0000"/>
<path fill-rule="evenodd" clip-rule="evenodd" d="M155.786 31.4859C155.865 31.4859 155.944 31.4859 156.022 31.4859C156.071 32.3454 156.543 32.8565 157.437 33.019C158.313 34.484 159.571 35.4666 161.211 35.9673C161.902 36.9357 162.649 37.8792 163.452 38.7976C163.61 38.975 163.807 39.0538 164.042 39.0335C165.19 40.4991 166.133 42.0716 166.872 43.7507C166.821 44.1385 166.9 44.4923 167.108 44.8121C166.625 44.9276 166.154 44.8883 165.693 44.6941C165.693 44.6156 165.693 44.5368 165.693 44.4583C165.078 43.6042 164.449 42.7393 163.806 41.8638C162.352 40.9213 161.173 39.7026 160.268 38.208C158.464 37.036 156.656 35.8567 154.843 34.6701C154.07 34.2434 153.284 33.8896 152.484 33.6087C152.484 33.137 152.484 32.6652 152.484 32.1935C152.676 31.6909 152.794 31.1406 152.838 30.5425C152.97 30.4194 153.128 30.3408 153.31 30.3066C154.151 30.6781 154.977 31.0713 155.786 31.4859Z" fill="#FF0000"/>
<path fill-rule="evenodd" clip-rule="evenodd" d="M118.056 32.4302C117.427 32.8234 116.798 33.2164 116.169 33.6096C114.676 34.2771 113.261 35.0633 111.923 35.9684C111.845 35.9684 111.766 35.9684 111.688 35.9684C112.279 35.2796 112.947 34.6508 113.692 34.0813C115.071 33.3336 116.525 32.7833 118.056 32.4302Z" fill="#FF0000"/>
<path fill-rule="evenodd" clip-rule="evenodd" d="M152.48 32.1936C152.48 32.6653 152.48 33.137 152.48 33.6088C153.279 33.8897 154.065 34.2435 154.839 34.6701C156.652 35.8568 158.46 37.0361 160.263 38.2081C161.169 39.7027 162.348 40.9214 163.801 41.8639C164.445 42.7394 165.074 43.6043 165.688 44.4584C163.205 41.9356 160.61 39.5376 157.905 37.2646C156.107 35.9775 154.22 34.8376 152.244 33.8446C152.173 33.2411 152.252 32.6906 152.48 32.1936Z" fill="#FF0000"/>
<path fill-rule="evenodd" clip-rule="evenodd" d="M112.867 29.3635C111.299 30.9667 109.491 32.2639 107.442 33.2552C105.515 34.986 103.628 36.7549 101.781 38.5621C102.077 37.9505 102.47 37.4 102.961 36.9111C104.225 35.7252 105.483 34.5459 106.734 33.3732C107.058 33.1345 107.372 32.8986 107.678 32.6656C109.102 31.6408 110.517 30.6185 111.923 29.5994C112.238 29.5208 112.552 29.4421 112.867 29.3635Z" fill="#FF0000"/>
<path fill-rule="evenodd" clip-rule="evenodd" d="M111.206 36.2039C110.65 36.7586 110.021 37.2301 109.32 37.6184C109.572 37.0903 109.965 36.6579 110.499 36.3217C110.723 36.2079 110.958 36.1687 111.206 36.2039Z" fill="#FF0000"/>
<path fill-rule="evenodd" clip-rule="evenodd" d="M164.039 39.0339C164.196 39.1125 164.353 39.1913 164.511 39.2698C165.54 40.6905 166.563 42.1058 167.577 43.5157C167.895 44.1509 168.209 44.78 168.521 45.4027C167.892 44.931 167.341 44.3806 166.87 43.7515C166.131 42.0723 165.188 40.4997 164.039 39.0339Z" fill="#FF0000"/>
<path fill-rule="evenodd" clip-rule="evenodd" d="M166.867 43.7515C167.339 44.3805 167.889 44.9308 168.518 45.4025C168.48 45.8032 168.519 46.1964 168.636 46.5818C169.231 47.4623 169.82 48.3269 170.405 49.1763C170.679 50.1138 170.876 51.0573 170.994 52.0066C169.995 50.1409 168.894 48.3328 167.692 46.5818C167.478 46.1245 167.124 45.8886 166.631 45.8742C166.317 45.481 166.002 45.0881 165.688 44.6949C166.149 44.889 166.62 44.9284 167.103 44.8128C166.895 44.493 166.816 44.1392 166.867 43.7515Z" fill="#FF0000"/>
<path fill-rule="evenodd" clip-rule="evenodd" d="M168.522 45.4016C169.395 46.5184 170.023 47.7763 170.408 49.1747C169.824 48.3255 169.235 47.461 168.64 46.5807C168.523 46.1954 168.484 45.8023 168.522 45.4016Z" fill="#FF0000"/>
<path fill-rule="evenodd" clip-rule="evenodd" d="M166.633 45.8735C167.126 45.8879 167.48 46.1238 167.694 46.5811C168.896 48.3321 169.997 50.1403 170.996 52.0059C170.878 51.0566 170.681 50.1131 170.407 49.1756C171.737 51.6748 172.602 54.348 173.001 57.1949C173.001 57.3522 172.923 57.4307 172.765 57.4307C171.321 53.2418 169.277 49.3893 166.633 45.8735Z" fill="#FF0000"/>
<path fill-rule="evenodd" clip-rule="evenodd" d="M173.002 57.1948C173.422 57.8277 173.54 58.5354 173.355 59.3179C173.133 58.6918 172.937 58.0627 172.766 57.4307C172.923 57.4307 173.002 57.3522 173.002 57.1948Z" fill="#FF0000"/>
<path fill-rule="evenodd" clip-rule="evenodd" d="M128.898 24.1749C130.584 23.9409 132.314 23.8624 134.087 23.939C134.716 23.939 135.345 23.939 135.974 23.939C137.574 24.1008 139.146 24.4155 140.691 24.8825C136.785 24.2895 132.854 24.0537 128.898 24.1749Z" fill="#FF0000"/>
<path fill-rule="evenodd" clip-rule="evenodd" d="M128.664 24.411C128.664 24.3325 128.664 24.2537 128.664 24.1752C128.743 24.1752 128.821 24.1752 128.9 24.1752C132.855 24.0539 136.786 24.2898 140.693 24.8827C141.698 24.9766 142.641 25.2125 143.523 25.5903C140.847 25.2832 138.173 24.9294 135.504 24.5289C133.225 24.411 130.945 24.3719 128.664 24.411Z" fill="#FF0000"/>
<path fill-rule="evenodd" clip-rule="evenodd" d="M128.658 24.1753C128.658 24.2538 128.658 24.3326 128.658 24.4112C126.49 24.5572 124.367 24.8716 122.289 25.3547C123.254 25.1132 124.198 24.7987 125.12 24.4112C126.297 24.313 127.477 24.2345 128.658 24.1753Z" fill="#FF0000"/>
<path fill-rule="evenodd" clip-rule="evenodd" d="M124.416 29.8356C124.272 30.0458 124.193 30.2817 124.18 30.5433C122.935 30.9058 121.677 31.2203 120.406 31.4868C119.795 31.4776 119.323 31.7135 118.99 32.1945C118.705 32.3676 118.391 32.4461 118.047 32.4303C118.277 32.031 118.591 31.6772 118.99 31.3689C120.35 30.9643 121.687 30.4926 123 29.9536C123.466 29.8368 123.938 29.7974 124.416 29.8356Z" fill="#FF0000"/>
<path fill-rule="evenodd" clip-rule="evenodd" d="M142.805 30.3075C142.49 30.3075 142.176 30.3075 141.861 30.3075C139.229 29.6004 136.516 29.2857 133.724 29.3641C131.635 29.3808 129.551 29.4987 127.474 29.7178C126.776 29.7837 126.148 29.9804 125.587 30.3075C125.1 30.3115 124.628 30.39 124.172 30.5434C124.185 30.2818 124.264 30.0459 124.408 29.8358C127.312 29.436 130.221 29.1216 133.135 28.8923C135.582 28.9525 138.019 29.1492 140.446 29.482C141.336 29.616 142.123 29.8912 142.805 30.3075Z" fill="#FF0000"/>
<path fill-rule="evenodd" clip-rule="evenodd" d="M120.407 31.4868C120.011 31.8424 119.539 32.0783 118.992 32.1943C119.325 31.7135 119.797 31.4776 120.407 31.4868Z" fill="#FF0000"/>
<path fill-rule="evenodd" clip-rule="evenodd" d="M156.008 31.4866C157.026 32.191 157.97 32.9776 158.839 33.8458C159.161 34.4025 159.633 34.7958 160.254 35.0253C160.648 35.2613 160.962 35.5757 161.198 35.969C159.558 35.4682 158.3 34.4853 157.423 33.02C156.529 32.8575 156.057 32.3463 156.008 31.4866Z" fill="#FF0000"/>
<path fill-rule="evenodd" clip-rule="evenodd" d="M158.844 33.845C159.454 34.0617 159.926 34.4548 160.259 35.0241C159.637 34.7946 159.166 34.4015 158.844 33.845Z" fill="#FF0000"/>
<path fill-rule="evenodd" clip-rule="evenodd" d="M161.203 35.9678C162.319 36.8468 163.262 37.8687 164.033 39.0337C163.798 39.054 163.602 38.9753 163.444 38.7979C162.641 37.8795 161.894 36.9361 161.203 35.9678Z" fill="#FF0000"/>
<path fill-rule="evenodd" clip-rule="evenodd" d="M101.542 38.563C101.158 39.3118 100.804 40.0982 100.481 40.9216C96.7119 45.7077 93.9995 51.0539 92.3438 56.9601C92.6096 55.7888 92.8454 54.6095 93.0513 53.4222C93.9464 51.2115 94.8899 49.0102 95.8817 46.8181C97.5843 43.9368 99.4712 41.1851 101.542 38.563Z" fill="#FF0000"/>
<path fill-rule="evenodd" clip-rule="evenodd" d="M100.128 47.0527C100.128 47.2101 100.128 47.3671 100.128 47.5245C98.7899 49.2547 97.6894 51.1416 96.8259 53.1851C96.3325 53.7955 96.018 54.5031 95.8824 55.3079C95.535 56.1926 95.1418 57.0572 94.7031 57.9023C95.0649 56.3129 95.4975 54.7404 96.0004 53.1851C96.6221 52.1035 97.2903 51.0421 98.0052 50.001C98.2762 49.593 98.2762 49.2 98.0052 48.8217C98.3965 48.3875 98.8682 48.1122 99.4203 47.9962C99.3232 47.4129 99.559 47.0985 100.128 47.0527Z" fill="#FF0000"/>
<path fill-rule="evenodd" clip-rule="evenodd" d="M94.6993 58.1384C94.5831 58.6823 94.5045 59.2326 94.4635 59.7895C94.013 60.4857 93.7771 61.2721 93.7559 62.1481C93.2698 63.4915 93.0339 64.9067 93.0483 66.3936C92.85 66.8367 92.7712 67.3085 92.8125 67.8087C92.7339 67.8087 92.6551 67.8087 92.5766 67.8087C92.5464 66.7754 92.625 65.7532 92.8125 64.7425C93.0596 63.4165 93.2561 62.0799 93.4021 60.7329C93.8602 59.8621 94.2927 58.9974 94.6993 58.1384Z" fill="#FF0000"/>
<path fill-rule="evenodd" clip-rule="evenodd" d="M92.3395 56.9585C92.4009 59.3728 92.2435 61.7705 91.8678 64.1522C91.9464 64.6634 92.0251 65.1742 92.1037 65.6853C92.3445 65.3549 92.5804 65.0403 92.8113 64.7419C92.6238 65.7526 92.5452 66.7748 92.5754 67.8081C92.4183 68.5603 92.261 69.3466 92.1037 70.1667C91.9655 70.1174 91.8475 70.0386 91.7499 69.9308C91.632 67.0229 91.5926 64.114 91.632 61.204C91.632 60.8108 91.632 60.4179 91.632 60.0247C91.7445 58.9466 91.9803 57.9246 92.3395 56.9585Z" fill="#FF0000"/>
<path fill-rule="evenodd" clip-rule="evenodd" d="M91.6319 61.2043C91.5925 64.1144 91.6319 67.0233 91.7499 69.9312C91.8475 70.039 91.9654 70.1178 92.1036 70.1671C92.261 69.347 92.4183 68.5606 92.5754 67.8084C92.6145 70.247 92.5754 72.6842 92.4574 75.1201C92.3671 74.989 92.2492 74.9104 92.1036 74.8843C91.1321 70.3164 90.975 65.7565 91.6319 61.2043Z" fill="#FF0000"/>
<path fill-rule="evenodd" clip-rule="evenodd" d="M143.75 25.5901C144.625 25.7892 145.49 26.025 146.345 26.2977C147.14 26.7096 147.966 27.1025 148.821 27.4771C148.887 27.9281 148.691 28.2428 148.232 28.4206C148.282 28.0329 148.203 27.679 147.996 27.3592C146.407 27.0728 144.992 26.4831 143.75 25.5901Z" fill="#FF0000"/>
<path fill-rule="evenodd" clip-rule="evenodd" d="M148.229 28.4203C147.757 28.9707 147.286 29.5213 146.814 30.0717C146.391 30.5344 145.88 30.8491 145.28 31.0154C144.485 30.8418 143.738 30.6058 143.039 30.3076C144.261 30.3789 145.44 30.2215 146.578 29.8358C146.584 28.7997 147.134 28.3278 148.229 28.4203Z" fill="#FF0000"/>
<path fill-rule="evenodd" clip-rule="evenodd" d="M152.957 29.6001C153.984 30.1126 154.927 30.7416 155.788 31.4868C154.978 31.0722 154.153 30.6791 153.311 30.3076C153.129 30.3418 152.972 30.4204 152.84 30.5435C152.796 31.1416 152.678 31.6918 152.486 32.1944C152.395 31.2536 152.552 30.389 152.957 29.6001Z" fill="#FF0000"/>
<path fill-rule="evenodd" clip-rule="evenodd" d="M92.5733 67.8086C92.6518 67.8086 92.7306 67.8086 92.8091 67.8086C92.7943 71.3536 92.8337 74.8915 92.9271 78.4223C92.8304 78.0919 92.7124 77.7775 92.5733 77.4789C92.4535 76.6069 92.2964 75.742 92.1016 74.8844C92.2471 74.9106 92.365 74.9891 92.4554 75.1203C92.5733 72.6843 92.6124 70.2472 92.5733 67.8086Z" fill="#FF0000"/>
<path fill-rule="evenodd" clip-rule="evenodd" d="M144.229 37.1472C144.244 37.0192 144.322 36.9406 144.465 36.9114C144.626 37.0866 144.784 37.2437 144.937 37.3831C144.734 38.1904 144.458 38.9766 144.112 39.7417C142.958 42.0371 141.189 43.6096 138.805 44.4589C138.805 44.3804 138.805 44.3016 138.805 44.2231C141.653 42.8261 143.54 40.5854 144.465 37.501C144.449 37.3206 144.37 37.2027 144.229 37.1472Z" fill="white"/>
<path fill-rule="evenodd" clip-rule="evenodd" d="M145.407 35.7319C145.142 36.0036 145.142 36.2395 145.407 36.4395C145.641 36.3989 145.798 36.4777 145.879 36.6754C145.296 36.5782 144.981 36.8141 144.936 37.383C144.782 37.2436 144.625 37.0865 144.464 36.9112C144.321 36.9405 144.242 37.019 144.228 37.1471C142.233 39.3757 140.425 41.7344 138.803 44.2229C138.803 44.3015 138.803 44.3802 138.803 44.4588C138.659 44.6689 138.581 44.9048 138.567 45.1664C138.296 44.901 138.06 44.901 137.86 45.1664C135.48 48.488 133.2 51.8688 131.02 55.3084C130.688 55.1968 130.531 54.961 130.548 54.6008C134.556 47.9243 139.194 41.7134 144.464 35.9678C144.778 35.8893 145.093 35.8105 145.407 35.7319Z" fill="white"/>
<path fill-rule="evenodd" clip-rule="evenodd" d="M108.847 47.5247C109.43 47.6096 109.901 47.8454 110.262 48.2322C109.538 48.3669 109.223 48.7992 109.319 49.5295C109.831 51.53 110.224 51.53 110.498 49.5295C109.932 49.3396 109.971 49.1431 110.616 48.9398C110.989 49.2842 111.303 49.6774 111.559 50.1191C111.775 49.8469 111.971 49.8863 112.149 50.2371C111.992 50.3156 111.835 50.3944 111.677 50.4729C111.913 50.6694 112.149 50.8661 112.385 51.0626C112.148 51.2739 112.148 51.431 112.385 51.5343C112.673 51.443 112.83 51.2465 112.857 50.9446C112.661 50.5991 112.622 50.2453 112.739 49.8833C112.996 50.4833 113.154 51.1123 113.21 51.7702C113.54 52.2482 113.933 52.3268 114.39 52.006C114.506 52.3914 114.545 52.7846 114.508 53.1853C114.125 53.1523 113.85 53.3096 113.682 53.657C113.599 53.2858 113.442 52.8926 113.21 52.4777C113.132 52.6351 113.053 52.7921 112.975 52.9495C112.555 52.7185 112.162 52.7971 111.795 53.1853C111.439 53.0068 111.124 52.7709 110.852 52.4777C110.694 52.9495 110.38 53.2639 109.908 53.4212C109.826 52.9662 109.669 52.4945 109.437 52.006C108.804 52.3346 108.764 52.649 109.319 52.9495C109.04 53.4134 109.197 53.7278 109.79 53.8929C109.709 54.175 109.591 54.175 109.437 53.8929C109.333 54.2646 109.136 54.5793 108.847 54.8363C109.181 54.921 109.496 55.196 109.79 55.6619C109.195 55.7034 108.762 55.4284 108.493 54.8363C107.858 55.7831 107.229 56.5692 106.606 57.1949C106.528 57.0376 106.449 56.8805 106.37 56.7232C105.876 57.582 105.523 58.4075 105.309 59.1998C105.522 60.1694 105.601 61.1522 105.545 62.148C105.309 62.148 105.073 62.148 104.837 62.148C104.888 62.5358 104.809 62.8896 104.602 63.2094C105.205 63.5349 105.205 63.8887 104.602 64.2708C104.647 64.6411 104.647 64.9949 104.602 65.3321C104.759 65.4107 104.916 65.4895 105.073 65.568C105.046 65.8671 104.967 66.1817 104.837 66.5114C105.852 67.0964 105.774 67.4502 104.602 67.5728C104.837 67.7301 105.073 67.8872 105.309 68.0445C105.066 67.9964 104.831 68.1144 104.602 68.3983C104.973 68.4816 105.366 68.6389 105.781 68.8701C105.471 69.1991 105.549 69.4349 106.017 69.5776C104.861 69.7144 104.782 70.1076 105.781 70.7569C105.476 71.2499 105.634 71.5645 106.253 71.7004C105.889 72.0728 105.614 72.5054 105.427 72.9976C104.913 72.6691 104.677 72.2759 104.719 71.8183C104.048 72.0384 104.009 72.3922 104.602 72.8797C104.484 72.9976 104.366 73.1155 104.248 73.2335C104.044 72.8592 103.887 72.466 103.776 72.0542C103.536 72.6504 103.261 72.6504 102.95 72.0542C102.787 72.178 102.669 72.3353 102.597 72.5259C102.494 71.6221 102.691 70.7966 103.186 70.0494C103.029 69.9708 102.872 69.892 102.715 69.8135C102.926 68.3738 103.083 66.9193 103.186 65.4501C103.326 65.0734 103.561 64.7588 103.894 64.5066C103.686 64.2594 103.528 63.9842 103.422 63.6811C103.633 63.3519 103.79 62.9981 103.894 62.6197C103.826 62.0131 103.826 61.4235 103.894 60.8508C104.051 60.7722 104.208 60.6935 104.366 60.6149C103.945 60.3633 103.827 60.0095 104.012 59.5536C104.484 58.6101 104.955 57.6667 105.427 56.7232C105.747 56.5157 106.101 56.4369 106.488 56.4874C106.413 55.5885 106.767 55.2741 107.55 55.5439C107.589 55.426 107.628 55.3081 107.668 55.1901C107.499 53.5766 107.224 51.9647 106.842 50.355C106.952 50.0175 107.149 49.7425 107.432 49.5295C107.309 49.3972 107.23 49.2398 107.196 49.0578C107.419 48.1676 107.969 47.6567 108.847 47.5247Z" fill="white"/>
<path fill-rule="evenodd" clip-rule="evenodd" d="M127.012 63.564C126.814 63.4834 126.735 63.3263 126.776 63.0923C129.823 58.9805 132.929 54.8924 136.092 50.8275C137.04 49.2435 137.708 47.5533 138.097 45.7565C138.091 45.5042 138.012 45.3077 137.861 45.1669C138.061 44.9015 138.297 44.9015 138.569 45.1669C137.913 48.6796 136.38 51.7458 133.97 54.3655C133.807 54.5617 133.847 54.7188 134.088 54.8372C136.95 53.0359 139.78 51.1884 142.579 49.2945C144.252 48.0934 145.785 46.7174 147.178 45.1669C147.985 44.0083 148.614 42.7503 149.065 41.3931C149.75 38.5989 150.183 35.7685 150.362 32.9021C150.628 32.4002 150.668 31.85 150.48 31.2511C150.359 31.4933 150.241 31.7292 150.126 31.9587C149.448 34.2081 148.033 35.7806 145.881 36.6759C145.8 36.4782 145.643 36.3995 145.409 36.44C148.001 35.5379 149.534 33.7295 150.008 31.0152C148.421 32.563 146.888 34.1354 145.409 35.7325C145.095 35.811 144.78 35.8898 144.466 35.9683C146.426 33.8505 148.47 31.8063 150.598 29.8359C150.937 34.1833 150.426 38.4288 149.065 42.5724C148.06 44.7586 146.605 46.6061 144.701 48.1151C140.613 50.9455 136.525 53.7758 132.437 56.6061C130.484 58.8258 128.676 61.145 127.012 63.564Z" fill="white"/>
<path fill-rule="evenodd" clip-rule="evenodd" d="M150.361 32.901C150.424 32.524 150.345 32.2098 150.125 31.958C150.24 31.7286 150.358 31.4929 150.479 31.2507C150.666 31.8493 150.627 32.3993 150.361 32.901Z" fill="white"/>
<path fill-rule="evenodd" clip-rule="evenodd" d="M116.867 50.1187C116.467 50.3985 116.074 50.3591 115.688 50.0008C114.703 49.1687 113.917 48.1859 113.329 47.0526C113.123 46.8754 112.887 46.7575 112.622 46.6988C111.6 46.5414 110.577 46.5414 109.555 46.6988C109.27 46.9438 109.034 47.2191 108.848 47.5243C107.97 47.6564 107.42 48.1672 107.197 49.0574C107.231 49.2395 107.309 49.3968 107.433 49.5291C107.149 49.7421 106.953 50.0171 106.843 50.3546C107.225 51.9644 107.5 53.5762 107.668 55.1898C107.629 55.3077 107.59 55.4256 107.551 55.5435C106.768 55.2737 106.414 55.5881 106.489 56.487C106.101 56.4365 105.748 56.5153 105.428 56.7228C104.956 57.6663 104.484 58.6097 104.013 59.5532C103.828 60.0091 103.946 60.3629 104.366 60.6146C104.209 60.6931 104.052 60.7719 103.895 60.8504C103.827 61.4231 103.827 62.0127 103.895 62.6194C103.791 62.9977 103.634 63.3515 103.423 63.6807C103.529 63.9838 103.686 64.2591 103.895 64.5063C103.562 64.7584 103.326 65.073 103.187 65.4497C103.017 65.5483 102.899 65.7054 102.833 65.9214C102.747 66.9474 102.629 67.9694 102.48 68.9876C102.447 69.3485 102.289 69.5843 102.008 69.6952C102.143 67.9635 102.3 66.2337 102.48 64.5063C102.793 61.5613 103.697 58.8095 105.192 56.2511C105.891 55.7886 106.52 55.2383 107.079 54.6001C107.236 54.0498 107.236 53.4993 107.079 52.9491C105.877 50.6442 106.309 48.6394 108.376 46.9346C109.683 46.1561 111.098 45.9202 112.622 46.227C113.114 46.4138 113.546 46.6891 113.919 47.0526C114.48 48.5173 115.463 49.5392 116.867 50.1187Z" fill="white"/>
<path fill-rule="evenodd" clip-rule="evenodd" d="M152.246 53.8928C153.493 54.5148 154.672 55.2224 155.784 56.0156C155.911 56.3969 155.99 56.7901 156.02 57.1949C153.436 55.7941 150.803 54.4575 148.119 53.1852C147.608 53.7355 147.097 54.286 146.586 54.8363C146.635 54.9745 146.714 55.0924 146.821 55.19C146.453 55.265 146.178 55.4615 145.996 55.7797C145.911 55.0617 145.754 54.983 145.524 55.5438C145.367 55.2294 145.367 54.9148 145.524 54.6004C145.928 54.0211 146.242 53.3921 146.468 52.7135C147.385 51.4929 148.289 51.5323 149.18 52.8314C150.21 53.1902 151.232 53.544 152.246 53.8928Z" fill="white"/>
<path fill-rule="evenodd" clip-rule="evenodd" d="M152.248 53.8933C151.233 53.5445 150.211 53.1907 149.182 52.832C148.291 51.5328 147.387 51.4935 146.469 52.714C146.244 53.3926 145.93 54.0216 145.526 54.6009C145.369 54.9153 145.369 55.23 145.526 55.5444C145.756 54.9835 145.913 55.0623 145.998 55.7802C146.18 55.462 146.455 55.2656 146.823 55.1906C146.715 55.0929 146.637 54.975 146.587 54.8368C147.098 54.2865 147.609 53.736 148.12 53.1858C150.804 54.458 153.438 55.7946 156.022 57.1954C155.991 56.7906 155.913 56.3975 155.786 56.0161C157.663 57.1105 159.472 58.2898 161.211 59.554C161.587 60.0861 161.43 60.4007 160.739 60.4974C160.15 60.2427 159.6 59.9281 159.088 59.554C155.553 57.4716 151.937 55.5059 148.238 53.6575C148.008 53.77 147.811 53.9271 147.649 54.1292C146.284 57.1522 145.026 60.2184 143.875 63.3278C143.317 64.0802 142.728 64.7877 142.106 65.4505C142.089 64.9998 141.853 64.7245 141.398 64.625C141.696 64.3625 141.971 64.3231 142.224 64.5071C142.381 64.1927 142.617 63.9568 142.932 63.7995C143.573 62.9818 144.005 62.1171 144.229 61.205C143.875 60.6489 143.482 60.6097 143.049 61.0871C143.128 61.1656 143.207 61.2444 143.285 61.3229C142.825 61.8121 142.393 62.3232 141.988 62.856C141.894 62.8023 141.855 62.7235 141.87 62.6202C143.137 60.0382 144.199 57.3652 145.054 54.6009C145.577 53.516 146.245 52.5334 147.059 51.6527C147.452 51.4953 147.845 51.4953 148.238 51.6527C149.666 52.2864 151.002 53.0334 152.248 53.8933Z" fill="white"/>
<path fill-rule="evenodd" clip-rule="evenodd" d="M161.206 59.5532C163.629 61.033 165.987 62.6055 168.282 64.2704C168.36 64.4278 168.439 64.5848 168.518 64.7422C168.439 64.7422 168.36 64.7422 168.282 64.7422C165.688 63.4456 163.172 62.0305 160.734 60.4967C161.426 60.4 161.583 60.0853 161.206 59.5532Z" fill="white"/>
<path fill-rule="evenodd" clip-rule="evenodd" d="M192.328 63.327C197.634 63.0919 202.98 63.0131 208.367 63.0912C208.917 63.2485 209.467 63.4056 210.018 63.5629C209.703 64.0346 209.389 64.5063 209.074 64.978C206.176 68.6634 203.188 72.2798 200.112 75.8276C200.121 75.5722 200.2 75.3363 200.347 75.1201C200.224 74.9568 200.066 74.8389 199.876 74.7663C200.201 74.3122 200.555 73.8797 200.937 73.469C201.083 73.2452 201.043 73.0487 200.819 72.8794C201.699 72.4489 202.485 71.8987 203.178 71.2284C202.839 71.1767 202.524 71.0588 202.234 70.8746C202.821 71.0175 203.372 70.8602 203.885 70.4028C204.157 69.403 204.668 68.5381 205.418 67.8084C205.497 67.8869 205.576 67.9657 205.654 68.0442C205.875 67.4305 206.307 67.0767 206.951 66.9829C207.114 66.7312 207.232 66.456 207.305 66.1574C207.384 66.2359 207.463 66.3147 207.541 66.3932C207.645 66.0215 207.841 65.7069 208.131 65.4498C207.831 64.9667 207.753 64.495 207.895 64.0346C207.72 63.849 207.523 63.6919 207.305 63.5629C206.527 63.5683 205.819 63.6469 205.183 63.7987C200.954 63.332 196.669 63.1747 192.328 63.327Z" fill="white"/>
<path fill-rule="evenodd" clip-rule="evenodd" d="M208.383 63.0915C209.03 63.0177 209.659 63.0962 210.269 63.3273C210.24 63.4704 210.161 63.5489 210.033 63.563C209.483 63.4058 208.933 63.2488 208.383 63.0915Z" fill="white"/>
<path fill-rule="evenodd" clip-rule="evenodd" d="M192.35 63.327C196.69 63.1746 200.975 63.3319 205.204 63.7987C205.841 63.6468 206.548 63.5683 207.327 63.5628C207.545 63.6918 207.741 63.8489 207.916 64.0345C207.774 64.4949 207.853 64.9666 208.152 65.4497C207.863 65.7067 207.666 66.0214 207.563 66.3931C207.484 66.3145 207.405 66.2358 207.327 66.1572C207.254 66.4558 207.136 66.7311 206.973 66.9827C206.329 67.0766 205.896 67.4304 205.676 68.0441C205.597 67.9655 205.518 67.8868 205.44 67.8082C204.689 68.5379 204.178 69.4028 203.907 70.4026C203.393 70.8599 202.843 71.0173 202.256 70.8743C202.546 71.0585 202.86 71.1765 203.199 71.2281C202.506 71.8984 201.72 72.4487 200.841 72.8791C201.065 73.0484 201.104 73.2449 200.959 73.4687C200.577 73.8793 200.223 74.3119 199.897 74.7659C200.088 74.8386 200.245 74.9565 200.369 75.1197C200.221 75.336 200.142 75.5718 200.133 75.8273C198.936 76.1603 198.228 76.9464 198.011 78.1858C197.384 78.1061 196.834 78.2634 196.36 78.6575C196.1 78.0231 196.139 77.394 196.477 76.7707C196.556 76.8492 196.635 76.928 196.713 77.0065C196.744 76.3294 197.019 75.7789 197.539 75.3556C197.391 75.1393 197.312 74.9034 197.303 74.648C198.237 73.8352 199.22 73.0491 200.251 72.2894C200.265 71.4934 200.541 70.8253 201.077 70.2847C200.998 70.2061 200.919 70.1274 200.841 70.0488C201.967 69.2809 202.438 68.2195 202.256 66.8648C198.189 66.9315 194.141 67.0889 190.109 67.3365C190.031 67.1792 189.952 67.0221 189.874 66.8648C189.592 67.0841 189.278 67.2415 188.93 67.3365C187.931 67.2162 186.949 67.1374 185.982 67.1006C185.84 66.3636 185.565 66.2851 185.156 66.8648C184.876 66.6141 184.758 66.2995 184.803 65.9214C184.333 65.9619 183.94 65.8046 183.623 65.4497C183.433 65.5223 183.276 65.6402 183.152 65.8034C183.446 66.1558 183.446 66.5096 183.152 66.8648C182.975 66.6582 182.857 66.4223 182.798 66.1572C182.401 66.8039 181.93 67.1971 181.383 67.3365C181.304 67.1792 181.225 67.0221 181.147 66.8648C180.518 67.4938 179.889 67.4938 179.26 66.8648C179.182 67.0221 179.103 67.1792 179.024 67.3365C178.617 67.1304 178.185 67.1698 177.727 67.4544C178.749 67.533 179.771 67.6117 180.793 67.6903C181.009 67.7559 181.166 67.8738 181.265 68.0441C180.813 67.9771 180.42 68.0556 180.086 68.2799C179.457 68.2799 178.828 68.2799 178.199 68.2799C177.499 68.1625 176.791 68.0839 176.076 68.0441C174.205 68.3816 172.318 68.5387 170.416 68.5158C170.694 68.1462 171.087 67.9495 171.595 67.9261C171.202 67.8476 170.809 67.7688 170.416 67.6903C170.573 67.6117 170.73 67.533 170.887 67.4544C170.611 67.3556 170.375 67.1985 170.18 66.9827C170.494 66.8254 170.494 66.6683 170.18 66.511C170.473 66.4035 170.67 66.5214 170.769 66.8648C171.177 66.4653 171.059 66.19 170.416 66.0393C170.539 65.8761 170.697 65.7582 170.887 65.6855C171.131 66.0487 171.445 66.1667 171.831 66.0393C171.64 65.9667 171.483 65.8487 171.359 65.6855C171.539 65.5886 171.775 65.5494 172.067 65.5676C171.935 65.4773 171.857 65.3593 171.831 65.2138C172.143 64.8711 172.34 64.9499 172.42 65.4497C174.284 64.8265 176.171 64.5121 178.081 64.5063C179.155 64.8895 180.177 64.8107 181.147 64.2704C181.972 64.4968 182.797 64.4574 183.623 64.1525C183.332 64.0978 183.096 63.9798 182.916 63.7987C186.045 63.4562 189.19 63.2991 192.35 63.327Z" fill="white"/>
<path fill-rule="evenodd" clip-rule="evenodd" d="M130.542 54.6006C130.525 54.9607 130.682 55.1966 131.014 55.3082C129.416 57.7958 128.001 60.3903 126.769 63.0916C126.728 63.3255 126.807 63.4826 127.004 63.5633C126.666 64.164 126.273 64.7145 125.825 65.2143C125.71 64.5513 125.946 63.9617 126.533 63.4454C126.108 62.7196 125.636 62.6805 125.118 63.3274C124.435 64.7322 123.727 66.1082 122.995 67.455C122.396 67.6427 121.846 67.6034 121.344 67.3371C121.808 67.3934 122.24 67.3149 122.641 67.1012C124.927 62.6802 127.561 58.5133 130.542 54.6006Z" fill="white"/>
<path fill-rule="evenodd" clip-rule="evenodd" d="M160.026 66.6292C159.927 66.7995 159.77 66.9174 159.554 66.983C159.986 67.2582 160.419 67.5332 160.851 67.8085C160.93 67.7299 161.008 67.6512 161.087 67.5726C161.244 67.8085 161.244 68.0443 161.087 68.2802C161.008 68.2017 160.93 68.1229 160.851 68.0443C160.427 68.5955 159.916 68.7526 159.318 68.5161C159.155 68.6399 159.037 68.7972 158.964 68.9878C158.892 68.7972 158.774 68.6399 158.61 68.5161C158.513 68.6958 158.474 68.9316 158.492 69.2236C158.395 69.1159 158.277 69.0371 158.139 68.9878C157.449 69.6036 156.82 69.5251 156.252 68.7519C156.133 69.4222 155.74 69.7366 155.073 69.6954C155.09 68.8319 154.854 68.6746 154.365 69.2236C154.188 69.017 154.07 68.7812 154.011 68.5161C153.351 69.8003 152.761 69.7609 152.242 68.3981C152.536 68.2906 152.732 68.4085 152.832 68.7519C152.947 68.4469 152.987 68.1323 152.95 67.8085C153.506 67.8469 154.056 67.8078 154.601 67.6905C154.333 67.4509 154.412 67.2936 154.837 67.2188C154.697 67.1094 154.539 67.07 154.365 67.1009C154.786 66.7903 155.18 66.8688 155.544 67.3368C156.823 66.9747 158.12 66.6603 159.436 66.3933C159.688 66.3999 159.885 66.4785 160.026 66.6292Z" fill="white"/>
<path fill-rule="evenodd" clip-rule="evenodd" d="M197.294 74.6484C197.452 74.2552 197.609 73.8623 197.766 73.4691C199.187 71.5737 200.523 69.6081 201.776 67.5726C201.904 67.5584 201.982 67.4799 202.012 67.3367C200.718 67.0266 199.46 67.0266 198.238 67.3367C194.229 67.5271 190.219 67.7238 186.209 67.9264C186.001 68.0934 185.844 68.2901 185.737 68.516C185.501 68.6733 185.265 68.8304 185.03 68.9877C184.859 68.0759 185.173 67.4469 185.973 67.1009C186.94 67.1376 187.922 67.2164 188.921 67.3367C189.269 67.2417 189.583 67.0843 189.865 66.865C189.943 67.0223 190.022 67.1794 190.101 67.3367C194.132 67.0891 198.181 66.9317 202.247 66.865C202.43 68.2198 201.958 69.2811 200.832 70.0491C200.911 70.1277 200.99 70.2064 201.068 70.285C200.532 70.8256 200.257 71.4938 200.243 72.2898C199.211 73.0495 198.228 73.8356 197.294 74.6484Z" fill="white"/>
<path fill-rule="evenodd" clip-rule="evenodd" d="M198.242 67.3361C199.464 67.026 200.722 67.026 202.015 67.3361C201.986 67.4792 201.908 67.5578 201.779 67.5719C200.646 67.3392 199.467 67.2604 198.242 67.3361Z" fill="white"/>
<path fill-rule="evenodd" clip-rule="evenodd" d="M171.817 65.2136C171.843 65.3591 171.922 65.4771 172.053 65.5674C171.761 65.5492 171.525 65.5884 171.345 65.6853C171.469 65.8485 171.626 65.9665 171.817 66.0391C171.431 66.1665 171.117 66.0485 170.873 65.6853C170.683 65.758 170.526 65.8759 170.402 66.0391C171.045 66.1898 171.163 66.4651 170.755 66.8646C170.656 66.5212 170.459 66.4033 170.166 66.5108C170.48 66.6681 170.48 66.8252 170.166 66.9825C170.361 67.1983 170.597 67.3554 170.873 67.4542C170.716 67.5328 170.559 67.6115 170.402 67.6901C170.795 67.7686 171.188 67.8474 171.581 67.9259C171.073 67.9493 170.68 68.146 170.402 68.5156C170.256 68.4894 170.138 68.4109 170.048 68.2797C169.688 68.5675 169.256 68.7248 168.751 68.7514C165.993 68.9967 163.242 69.2326 160.496 69.459C160.273 69.3441 160.037 69.2656 159.788 69.2231C159.342 69.4526 158.87 69.6099 158.373 69.6949C155.487 69.7095 152.656 70.0633 149.882 70.7562C147.119 70.9696 144.367 71.2449 141.627 71.5817C141.187 71.4765 140.755 71.398 140.33 71.3458C139.937 71.8697 139.465 71.9484 138.915 71.5817C138.04 72.0723 137.096 72.3869 136.085 72.5251C135.717 72.4003 135.363 72.243 135.023 72.0534C134.133 72.7041 133.111 73.0579 131.957 73.1147C131.111 73.1636 130.285 73.2815 129.481 73.4685C129.383 73.3607 129.265 73.282 129.127 73.2327C128.409 73.5367 127.701 73.6152 127.004 73.4685C127.729 72.3994 127.493 71.9277 126.297 72.0534C127.133 71.4414 127.998 71.4414 128.891 72.0534C129.441 71.5423 130.07 71.1491 130.778 70.8741C131.407 71.1885 132.036 71.1885 132.665 70.8741C132.828 70.9979 132.946 71.1553 133.019 71.3458C134.286 71.243 135.347 70.7319 136.203 69.8128C136.005 69.4198 136.123 69.3805 136.557 69.6949C136.792 69.459 137.028 69.2231 137.264 68.9873C137.5 69.2231 137.736 69.459 137.972 69.6949C138.499 69.5206 138.971 69.5206 139.387 69.6949C140.006 69.563 140.596 69.288 141.156 68.8694C142.304 68.5425 143.444 68.5031 144.576 68.7514C145.639 68.6297 146.74 68.3939 147.878 68.0439C148.184 68.1524 148.499 68.2311 148.821 68.2797C149.603 67.8026 150.429 67.7238 151.297 68.0439C151.529 67.6946 151.804 67.3799 152.123 67.1005C152.868 67.7104 153.615 67.7104 154.364 67.1005C154.538 67.0696 154.695 67.1089 154.835 67.2184C154.411 67.2931 154.332 67.4505 154.599 67.6901C154.055 67.8073 153.504 67.8465 152.948 67.808C152.985 68.1318 152.946 68.4465 152.831 68.7514C152.731 68.408 152.534 68.2901 152.241 68.3977C152.76 69.7604 153.349 69.7998 154.01 68.5156C154.069 68.7807 154.186 69.0165 154.364 69.2231C154.853 68.6741 155.089 68.8314 155.071 69.6949C155.738 69.7361 156.132 69.4217 156.25 68.7514C156.818 69.5246 157.447 69.6031 158.137 68.9873C158.275 69.0366 158.393 69.1154 158.491 69.2231C158.473 68.9312 158.512 68.6953 158.609 68.5156C158.772 68.6394 158.89 68.7967 158.963 68.9873C159.035 68.7967 159.153 68.6394 159.317 68.5156C159.914 68.7521 160.426 68.5951 160.85 68.0439C160.928 68.1224 161.007 68.2012 161.085 68.2797C161.243 68.0439 161.243 67.808 161.085 67.5722C161.007 67.6507 160.928 67.7295 160.85 67.808C160.417 67.5328 159.985 67.2578 159.552 66.9825C159.768 66.917 159.925 66.799 160.024 66.6287C160.328 67.0155 160.722 67.1335 161.203 66.9825C161.046 66.904 160.889 66.8252 160.732 66.7467C161.207 66.6467 161.639 66.45 162.029 66.157C162.449 66.2134 162.881 66.2919 163.326 66.3929C163.606 66.0768 163.96 65.9195 164.387 65.9212C165.178 65.9582 165.965 65.9582 166.746 65.9212C166.969 66.0167 167.126 66.174 167.218 66.3929C167.233 65.8308 167.429 65.6735 167.807 65.9212C168.136 65.5997 168.529 65.4032 168.987 65.3315C169.927 65.2139 170.87 65.1745 171.817 65.2136Z" fill="white"/>
<path fill-rule="evenodd" clip-rule="evenodd" d="M185.976 67.1007C185.176 67.4467 184.862 68.0758 185.033 68.9876C184.887 68.9614 184.769 68.8829 184.679 68.7518C184.111 69.4888 183.364 69.9605 182.438 70.1669C182.146 70.9304 181.753 71.638 181.259 72.2897C180.266 71.3623 180.03 71.4802 180.551 72.6435C180.566 73.047 180.408 73.3614 180.08 73.5869C180.158 73.6654 180.237 73.7442 180.315 73.8228C180.013 73.9841 179.737 73.9447 179.49 73.7048C179.244 73.9697 179.087 74.2841 179.018 74.6483C178.282 74.7091 177.653 75.1023 177.131 75.8276C177.053 75.749 176.974 75.6703 176.895 75.5917C176.734 75.8946 176.774 76.1698 177.013 76.4172C176.655 76.7359 176.341 77.0897 176.07 77.4786C175.852 77.2095 175.655 77.2095 175.48 77.4786C175.303 77.331 175.107 77.213 174.891 77.1248C175.743 76.6257 176.294 75.9967 176.542 75.2379C176.889 74.9275 177.282 74.6917 177.721 74.5303C177.427 74.178 177.427 73.8242 177.721 73.469C178.995 71.9224 180.213 70.3499 181.377 68.7518C181.488 68.4977 181.448 68.2619 181.259 68.0442C181.16 67.8739 181.003 67.756 180.787 67.6904C179.765 67.6118 178.743 67.5331 177.721 67.4545C178.179 67.1698 178.611 67.1305 179.018 67.3366C179.097 67.1793 179.176 67.0222 179.254 66.8649C179.883 67.4939 180.512 67.4939 181.141 66.8649C181.219 67.0222 181.298 67.1793 181.377 67.3366C181.924 67.1972 182.395 66.804 182.792 66.1573C182.851 66.4224 182.969 66.6583 183.146 66.8649C183.44 66.5097 183.44 66.1559 183.146 65.8035C183.27 65.6403 183.427 65.5224 183.617 65.4497C183.934 65.8047 184.327 65.962 184.797 65.9214C184.752 66.2995 184.87 66.6142 185.151 66.8649C185.559 66.2851 185.835 66.3637 185.976 67.1007Z" fill="white"/>
<path fill-rule="evenodd" clip-rule="evenodd" d="M142.1 65.4493C140.831 66.7545 139.416 67.8944 137.854 68.8692C140.288 68.572 142.726 68.2182 145.166 67.8078C152.898 66.7432 160.603 65.7212 168.28 64.7417C168.358 64.7417 168.437 64.7417 168.515 64.7417C173.311 64.4273 178.107 64.1127 182.903 63.7983C183.083 63.9794 183.318 64.0974 183.61 64.1521C182.784 64.457 181.959 64.4964 181.134 64.27C180.163 64.8103 179.141 64.8891 178.068 64.5059C176.158 64.5118 174.271 64.8262 172.407 65.4493C172.326 64.9495 172.13 64.8707 171.817 65.2134C170.871 65.1743 169.927 65.2137 168.987 65.3314C168.529 65.4031 168.136 65.5995 167.808 65.921C167.43 65.6733 167.234 65.8307 167.218 66.3927C167.127 66.1738 166.969 66.0165 166.747 65.921C165.965 65.958 165.179 65.958 164.388 65.921C163.961 65.9193 163.607 66.0767 163.327 66.3927C162.882 66.2918 162.45 66.2132 162.029 66.1568C161.64 66.4498 161.208 66.6465 160.732 66.7465C160.89 66.825 161.047 66.9038 161.204 66.9823C160.722 67.1333 160.329 67.0154 160.025 66.6286C159.884 66.4778 159.687 66.3993 159.435 66.3927C158.119 66.6597 156.822 66.9741 155.543 67.3361C155.179 66.8682 154.786 66.7896 154.364 67.1003C153.616 67.7102 152.869 67.7102 152.124 67.1003C151.804 67.3797 151.529 67.6944 151.298 68.0437C150.429 67.7236 149.604 67.8024 148.822 68.2795C148.499 68.2309 148.185 68.1522 147.878 68.0437C146.74 68.3937 145.64 68.6295 144.576 68.7512C143.445 68.5029 142.305 68.5423 141.156 68.8692C140.596 69.2878 140.007 69.5628 139.387 69.6947C138.971 69.5204 138.499 69.5204 137.972 69.6947C137.736 69.4588 137.501 69.223 137.265 68.9871C137.029 69.223 136.793 69.4588 136.557 69.6947C136.123 69.3803 136.005 69.4197 136.203 69.8126C135.348 70.7317 134.286 71.2428 133.019 71.3456C132.947 71.1551 132.829 70.9978 132.666 70.8739C132.037 71.1883 131.408 71.1883 130.779 70.8739C130.07 71.1489 129.441 71.5421 128.892 72.0532C127.999 71.4412 127.134 71.4412 126.298 72.0532C125.775 71.8482 125.224 71.7697 124.647 71.8174C124.684 71.4935 124.644 71.1789 124.529 70.8739C124.313 71.1461 124.117 71.1067 123.939 70.756C124.291 70.2791 124.212 69.8862 123.703 69.5767C124.018 69.3409 124.018 69.105 123.703 68.8692C124.385 68.3453 125.172 68.0701 126.062 68.0437C126.114 67.6092 126.193 67.1769 126.298 66.7465C126.19 66.2892 126.033 65.8568 125.826 65.4493C126.483 65.6564 126.798 66.1281 126.769 66.8644C126.612 68.238 125.826 68.9062 124.411 68.8692C124.827 69.634 124.984 70.4595 124.882 71.3456C128.505 70.6239 132.122 69.877 135.732 69.105C138.076 67.1939 140.12 65.0318 141.864 62.619C141.849 62.7223 141.888 62.8011 141.982 62.8549C142.386 62.3221 142.819 61.811 143.279 61.3218C143.201 61.2433 143.122 61.1645 143.043 61.086C143.476 60.6086 143.869 60.6478 144.222 61.2039C143.999 62.1159 143.567 62.9806 142.925 63.7983C142.611 63.9556 142.375 64.1915 142.218 64.5059C141.965 64.3219 141.689 64.3613 141.392 64.6238C141.846 64.7233 142.082 64.9986 142.1 65.4493Z" fill="white"/>
<path d="M109.56 46.6983C110.582 46.541 111.604 46.541 112.626 46.6983C112.891 46.757 113.127 46.8749 113.333 47.0518C113.921 48.185 114.707 49.168 115.692 50.0001C116.078 50.3583 116.472 50.3979 116.871 50.1182C117.504 50.0538 117.858 50.2901 117.933 50.8262C117.066 51.2303 116.161 51.5446 115.22 51.7696C114.889 52.8787 114.535 53.9794 114.158 55.0713C113.498 55.2187 112.83 55.3761 112.154 55.543C112.62 56.2835 113.13 56.9916 113.687 57.6661C114.959 60.4466 116.296 63.1982 117.696 65.921C117.972 66.1962 118.247 66.4709 118.523 66.7461C119.485 66.8712 120.429 67.0678 121.353 67.336C121.855 67.6023 122.405 67.6419 123.004 67.4542C123.737 66.1074 124.444 64.731 125.126 63.3262C125.644 62.6794 126.116 62.7189 126.541 63.4444C125.955 63.9605 125.719 64.5502 125.834 65.2129V65.4493C126.041 65.8567 126.199 66.289 126.306 66.7461C126.201 67.1766 126.122 67.6095 126.069 68.044C125.179 68.0705 124.393 68.3454 123.711 68.8692C124.025 69.1051 124.025 69.3413 123.711 69.5772C124.22 69.8866 124.299 70.2792 123.947 70.7559C124.125 71.1066 124.321 71.146 124.536 70.8741C124.652 71.179 124.691 71.4936 124.654 71.8174C125.232 71.7698 125.783 71.8488 126.306 72.0538C127.502 71.9281 127.737 72.3997 127.013 73.4688C126.118 74.0589 125.096 74.3338 123.947 74.294C123.121 74.5266 122.334 74.8015 121.588 75.1192C117.184 76.1414 112.782 77.1636 108.38 78.1856C107.186 78.3745 106.007 78.6108 104.842 78.8936C104.744 78.7464 104.586 78.6674 104.37 78.6573C103.358 78.9313 102.336 79.049 101.305 79.0108L101.54 78.7754C100.981 78.2603 101.021 77.7493 101.658 77.2422C101.746 75.8114 101.943 74.3964 102.248 72.9971C102.049 72.1438 101.969 71.2786 102.012 70.4024V69.6944C102.293 69.5835 102.45 69.3481 102.484 68.9874C102.633 67.9691 102.75 66.9469 102.837 65.921C102.903 65.7049 103.021 65.5479 103.192 65.4493C103.088 66.9184 102.931 68.3729 102.72 69.8126C102.877 69.8911 103.034 69.9704 103.192 70.0489C102.696 70.7961 102.499 71.6217 102.602 72.5254C102.674 72.335 102.792 72.1776 102.955 72.0538C103.266 72.6497 103.542 72.6498 103.781 72.0538C103.892 72.4654 104.05 72.8583 104.253 73.2325L104.607 72.879C104.014 72.3914 104.053 72.0375 104.725 71.8174C104.683 72.275 104.918 72.6686 105.432 72.9971C105.619 72.5049 105.894 72.0717 106.257 71.6993C105.639 71.5634 105.481 71.2487 105.785 70.7559C104.787 70.1068 104.866 69.714 106.022 69.5772C105.554 69.4345 105.475 69.1981 105.785 68.8692C105.371 68.6382 104.978 68.4808 104.607 68.3975C104.835 68.1137 105.071 67.9961 105.314 68.044C105.078 67.8868 104.842 67.7295 104.607 67.5723C105.779 67.4497 105.857 67.0957 104.842 66.5108C104.972 66.1811 105.051 65.8664 105.078 65.5674C104.921 65.4889 104.764 65.4096 104.607 65.3311C104.652 64.9939 104.652 64.6398 104.607 64.2696C105.21 63.8876 105.21 63.5344 104.607 63.209C104.814 62.8893 104.892 62.5352 104.842 62.1475H105.55C105.606 61.1518 105.527 60.1688 105.314 59.1993C105.527 58.4071 105.881 57.5814 106.375 56.7227C106.454 56.88 106.533 57.0371 106.611 57.1944C107.234 56.5687 107.863 55.7826 108.498 54.836C108.767 55.4276 109.2 55.7026 109.795 55.6612C109.5 55.1954 109.186 54.9207 108.852 54.836C109.141 54.5789 109.338 54.2634 109.442 53.8917C109.596 54.1737 109.713 54.1737 109.795 53.8917C109.202 53.7265 109.045 53.4121 109.323 52.9483C108.769 52.6479 108.809 52.3334 109.442 52.0049C109.673 52.4933 109.831 52.9651 109.913 53.42C110.385 53.2627 110.699 52.9483 110.857 52.4766C111.129 52.7697 111.443 53.0061 111.8 53.1846C112.167 52.7964 112.56 52.7174 112.98 52.9483C113.058 52.7911 113.136 52.6338 113.215 52.4766C113.446 52.8915 113.603 53.2851 113.687 53.6563C113.854 53.3089 114.13 53.1516 114.513 53.1846C114.551 52.7839 114.511 52.3903 114.395 52.0049C113.938 52.3257 113.544 52.2477 113.215 51.7696C113.158 51.1118 113.001 50.4828 112.743 49.8829C112.627 50.2446 112.666 50.5981 112.861 50.9434C112.835 51.2453 112.678 51.442 112.39 51.5333C112.153 51.4299 112.153 51.2729 112.39 51.0616C112.154 50.8651 111.918 50.6682 111.682 50.4717C111.839 50.3932 111.997 50.3149 112.154 50.2364C111.977 49.8857 111.78 49.8463 111.565 50.1182C111.309 49.6766 110.994 49.2838 110.621 48.9395C109.976 49.1428 109.937 49.3385 110.503 49.5284C110.229 51.5289 109.836 51.5289 109.323 49.5284C109.228 48.7985 109.543 48.3662 110.267 48.2315C109.906 47.8448 109.434 47.6084 108.852 47.5235C109.038 47.2184 109.274 46.9433 109.56 46.6983ZM112.387 66.628C112.676 67.9534 113.305 69.0934 114.274 70.0479C115.7 70.7778 117.193 71.3288 118.755 71.6993C119.187 71.8173 119.462 72.0923 119.58 72.5245C119.768 72.1096 119.729 71.716 119.462 71.3448C118.193 71.0358 116.935 70.6818 115.689 70.2833C114.124 69.4646 113.023 68.2463 112.387 66.628Z" fill="white"/>
<path fill-rule="evenodd" clip-rule="evenodd" d="M178.183 68.2803C174.673 68.5725 171.135 68.8871 167.57 69.2237C161.688 69.5862 155.87 70.2152 150.117 71.1105C149.881 71.1105 149.645 71.1105 149.409 71.1105C144.314 71.5898 139.282 72.2974 134.314 73.2332C132.097 73.4455 129.896 73.7601 127.71 74.1767C125.67 74.5132 123.626 74.8276 121.578 75.1201C122.324 74.8024 123.11 74.5271 123.937 74.2946C125.086 74.3344 126.108 74.0594 127.003 73.4691C127.7 73.6158 128.407 73.5373 129.125 73.2332C129.264 73.2825 129.382 73.3613 129.479 73.4691C130.284 73.2821 131.109 73.1641 131.956 73.1153C133.109 73.0585 134.131 72.7047 135.022 72.054C135.362 72.2436 135.715 72.4009 136.083 72.5257C137.095 72.3875 138.038 72.0728 138.913 71.5823C139.463 71.949 139.935 71.8702 140.329 71.3464C140.753 71.3985 141.185 71.4771 141.626 71.5823C144.365 71.2455 147.117 70.9702 149.881 70.7568C152.655 70.0638 155.485 69.71 158.371 69.6954C158.869 69.6105 159.34 69.4532 159.787 69.2237C160.035 69.2662 160.271 69.3447 160.494 69.4596C163.24 69.2331 165.992 68.9973 168.749 68.752C169.254 68.7253 169.687 68.568 170.046 68.2803C170.137 68.4114 170.254 68.49 170.4 68.5161C172.303 68.539 174.189 68.3819 176.061 68.0444C176.776 68.0843 177.483 68.1628 178.183 68.2803Z" fill="white"/>
<path fill-rule="evenodd" clip-rule="evenodd" d="M180.071 68.2797C180.406 68.0554 180.799 67.9769 181.251 68.0439C181.44 68.2616 181.479 68.4974 181.368 68.7515C180.205 70.3496 178.986 71.9221 177.713 73.4687C177.418 73.8239 177.418 74.1777 177.713 74.53C177.274 74.6914 176.881 74.9272 176.533 75.2376C176.285 75.9964 175.735 76.6254 174.882 77.1245C175.098 77.2127 175.295 77.3307 175.472 77.4783C175.647 77.2092 175.843 77.2092 176.062 77.4783C176.332 77.0894 176.647 76.7356 177.005 76.4169C176.765 76.1695 176.726 75.8943 176.887 75.5914C176.966 75.67 177.044 75.7487 177.123 75.8273C177.644 75.102 178.273 74.7088 179.01 74.648C179.078 74.2838 179.235 73.9694 179.482 73.7045C179.729 73.9444 180.004 73.9838 180.307 73.8225C180.229 73.7439 180.15 73.6651 180.071 73.5866C180.4 73.3611 180.557 73.0467 180.543 72.6432C180.021 71.4799 180.257 71.362 181.251 72.2894C181.745 71.6377 182.138 70.9301 182.43 70.1666C183.356 69.9602 184.103 69.4885 184.67 68.7515C184.761 68.8826 184.879 68.9611 185.024 68.9873C181.147 73.6121 176.901 77.897 172.288 81.8417C168.197 84.7242 163.716 86.6898 158.844 87.7382C163.007 85.8476 166.86 83.489 170.401 80.6624C174.379 76.9224 177.917 72.834 181.015 68.3977C180.71 68.2821 180.395 68.2427 180.071 68.2797Z" fill="white"/>
<path fill-rule="evenodd" clip-rule="evenodd" d="M197.29 74.6482C197.299 74.9036 197.378 75.1395 197.526 75.3558C197.006 75.7791 196.731 76.3296 196.7 77.0068C196.622 76.9283 196.543 76.8495 196.464 76.7709C196.126 77.3943 196.087 78.0234 196.346 78.6578C196.821 78.2637 197.371 78.1064 197.998 78.1861C198.215 76.9467 198.923 76.1605 200.12 75.8275C195.239 82.1236 189.657 87.7054 183.374 92.5736C182.431 93.1239 181.487 93.6744 180.544 94.2246C177.588 94.6662 174.6 94.8235 171.581 94.6964C171.347 94.7369 171.19 94.6581 171.109 94.4605C171.188 94.4605 171.267 94.4605 171.345 94.4605C173.862 94.4999 176.378 94.4605 178.893 94.3426C180.089 93.3555 181.268 92.3727 182.431 91.3943C187.997 86.303 192.95 80.7209 197.29 74.6482Z" fill="white"/>
<path fill-rule="evenodd" clip-rule="evenodd" d="M102.001 70.4023C101.958 71.2786 102.037 72.1435 102.237 72.9968C101.932 74.3962 101.735 75.8113 101.647 77.2423C101.009 77.7494 100.97 78.2603 101.529 78.7754C101.451 78.8539 101.372 78.9327 101.293 79.0113C102.324 79.0495 103.347 78.9315 104.359 78.6575C104.576 78.6676 104.733 78.7462 104.831 78.8933C96.8619 80.7283 88.9997 82.9296 81.2451 85.4974C81.2958 85.1014 81.1385 84.8656 80.7734 84.7899C83.0796 83.744 85.4382 82.7612 87.8492 81.8416C85.543 80.6554 83.1056 80.1052 80.5375 80.1906C79.0898 80.6335 77.6746 81.1446 76.292 81.7237C76.1526 81.5701 75.9956 81.4128 75.8203 81.2519C76.0826 81.0715 76.2399 80.8356 76.292 80.5444C78.0412 79.4634 79.9281 78.7558 81.9527 78.4216C82.9268 78.4685 83.8702 78.6653 84.783 79.0113C86.2213 79.7493 87.5973 80.5748 88.9106 81.4878C90.5736 80.9217 92.1853 80.2927 93.7457 79.6009C96.2461 78.8853 98.7226 78.0992 101.175 77.2423C101.465 74.9302 101.74 72.6501 102.001 70.4023Z" fill="white"/>
<path fill-rule="evenodd" clip-rule="evenodd" d="M76.3022 80.5442C76.25 80.8355 76.0927 81.0714 75.8304 81.2518C76.0057 81.4127 76.1628 81.57 76.3022 81.7236C74.6986 82.486 73.1263 83.3115 71.5845 84.2003C70.9385 85.0759 70.5453 86.0588 70.4051 87.1488C70.1919 86.9816 70.1134 86.7457 70.1693 86.4412C70.0004 85.2877 70.3148 84.3051 71.1128 83.4927C72.8107 82.4473 74.5406 81.4646 76.3022 80.5442Z" fill="white"/>
<path fill-rule="evenodd" clip-rule="evenodd" d="M80.7735 84.7896C81.1387 84.8653 81.296 85.1011 81.2453 85.4972C79.0459 86.244 76.8445 86.9122 74.6406 87.5022C76.6067 86.4006 78.6511 85.4965 80.7735 84.7896Z" fill="white"/>
<path fill-rule="evenodd" clip-rule="evenodd" d="M220.876 81.7235C220.093 81.8912 219.464 82.3235 218.989 83.0207C218.766 83.1346 218.53 83.1738 218.282 83.1387C218.282 83.3745 218.282 83.6104 218.282 83.8462C217.502 83.7222 216.991 84.0366 216.749 84.7897C216.67 84.7111 216.591 84.6324 216.513 84.5538C216.233 84.8045 216.115 85.1192 216.159 85.4973C215.216 86.1683 214.154 86.64 212.975 86.9124C212.896 86.8339 212.818 86.7551 212.739 86.6766C212.578 86.9794 212.617 87.2547 212.857 87.5021C212.437 87.2712 212.044 87.3497 211.678 87.7379C211.409 87.9127 211.409 88.1094 211.678 88.3276C211.149 88.5573 210.598 88.6361 210.027 88.5635C209.862 89.1519 209.626 89.7022 209.319 90.2145C208.691 90.3699 208.141 90.6843 207.668 91.1579C207.612 90.9817 207.534 90.7853 207.432 90.5683C207.776 90.4685 207.894 90.272 207.786 89.9786C207.55 90.1359 207.314 90.293 207.078 90.4503C206.994 89.9531 206.836 89.4814 206.607 89.0352C206.325 89.5128 205.971 89.5916 205.545 89.271C205.368 89.4777 205.25 89.7135 205.192 89.9786C205.113 89.8213 205.034 89.6642 204.956 89.5069C204.798 89.8213 204.641 89.8213 204.484 89.5069C204.203 89.8555 204.085 90.1701 204.13 90.4503C203.967 90.3265 203.849 90.1692 203.776 89.9786C203.634 90.4459 203.398 90.5246 203.069 90.2145C202.568 90.386 202.057 90.5433 201.536 90.6862C201.132 90.5968 200.896 90.361 200.828 89.9786C203.082 89.0109 205.362 88.0283 207.668 87.0304C208.061 86.873 208.454 86.873 208.847 87.0304C208.587 87.2971 208.666 87.4938 209.083 87.62C209.437 86.5935 210.026 86.3577 210.852 86.9124C211.322 86.4629 211.204 86.1876 210.498 86.0869C211.012 85.8034 211.562 85.6855 212.149 85.7331C212.149 85.4973 212.149 85.2614 212.149 85.0255C213.004 84.8317 213.83 84.517 214.626 84.0821C216.443 82.7514 218.527 81.5721 220.876 80.5442C221.097 80.9204 221.097 81.3133 220.876 81.7235Z" fill="white"/>
<path fill-rule="evenodd" clip-rule="evenodd" d="M70.1717 86.4409C70.1159 86.7453 70.1944 86.981 70.4075 87.1482C70.3582 87.4834 70.2403 87.7977 70.0539 88.0912C69.8662 87.4926 69.9056 86.9426 70.1717 86.4409Z" fill="white"/>
<path fill-rule="evenodd" clip-rule="evenodd" d="M220.878 81.724C221.098 81.3138 221.098 80.9209 220.878 80.5447C218.528 81.5726 216.445 82.7519 214.627 84.0826C213.831 84.5175 213.006 84.8322 212.151 85.026C212.151 85.2619 212.151 85.4977 212.151 85.7336C211.564 85.686 211.013 85.8039 210.5 86.0874C211.206 86.1881 211.324 86.4634 210.854 86.9129C210.028 86.3582 209.438 86.594 209.085 87.6205C208.667 87.4943 208.588 87.2976 208.849 87.0308C208.456 86.8735 208.063 86.8735 207.67 87.0308C205.363 88.0288 203.083 89.0114 200.83 89.9791C200.83 89.8218 200.751 89.7432 200.594 89.7432C201.144 89.4288 201.695 89.1142 202.245 88.7998C202.323 88.7998 202.402 88.7998 202.481 88.7998C208.337 86.4216 213.998 83.6701 219.463 80.5447C221.342 79.5649 223.229 78.6609 225.123 77.8323C223.81 79.2651 222.394 80.5624 220.878 81.724Z" fill="white"/>
<path fill-rule="evenodd" clip-rule="evenodd" d="M220.875 81.7231C208.289 93.2826 193.509 100.437 176.534 103.186C171.524 103.844 166.493 104.041 161.44 103.776C155.688 103.394 149.948 102.883 144.222 102.242C144.222 102.085 144.144 102.007 143.986 102.007C144.085 101.836 144.242 101.718 144.458 101.653C143.812 101.421 143.183 101.146 142.571 100.827C141.998 101.04 141.408 101.197 140.802 101.299C137.29 100.914 133.791 100.442 130.307 99.8839C130.107 99.3504 129.793 99.1931 129.363 99.4122C129.129 98.4733 128.893 98.4733 128.656 99.4122C128.223 99.4908 127.791 99.5696 127.359 99.6481C121.881 99.228 116.338 98.7955 110.731 98.3509C110.607 98.1877 110.45 98.0698 110.259 97.9971C106.148 98.2853 101.942 98.2853 97.6409 97.9971C95.8498 98.2752 94.0415 98.511 92.2162 98.7047C91.3693 98.6353 90.5832 98.5568 89.8577 98.4688C89.1046 98.9544 88.4364 99.2691 87.8529 99.4122C84.8203 99.9972 81.7542 100.587 78.6546 101.181C77.7284 101.352 76.8635 101.627 76.0602 102.007C75.3295 102.067 74.6219 102.224 73.9375 102.478C73.9439 101.797 74.2189 101.561 74.763 101.771C75.0557 101.266 75.4486 101.188 75.9423 101.535C76.8135 101.486 77.5605 101.171 78.1829 100.592C77.9456 100.38 77.9456 100.223 78.1829 100.12C78.3461 100.244 78.464 100.401 78.5367 100.592C78.6591 100.352 78.8558 100.195 79.1263 100.12C79.5525 100.231 79.9848 100.31 80.4235 100.356C81.7042 100.056 83.0014 99.8597 84.3151 99.766C84.046 99.5912 84.046 99.3945 84.3151 99.1764C84.9177 98.8358 85.5465 98.5606 86.2019 98.3509C85.8213 97.8572 85.6248 97.3462 85.6123 96.8178C85.2979 96.9752 85.0621 97.211 84.9047 97.5254C84.8262 97.4469 84.7474 97.3681 84.6689 97.2895C84.5856 97.566 84.6248 97.841 84.7868 98.115C84.5179 98.6521 84.2035 98.7306 83.8434 98.3509C83.9516 97.8926 83.7158 97.5782 83.1358 97.4075C83.7153 96.8751 84.3443 96.6393 85.0227 96.6999C84.4887 96.6442 83.9776 96.5263 83.4896 96.3461C83.0556 96.6605 82.9377 96.6211 83.1358 96.2282C82.8372 96.1553 82.562 96.0374 82.3103 95.8744C81.628 96.3053 81.0384 96.6197 80.5414 96.8178C79.6582 96.7577 78.7933 96.7577 77.947 96.8178C80.3919 95.9301 82.9078 95.1834 85.4944 94.5772C89.7515 93.6505 93.9969 92.8251 98.2305 92.1007C105.29 91.451 112.366 91.058 119.457 90.9215C129.535 91.2257 139.598 91.776 149.647 92.5725C153.603 93.1102 157.612 93.4246 161.675 93.5159C164.894 93.8862 168.117 94.2006 171.345 94.4593C171.267 94.4593 171.188 94.4593 171.11 94.4593C170.009 94.7595 168.908 94.7595 167.808 94.4593C167.552 94.7341 167.355 95.0485 167.218 95.4027C167.119 95.1263 166.962 94.8904 166.746 94.6951C166.601 94.919 166.64 95.1154 166.864 95.2848C166.428 95.7643 166.271 95.7643 166.392 95.2848C165.242 94.451 163.984 94.2546 162.619 94.6951C162.581 95.0959 162.62 95.489 162.737 95.8744C162.977 95.59 163.095 95.6685 163.091 96.1103C163.016 96.3808 162.858 96.5775 162.619 96.6999C162.697 96.7784 162.776 96.8572 162.855 96.9358C161.64 96.806 161.286 97.2384 161.793 98.233C163.298 98.9179 163.416 98.7608 162.147 97.7613C162.619 97.4469 163.091 97.4469 163.562 97.7613C163.008 98.0617 163.047 98.3761 163.68 98.7047C163.891 98.4191 164.087 98.4191 164.27 98.7047C163.33 99.1316 163.409 99.3674 164.506 99.4122C165.099 99.3851 165.571 99.1493 165.921 98.7047C166.208 99.3754 166.601 99.9651 167.1 100.474C167.021 100.552 166.943 100.631 166.864 100.709C167.282 101.208 167.636 101.169 167.926 100.592C168.161 100.906 168.397 100.906 168.633 100.592C168.803 100.972 168.764 101.325 168.515 101.653C168.879 101.933 169.272 102.011 169.694 101.889C168.871 101.496 168.91 101.063 169.812 100.592C170.18 100.758 170.455 100.601 170.638 100.12C170.074 99.8111 170.074 99.5752 170.638 99.4122C170.914 99.5111 171.15 99.6681 171.345 99.8839C171.581 99.766 171.817 99.6481 172.053 99.5302C171.47 98.9804 171.549 98.4695 172.289 97.9971C172.446 97.3681 172.603 96.7393 172.761 96.1103C173.146 96.4037 173.382 96.2857 173.468 95.7565C173.25 95.4853 173.25 95.2494 173.468 95.0489C172.933 94.8701 172.422 94.9095 171.935 95.1669C171.766 95.0385 171.648 94.8812 171.581 94.6951C174.6 94.8223 177.588 94.665 180.544 94.2234C183.043 94.4027 185.559 94.2062 188.091 93.6338C192.332 92.5477 196.499 91.2505 200.591 89.7422C200.749 89.7422 200.827 89.8207 200.827 89.9781C200.895 90.3604 201.131 90.5962 201.535 90.6856C202.056 90.5427 202.567 90.3854 203.068 90.2139C203.397 90.5241 203.633 90.4453 203.775 89.9781C203.848 90.1686 203.966 90.3259 204.129 90.4498C204.084 90.1696 204.202 89.8549 204.483 89.5063C204.64 89.8207 204.797 89.8207 204.955 89.5063C205.033 89.6637 205.112 89.8207 205.191 89.9781C205.249 89.713 205.367 89.4771 205.544 89.2705C205.97 89.591 206.324 89.5122 206.606 89.0346C206.835 89.4809 206.992 89.9526 207.077 90.4498C207.313 90.2924 207.549 90.1354 207.785 89.9781C207.893 90.2715 207.775 90.4679 207.431 90.5677C207.533 90.7847 207.611 90.9811 207.667 91.1573C208.14 90.6837 208.69 90.3693 209.318 90.2139C209.625 89.7016 209.861 89.1514 210.026 88.5629C210.597 88.6356 211.148 88.5568 211.677 88.3271C211.407 88.1089 211.407 87.9122 211.677 87.7374C212.043 87.3492 212.436 87.2707 212.856 87.5016C212.616 87.2542 212.577 86.9789 212.738 86.6761C212.816 86.7546 212.895 86.8334 212.974 86.9119C214.153 86.6395 215.214 86.1678 216.158 85.4968C216.113 85.1187 216.231 84.8041 216.512 84.5534C216.59 84.6319 216.669 84.7107 216.747 84.7893C216.989 84.0362 217.5 83.7218 218.28 83.8458C218.28 83.61 218.28 83.3741 218.28 83.1383C218.529 83.1734 218.764 83.1343 218.988 83.0203C219.463 82.3232 220.092 81.8908 220.875 81.7231Z" fill="white"/>
<path fill-rule="evenodd" clip-rule="evenodd" d="M110.731 91.3933C114.006 91.4042 117.269 91.4042 120.519 91.3933C121.013 91.6799 120.974 91.8766 120.401 91.983C120.519 92.0224 120.637 92.0615 120.755 92.1009C121.347 91.8278 121.976 91.6704 122.642 91.6292C123.585 91.7334 124.49 91.7728 125.354 91.7471C124.758 92.0575 124.758 92.3327 125.354 92.5726C125.197 92.6512 125.04 92.7299 124.882 92.8085C124.564 92.6042 124.367 92.3684 124.293 92.1009C123.212 92.4828 122.937 93.1118 123.467 93.9878C123.349 94.0663 123.231 94.1451 123.113 94.2236C122.484 94.1451 121.816 94.1451 121.109 94.2236C121.192 93.6168 121.074 93.0665 120.755 92.5726C120.675 93.5 120.4 94.3649 119.929 95.1671C119.507 93.9835 119.232 93.9835 119.104 95.1671C118.929 94.898 118.732 94.898 118.514 95.1671C118.357 94.8527 118.2 94.538 118.042 94.2236C117.724 94.7215 117.803 95.1541 118.278 95.5209C118.16 95.6388 118.042 95.7567 117.924 95.8747C117.478 95.0796 117.203 94.2147 117.099 93.2802C116.923 93.6319 116.766 93.9857 116.627 94.3416C116.928 94.9232 116.928 95.5129 116.627 96.1105C116.464 95.9867 116.346 95.8294 116.273 95.6388C116.111 95.8409 115.914 95.998 115.684 96.1105C115.42 95.1643 115.42 94.2208 115.684 93.2802C115.466 93.0111 115.269 93.0111 115.094 93.2802C114.775 93.0007 114.5 92.6861 114.269 92.3368C113.983 92.5193 113.983 92.7158 114.269 92.9264C114.021 93.0424 113.785 93.0033 113.561 92.8085C113.314 93.0167 113.039 93.1741 112.735 93.2802C111.87 93.0441 111.162 92.5724 110.613 91.865C110.032 92.3389 109.443 92.3783 108.844 91.983C108.922 91.9044 109.001 91.8256 109.08 91.7471C109.678 91.7032 110.228 91.5853 110.731 91.3933Z" fill="white"/>
<path fill-rule="evenodd" clip-rule="evenodd" d="M199.408 90.6863C199.708 90.8224 199.708 90.9795 199.408 91.158C198.927 91.3316 198.455 91.5281 197.993 91.7477C198.307 91.8262 198.622 91.905 198.936 91.9835C198.541 92.2611 198.227 92.6149 197.993 93.0449C197.638 93.339 197.284 93.339 196.932 93.0449C196.786 93.2687 196.825 93.4652 197.05 93.6345C196.788 93.785 196.513 93.9029 196.224 93.9883C195.724 93.7621 195.213 93.7228 194.691 93.8704C194.927 93.9489 195.163 94.0277 195.398 94.1063C194.943 94.1655 194.51 94.2834 194.101 94.4601C194.198 94.8669 194.158 95.2601 193.983 95.6394C193.764 95.2066 193.489 95.128 193.158 95.4035C192.839 95.0452 192.485 94.7308 192.096 94.4601C191.866 94.5726 191.669 94.7296 191.507 94.9318C191.096 94.4299 190.585 94.2334 189.974 94.3421C190.246 94.5577 190.206 94.7542 189.856 94.9318C189.429 94.8881 188.957 94.7311 188.441 94.4601C188.105 94.6263 187.791 94.7051 187.497 94.6959C187.353 94.2862 187.51 94.0504 187.969 93.9883C188.517 94.0617 189.067 94.1402 189.62 94.2242C189.734 94.0006 189.773 93.7647 189.738 93.5166C190.581 93.5862 191.328 93.3503 191.979 92.809C192.269 92.9524 192.583 93.031 192.922 93.0449C195.131 92.3743 197.292 91.5882 199.408 90.6863Z" fill="white"/>
<path fill-rule="evenodd" clip-rule="evenodd" d="M171.119 94.4602C171.199 94.6579 171.356 94.7366 171.59 94.6961C171.657 94.8822 171.775 95.0395 171.944 95.1678C172.431 94.9105 172.942 94.8711 173.477 95.0499C173.259 95.2503 173.259 95.4862 173.477 95.7574C173.391 96.2867 173.155 96.4046 172.77 96.1112C172.612 96.7403 172.455 97.3691 172.298 97.9981C171.558 98.4705 171.479 98.9814 172.062 99.5312C171.826 99.6491 171.59 99.7671 171.354 99.885C171.159 99.6692 170.923 99.5121 170.647 99.4133C170.083 99.5763 170.083 99.8121 170.647 100.121C170.464 100.602 170.189 100.759 169.821 100.593C168.919 101.064 168.88 101.497 169.703 101.89C169.281 102.012 168.888 101.934 168.524 101.654C168.773 101.327 168.812 100.973 168.642 100.593C168.406 100.907 168.17 100.907 167.934 100.593C167.645 101.17 167.291 101.209 166.873 100.711C166.952 100.632 167.03 100.553 167.109 100.475C166.61 99.9661 166.216 99.3765 165.93 98.7057C165.58 99.1503 165.108 99.3862 164.514 99.4133C163.418 99.3685 163.339 99.1326 164.279 98.7057C164.096 98.4201 163.9 98.4201 163.689 98.7057C163.056 98.3771 163.017 98.0627 163.571 97.7623C163.099 97.4479 162.628 97.4479 162.156 97.7623C163.424 98.7618 163.307 98.9189 161.802 98.234C161.295 97.2394 161.649 96.807 162.863 96.9367C162.785 96.8582 162.706 96.7794 162.628 96.7009C162.867 96.5785 163.024 96.3818 163.099 96.1112C163.103 95.6695 162.986 95.5909 162.745 95.8754C162.629 95.49 162.59 95.0968 162.628 94.6961C163.993 94.2555 165.251 94.4519 166.401 95.2857C166.28 95.7652 166.437 95.7652 166.873 95.2857C166.649 95.1164 166.61 94.9199 166.755 94.6961C166.971 94.8914 167.128 95.1272 167.227 95.4036C167.364 95.0494 167.561 94.735 167.816 94.4602C168.917 94.7605 170.018 94.7605 171.119 94.4602Z" fill="white"/>
<path fill-rule="evenodd" clip-rule="evenodd" d="M73.9316 102.479C73.5502 102.606 73.1571 102.684 72.7523 102.714C72.049 102.824 71.3414 102.902 70.6296 102.95C70.6296 102.636 70.6296 102.321 70.6296 102.007C70.3524 101.955 70.1166 102.034 69.922 102.243C70.0793 102.321 70.2364 102.4 70.3937 102.479C70.0718 102.818 69.718 103.133 69.3323 103.422C68.6087 103.026 68.5696 102.554 69.2144 102.007C69.1359 101.928 69.0571 101.85 68.9785 101.771C68.8212 101.928 68.6641 102.085 68.5068 102.243C68.2165 101.971 68.2165 101.696 68.5068 101.417C69.4764 100.675 70.4199 100.086 71.3371 99.6483C71.749 100.204 72.2992 100.439 72.9882 100.356C72.9377 99.9681 73.0165 99.6143 73.224 99.2945C74.2387 99.1108 75.2607 98.757 76.2902 98.2331C76.8372 98.5999 77.191 98.4426 77.3516 97.7614C77.4301 97.8399 77.5089 97.9187 77.5875 97.9973C77.704 97.6119 77.7431 97.2187 77.7054 96.818C77.7839 96.818 77.8627 96.818 77.9412 96.818C78.7875 96.7578 79.6524 96.7578 80.5357 96.818C81.0327 96.6198 81.6223 96.3054 82.3047 95.8745C82.5563 96.0375 82.8316 96.1554 83.1302 96.2283C82.9321 96.6212 83.05 96.6606 83.484 96.3462C83.972 96.5264 84.4831 96.6444 85.0171 96.7C84.3387 96.6394 83.7097 96.8753 83.1302 97.4076C83.7102 97.5784 83.946 97.8928 83.8378 98.351C84.1979 98.7308 84.5123 98.6522 84.7812 98.1152C84.6192 97.8411 84.58 97.5661 84.6633 97.2897C84.7418 97.3682 84.8206 97.447 84.8991 97.5255C85.0565 97.2111 85.2923 96.9753 85.6067 96.818C85.6192 97.3463 85.8157 97.8574 86.1964 98.351C85.5409 98.5607 84.9121 98.836 84.3095 99.1766C84.0404 99.3947 84.0404 99.5914 84.3095 99.7662C82.9957 99.8599 81.6985 100.056 80.4178 100.356C79.9791 100.31 79.5468 100.231 79.1206 100.12C78.85 100.195 78.6533 100.352 78.5309 100.592C78.4583 100.401 78.3403 100.244 78.1771 100.12C77.9398 100.223 77.9398 100.38 78.1771 100.592C77.5547 101.172 76.8077 101.486 75.9364 101.535C75.4428 101.188 75.0498 101.266 74.7571 101.771C74.213 101.561 73.938 101.797 73.9316 102.479Z" fill="white"/>
<path fill-rule="evenodd" clip-rule="evenodd" d="M143.993 102.007C139.517 101.477 135.036 101.005 130.549 100.592C116.397 98.5697 102.167 98.1766 87.8594 99.4127C88.4429 99.2695 89.1111 98.9549 89.8641 98.4693C90.5896 98.5572 91.3757 98.6358 92.2227 98.7051C94.048 98.5115 95.8563 98.2756 97.6473 97.9976C101.949 98.2858 106.155 98.2858 110.266 97.9976C110.456 98.0702 110.613 98.1881 110.737 98.3513C116.344 98.7959 121.887 99.2285 127.365 99.6485C127.797 99.57 128.23 99.4912 128.662 99.4127C128.899 98.4737 129.135 98.4737 129.37 99.4127C129.8 99.1936 130.114 99.3509 130.313 99.8844C133.797 100.443 137.296 100.915 140.809 101.3C141.414 101.197 142.004 101.04 142.578 100.828C143.19 101.146 143.819 101.421 144.464 101.653C144.248 101.719 144.091 101.837 143.993 102.007Z" fill="white"/>
<path fill-rule="evenodd" clip-rule="evenodd" d="M110.977 105.073C111.813 104.999 112.599 105.078 113.336 105.309C112.3 105.298 112.221 105.416 113.1 105.662C114.672 105.741 116.245 105.82 117.817 105.898C119.648 106.313 121.457 106.627 123.242 106.842C123.507 107.088 123.821 107.245 124.185 107.313C123.495 107.497 122.826 107.457 122.181 107.195C122.033 107.783 121.836 107.783 121.591 107.195C121.019 107.773 120.429 107.773 119.822 107.195C119.665 107.431 119.665 107.667 119.822 107.903C119.901 107.824 119.979 107.746 120.058 107.667C120.488 107.809 120.921 107.967 121.355 108.139C121.624 108.357 121.624 108.554 121.355 108.729C122.058 108.887 122.53 108.612 122.77 107.903C122.933 108.027 123.051 108.184 123.124 108.375C123.203 108.296 123.281 108.217 123.36 108.139C123.669 108.524 123.787 108.917 123.714 109.318C124.451 108.759 124.569 108.917 124.068 109.79C122.689 109.788 121.313 109.513 119.94 108.964C120.226 108.754 120.226 108.557 119.94 108.375C119.777 108.499 119.659 108.656 119.586 108.846C118.95 108.808 118.281 108.769 117.581 108.729C118.237 108.693 118.355 108.497 117.935 108.139C117.606 108.449 117.37 108.37 117.228 107.903C116.671 107.97 116.121 108.049 115.577 108.139C113.658 107.884 111.732 107.727 109.798 107.667C108.072 107.404 106.343 107.089 104.609 106.724C104.292 107.054 104.096 106.976 104.019 106.488C103.804 106.76 103.607 106.721 103.43 106.37C103.87 105.712 104.499 105.398 105.317 105.426C107.245 105.386 109.132 105.268 110.977 105.073Z" fill="white"/>
<path fill-rule="evenodd" clip-rule="evenodd" d="M100.126 105.309C100.957 105.466 101.821 105.623 102.721 105.781C102.911 106.151 102.99 106.544 102.956 106.96C99.8892 106.999 96.8231 106.96 93.7578 106.842C93.9151 106.685 94.0722 106.528 94.2295 106.37C95.6435 106.018 97.0587 105.743 98.475 105.545C99.0189 105.428 99.5692 105.35 100.126 105.309Z" fill="white"/>
<path fill-rule="evenodd" clip-rule="evenodd" d="M110.966 105.073C109.121 105.269 107.234 105.387 105.306 105.427C104.488 105.398 103.859 105.713 103.419 106.37C103.596 106.721 103.793 106.761 104.008 106.488C104.085 106.976 104.281 107.055 104.598 106.724C106.332 107.09 108.061 107.404 109.787 107.668C109.237 107.668 108.686 107.668 108.136 107.668C100.098 106.996 92.079 107.114 84.0781 108.021C88.8097 106.816 93.6055 105.99 98.4656 105.545C97.0493 105.743 95.6341 106.018 94.2201 106.37C94.0628 106.528 93.9057 106.685 93.7484 106.842C96.8137 106.96 99.8799 106.999 102.947 106.96C102.981 106.545 102.902 106.151 102.711 105.781C101.812 105.623 100.947 105.466 100.117 105.309C103.715 105.077 107.331 104.998 110.966 105.073Z" fill="white"/>
<path fill-rule="evenodd" clip-rule="evenodd" d="M77.7208 96.8186C77.7585 97.2193 77.7194 97.6125 77.6029 97.9979C77.5243 97.9194 77.4456 97.8406 77.367 97.762C77.2064 98.4432 76.8526 98.6005 76.3056 98.2338C75.2761 98.7576 74.2541 99.1114 73.2395 99.2951C73.0319 99.615 72.9531 99.9688 73.0036 100.357C72.3146 100.44 71.7644 100.204 71.3526 99.6489C70.4353 100.086 69.4919 100.676 68.5222 101.418C68.2319 101.697 68.2319 101.972 68.5222 102.243C68.6796 102.086 68.8366 101.929 68.994 101.772C69.0725 101.85 69.1513 101.929 69.2298 102.008C68.585 102.555 68.6241 103.027 69.3477 103.423C69.7334 103.134 70.0872 102.819 70.4091 102.479C70.2518 102.401 70.0947 102.322 69.9374 102.243C70.132 102.034 70.3678 101.956 70.645 102.008C70.645 102.322 70.645 102.637 70.645 102.951C71.3568 102.903 72.0644 102.824 72.7677 102.715C69.1324 103.954 65.516 105.29 61.9181 106.725C61.3169 106.698 60.7667 106.855 60.2671 107.196C60.1886 107.157 60.1098 107.118 60.0312 107.079C60.2122 106.732 60.3692 106.378 60.503 106.017C64.4463 102.706 68.8491 100.112 73.7112 98.2338C75.0122 97.6691 76.3486 97.1974 77.7208 96.8186Z" fill="white"/>
<path fill-rule="evenodd" clip-rule="evenodd" d="M60.5019 106.017C60.3681 106.378 60.211 106.732 60.0301 107.079C60.1087 107.118 60.1874 107.157 60.266 107.196C60.7656 106.855 61.3159 106.698 61.9172 106.725C59.7251 107.938 57.5236 109.078 55.3125 110.145C57.0172 108.713 58.7469 107.337 60.5019 106.017Z" fill="white"/>
<path fill-rule="evenodd" clip-rule="evenodd" d="M113.322 105.309C118.531 105.52 123.642 106.228 128.652 107.432C127.803 107.71 127.489 108.26 127.709 109.083C126.993 109.2 126.403 109.515 125.94 110.026C125.559 109.459 125.402 109.459 125.468 110.026C125.803 110.252 126.157 110.449 126.529 110.616C129.623 111.368 132.65 112.036 135.61 112.62C136.568 112.604 137.511 112.604 138.44 112.62C139.705 112.893 141.002 113.286 142.332 113.8C142.828 113.678 143.261 113.6 143.629 113.564C149.211 114.62 154.832 114.895 160.493 114.389C160.165 114.18 160.204 114.062 160.61 114.036C160.925 114.193 161.239 114.35 161.554 114.507C161.985 114.066 162.496 114.066 163.087 114.507C164.784 114.503 166.475 114.503 168.158 114.507C169.188 114.358 170.171 114.043 171.106 113.564C172.081 113.707 173.025 113.865 173.936 114.036C163.412 115.2 152.877 115.279 142.332 114.271C133.857 112.841 125.445 111.072 117.095 108.965C114.079 108.49 111.092 108.058 108.133 107.667C108.683 107.667 109.234 107.667 109.784 107.667C111.718 107.727 113.644 107.884 115.562 108.139C116.107 108.05 116.657 107.971 117.213 107.903C117.356 108.371 117.592 108.449 117.921 108.139C118.34 108.497 118.222 108.694 117.567 108.729C118.267 108.769 118.935 108.808 119.572 108.847C119.644 108.656 119.762 108.499 119.926 108.375C120.211 108.558 120.211 108.754 119.926 108.965C121.299 109.513 122.675 109.788 124.053 109.79C124.554 108.917 124.436 108.76 123.699 109.318C123.772 108.917 123.654 108.524 123.345 108.139C123.267 108.218 123.188 108.297 123.11 108.375C123.037 108.184 122.919 108.027 122.756 107.903C122.515 108.612 122.044 108.888 121.341 108.729C121.61 108.554 121.61 108.357 121.341 108.139C120.906 107.967 120.474 107.81 120.043 107.667C119.965 107.746 119.886 107.825 119.808 107.903C119.65 107.667 119.65 107.432 119.808 107.196C120.415 107.773 121.004 107.773 121.577 107.196C121.822 107.783 122.019 107.783 122.166 107.196C122.812 107.458 123.48 107.497 124.171 107.314C123.807 107.245 123.492 107.088 123.228 106.842C121.442 106.627 119.634 106.313 117.803 105.899C116.23 105.82 114.658 105.741 113.086 105.663C112.207 105.417 112.286 105.299 113.322 105.309Z" fill="white"/>
<path fill-rule="evenodd" clip-rule="evenodd" d="M128.652 107.432C129.509 107.577 130.374 107.656 131.246 107.668C139.933 109.776 148.738 111.034 157.662 111.442C158.342 111.771 159.364 112.007 160.728 112.149C162.63 111.932 164.556 111.932 166.507 112.149C168.392 111.826 170.279 111.59 172.167 111.442C172.423 111.629 172.698 111.786 172.993 111.914C174.801 111.599 176.609 111.285 178.417 110.97C179.39 111.287 180.294 111.13 181.13 110.498C181.854 110.569 182.561 110.569 183.252 110.498C183.471 110.066 183.746 109.987 184.078 110.263C185.496 109.64 185.575 109.798 184.314 110.734C183.909 110.473 183.752 110.63 183.842 111.206C183.454 111.257 183.1 111.178 182.781 110.97C181.868 111.47 180.846 111.863 179.714 112.149C179.481 111.81 179.166 111.574 178.771 111.442C178.261 111.635 177.829 112.067 177.474 112.739C176.479 113.104 175.457 113.379 174.408 113.565C174.437 113.708 174.515 113.786 174.644 113.8C174.476 114.014 174.24 114.092 173.936 114.036C173.024 113.866 172.081 113.708 171.106 113.565C170.17 114.044 169.188 114.358 168.158 114.508C166.474 114.504 164.784 114.504 163.087 114.508C162.495 114.067 161.984 114.067 161.554 114.508C161.239 114.351 160.925 114.194 160.61 114.036C160.204 114.062 160.165 114.18 160.492 114.39C154.832 114.896 149.211 114.621 143.629 113.565C143.261 113.601 142.828 113.679 142.331 113.8C141.001 113.287 139.704 112.894 138.44 112.621C137.511 112.605 136.568 112.605 135.61 112.621C132.649 112.037 129.623 111.368 126.529 110.616C126.156 110.45 125.803 110.253 125.468 110.027C125.402 109.46 125.559 109.46 125.94 110.027C126.403 109.515 126.993 109.201 127.708 109.083C127.489 108.261 127.803 107.711 128.652 107.432Z" fill="white"/>
<path fill-rule="evenodd" clip-rule="evenodd" d="M179.843 112.857C178.147 113.322 176.418 113.636 174.654 113.8C174.526 113.786 174.447 113.708 174.418 113.565C175.468 113.379 176.49 113.104 177.484 112.739C177.839 112.067 178.272 111.635 178.781 111.442C179.177 111.574 179.491 111.81 179.725 112.149C180.856 111.863 181.878 111.47 182.791 110.97C183.111 111.178 183.465 111.256 183.852 111.206C183.763 110.63 183.92 110.473 184.324 110.734C185.586 109.797 185.507 109.64 184.088 110.263C183.757 109.987 183.482 110.066 183.263 110.498C182.572 110.569 181.864 110.569 181.14 110.498C180.305 111.13 179.401 111.287 178.428 110.97C176.619 111.285 174.811 111.599 173.003 111.914C172.708 111.786 172.433 111.629 172.177 111.442C170.289 111.59 168.403 111.826 166.517 112.149C164.566 111.932 162.64 111.932 160.738 112.149C159.374 112.007 158.352 111.771 157.672 111.442C162.154 111.481 166.635 111.442 171.116 111.324C175.536 111.057 179.861 110.389 184.088 109.319C186.941 108.787 189.693 107.923 192.343 106.725C192.625 106.806 192.625 106.924 192.343 107.078C188.457 109.651 184.29 111.577 179.843 112.857Z" fill="white"/>
<path d="M32.5665 148.588V130.097H37.7968V148.588H32.5665ZM20.204 148.588V130.097H25.4343V148.588H20.204ZM25.0645 141.376V137.044H32.9364V141.376H25.0645ZM41.7699 148.588V130.097H59.1251V148.588H53.9476V133.082L55.1099 134.244H45.7851L46.921 133.082V148.588H41.7699ZM72.1649 148.957C70.6856 148.957 69.3208 148.72 68.0705 148.244C66.8201 147.769 65.7283 147.1 64.7949 146.237C63.8792 145.356 63.166 144.335 62.6553 143.172C62.1446 142.01 61.8892 140.733 61.8892 139.342C61.8892 137.951 62.1446 136.674 62.6553 135.512C63.166 134.35 63.8792 133.337 64.7949 132.474C65.7283 131.594 66.8201 130.916 68.0705 130.44C69.3208 129.965 70.6856 129.727 72.1649 129.727C73.6618 129.727 75.0266 129.965 76.2594 130.44C77.5097 130.916 78.5927 131.594 79.5085 132.474C80.4242 133.337 81.1375 134.35 81.6482 135.512C82.1765 136.674 82.4406 137.951 82.4406 139.342C82.4406 140.733 82.1765 142.019 81.6482 143.199C81.1375 144.361 80.4242 145.374 79.5085 146.237C78.5927 147.1 77.5097 147.769 76.2594 148.244C75.0266 148.72 73.6618 148.957 72.1649 148.957ZM72.1649 144.625C72.8693 144.625 73.5209 144.502 74.1197 144.255C74.736 144.009 75.2644 143.657 75.7046 143.199C76.1625 142.723 76.5147 142.16 76.7613 141.508C77.0254 140.857 77.1575 140.135 77.1575 139.342C77.1575 138.532 77.0254 137.81 76.7613 137.176C76.5147 136.524 76.1625 135.97 75.7046 135.512C75.2644 135.036 74.736 134.675 74.1197 134.429C73.5209 134.182 72.8693 134.059 72.1649 134.059C71.4605 134.059 70.8001 134.182 70.1837 134.429C69.585 134.675 69.0567 135.036 68.5988 135.512C68.1585 135.97 67.8063 136.524 67.5422 137.176C67.2956 137.81 67.1724 138.532 67.1724 139.342C67.1724 140.135 67.2956 140.857 67.5422 141.508C67.8063 142.16 68.1585 142.723 68.5988 143.199C69.0567 143.657 69.585 144.009 70.1837 144.255C70.8001 144.502 71.4605 144.625 72.1649 144.625ZM105.287 148.588V130.097H110.517V148.588H105.287ZM92.9246 148.588V130.097H98.1549V148.588H92.9246ZM97.7851 141.376V137.044H105.657V141.376H97.7851ZM112.641 148.588L120.804 130.097H125.955L134.144 148.588H128.702L122.31 132.659H124.37L117.977 148.588H112.641ZM117.106 144.995L118.453 141.138H127.487L128.834 144.995H117.106ZM136.263 148.588V130.097H144.716C146.406 130.097 147.859 130.37 149.074 130.916C150.307 131.461 151.258 132.254 151.927 133.293C152.597 134.314 152.931 135.529 152.931 136.938C152.931 138.33 152.597 139.536 151.927 140.557C151.258 141.579 150.307 142.371 149.074 142.935C147.859 143.481 146.406 143.754 144.716 143.754H139.169L141.493 141.482V148.588H136.263ZM141.493 142.037L139.169 139.633H144.399C145.491 139.633 146.301 139.395 146.829 138.919C147.375 138.444 147.648 137.784 147.648 136.938C147.648 136.075 147.375 135.406 146.829 134.931C146.301 134.455 145.491 134.217 144.399 134.217H139.169L141.493 131.814V142.037ZM164.646 148.957C163.166 148.957 161.802 148.72 160.551 148.244C159.301 147.769 158.209 147.1 157.276 146.237C156.36 145.356 155.647 144.335 155.136 143.172C154.625 142.01 154.37 140.733 154.37 139.342C154.37 137.951 154.625 136.674 155.136 135.512C155.647 134.35 156.36 133.337 157.276 132.474C158.209 131.594 159.301 130.916 160.551 130.44C161.802 129.965 163.166 129.727 164.646 129.727C166.143 129.727 167.507 129.965 168.74 130.44C169.99 130.916 171.074 131.594 171.989 132.474C172.905 133.337 173.618 134.35 174.129 135.512C174.657 136.674 174.921 137.951 174.921 139.342C174.921 140.733 174.657 142.019 174.129 143.199C173.618 144.361 172.905 145.374 171.989 146.237C171.074 147.1 169.99 147.769 168.74 148.244C167.507 148.72 166.143 148.957 164.646 148.957ZM164.646 144.625C165.35 144.625 166.002 144.502 166.6 144.255C167.217 144.009 167.745 143.657 168.185 143.199C168.643 142.723 168.995 142.16 169.242 141.508C169.506 140.857 169.638 140.135 169.638 139.342C169.638 138.532 169.506 137.81 169.242 137.176C168.995 136.524 168.643 135.97 168.185 135.512C167.745 135.036 167.217 134.675 166.6 134.429C166.002 134.182 165.35 134.059 164.646 134.059C163.941 134.059 163.281 134.182 162.665 134.429C162.066 134.675 161.537 135.036 161.08 135.512C160.639 135.97 160.287 136.524 160.023 137.176C159.776 137.81 159.653 138.532 159.653 139.342C159.653 140.135 159.776 140.857 160.023 141.508C160.287 142.16 160.639 142.723 161.08 143.199C161.537 143.657 162.066 144.009 162.665 144.255C163.281 144.502 163.941 144.625 164.646 144.625ZM181.772 145.101L176.198 144.44C176.815 144.458 177.317 144.255 177.704 143.833C178.109 143.393 178.426 142.785 178.655 142.01C178.901 141.235 179.078 140.32 179.183 139.263C179.306 138.206 179.395 137.053 179.447 135.802L179.659 130.097H194.557V146.316H189.406V134.244H184.097L184.017 136.252C183.982 137.326 183.912 138.33 183.806 139.263C183.718 140.196 183.586 141.05 183.41 141.825C183.251 142.6 183.031 143.269 182.749 143.833C182.485 144.379 182.159 144.801 181.772 145.101ZM175.644 152.312V144.44H197.067V152.312H192.285V148.588H180.451V152.312H175.644ZM211.93 148.588V130.097H217.161V148.588H211.93ZM199.568 148.588V130.097H204.798V148.588H199.568ZM204.428 141.376V137.044H212.3V141.376H204.428ZM221.134 148.588V130.097H226.285V135.987H230.564C232.818 135.987 234.562 136.489 235.794 137.493C237.045 138.497 237.67 140.003 237.67 142.01C237.67 144.176 236.974 145.814 235.583 146.923C234.192 148.033 232.29 148.588 229.877 148.588H221.134ZM226.285 144.837H229.534C230.414 144.837 231.11 144.599 231.621 144.123C232.149 143.648 232.413 142.979 232.413 142.116C232.413 141.235 232.149 140.619 231.621 140.267C231.11 139.897 230.414 139.712 229.534 139.712H226.285V144.837ZM239.704 148.588V130.097H244.855V148.588H239.704ZM248.839 148.588V130.097H263.341V134.138H254.017V144.546H263.685V148.588H248.839ZM253.647 141.165V137.255H262.232V141.165H253.647Z" fill="white"/>
<path d="M91.111 180.905C90.7588 180.905 90.3801 180.878 89.9751 180.825C89.5877 180.773 89.1738 180.693 88.7336 180.588L89.0241 176.308C89.2707 176.361 89.5084 176.388 89.7374 176.388C90.4594 176.388 91.0053 176.106 91.3751 175.542C91.745 174.961 92.0003 174.151 92.1412 173.112C92.2997 172.073 92.3965 170.858 92.4318 169.467L92.6959 162.097H107.594V180.588H102.443V165.082L103.579 166.244H96.1035L97.1602 165.029L97.0281 169.255C96.9753 171.052 96.852 172.672 96.6583 174.116C96.4646 175.542 96.1564 176.766 95.7337 177.788C95.3111 178.791 94.7211 179.566 93.9639 180.112C93.2242 180.64 92.2733 180.905 91.111 180.905ZM120.637 180.957C119.157 180.957 117.793 180.72 116.542 180.244C115.292 179.769 114.2 179.1 113.267 178.237C112.351 177.356 111.638 176.335 111.127 175.172C110.616 174.01 110.361 172.733 110.361 171.342C110.361 169.951 110.616 168.674 111.127 167.512C111.638 166.35 112.351 165.337 113.267 164.474C114.2 163.594 115.292 162.916 116.542 162.44C117.793 161.965 119.157 161.727 120.637 161.727C122.134 161.727 123.498 161.965 124.731 162.44C125.982 162.916 127.065 163.594 127.98 164.474C128.896 165.337 129.609 166.35 130.12 167.512C130.648 168.674 130.912 169.951 130.912 171.342C130.912 172.733 130.648 174.019 130.12 175.199C129.609 176.361 128.896 177.374 127.98 178.237C127.065 179.1 125.982 179.769 124.731 180.244C123.498 180.72 122.134 180.957 120.637 180.957ZM120.637 176.625C121.341 176.625 121.993 176.502 122.591 176.255C123.208 176.009 123.736 175.657 124.176 175.199C124.634 174.723 124.987 174.16 125.233 173.508C125.497 172.857 125.629 172.135 125.629 171.342C125.629 170.532 125.497 169.81 125.233 169.176C124.987 168.524 124.634 167.97 124.176 167.512C123.736 167.036 123.208 166.675 122.591 166.429C121.993 166.182 121.341 166.059 120.637 166.059C119.932 166.059 119.272 166.182 118.656 166.429C118.057 166.675 117.528 167.036 117.071 167.512C116.63 167.97 116.278 168.524 116.014 169.176C115.767 169.81 115.644 170.532 115.644 171.342C115.644 172.135 115.767 172.857 116.014 173.508C116.278 174.16 116.63 174.723 117.071 175.199C117.528 175.657 118.057 176.009 118.656 176.255C119.272 176.502 119.932 176.625 120.637 176.625ZM137.763 177.101L132.189 176.44C132.806 176.458 133.308 176.255 133.695 175.833C134.1 175.393 134.417 174.785 134.646 174.01C134.892 173.235 135.069 172.32 135.174 171.263C135.298 170.206 135.386 169.053 135.438 167.802L135.65 162.097H150.548V178.316H145.397V166.244H140.088L140.008 168.252C139.973 169.326 139.903 170.33 139.797 171.263C139.709 172.196 139.577 173.05 139.401 173.825C139.242 174.6 139.022 175.269 138.74 175.833C138.476 176.379 138.15 176.801 137.763 177.101ZM131.635 184.312V176.44H153.058V184.312H148.276V180.588H136.442V184.312H131.635ZM167.234 180.588L162.031 171.791L166.231 169.308L173.125 180.588H167.234ZM155.453 180.588V162.097H160.657V180.588H155.453ZM159.151 173.508V169.282H165.861V173.508H159.151ZM166.733 171.897L161.898 171.369L167.578 162.097H173.072L166.733 171.897ZM174.855 180.588V162.097H180.006V172.954L187.64 162.097H192.553V180.588H187.402V169.757L179.794 180.588H174.855Z" fill="#FF0000"/>
<path d="M265.056 130L280.608 62.8H295.968L289.728 89.392H296.832L316.224 62.8H331.488L330.336 67.504L309.216 95.44L318.336 125.296L317.28 130H303.168L295.776 102.352H286.752L280.416 130H265.056ZM325.9 130L341.452 62.8H356.236L344.812 111.856H346.252L373.132 62.8H396.364L380.812 130H366.028L377.356 80.944H375.916L349.036 130H325.9ZM394.244 130L409.796 62.8H432.068L432.74 102.64H434.564L453.668 62.8H477.476L461.924 130H447.044L457.988 82.576H456.452L437.54 121.168H422.564L421.604 82.576H419.972L409.028 130H394.244ZM475.337 130L490.889 62.8H513.161L513.833 102.64H515.657L534.761 62.8H558.569L543.017 130H528.137L539.081 82.576H537.545L518.633 121.168H503.657L502.697 82.576H501.065L490.121 130H475.337ZM556.431 130L571.983 62.8H616.911L613.935 75.664H584.367L581.007 90.16H602.895L600.207 102.064H578.223L574.767 117.136H605.103L602.127 130H556.431ZM611.744 130L627.296 62.8H664.832L673.76 74.416L667.616 100.912L655.328 110.992H631.52L627.104 130H611.744ZM634.4 98.128H649.664L653.696 94.864L657.44 78.64L655.136 75.664H639.584L634.4 98.128ZM671.462 130L687.014 62.8H701.798L690.374 111.856H691.814L718.694 62.8H741.926L726.374 130H711.59L722.918 80.944H721.478L694.598 130H671.462ZM737.694 130L738.75 125.392L752.958 104.56L746.526 96.304L751.998 72.88L764.382 62.8H803.838L788.286 130H772.926L778.014 108.016H767.742L753.438 130H737.694ZM764.958 95.632H780.894L785.598 75.184H770.334L766.014 78.736L762.75 92.752L764.958 95.632Z" fill="white"/>
<path d="M841.048 130L843.64 118.672H810.904L814.456 103.312L848.92 62.8H871.192L861.016 106.288H868.12L865.336 118.672H858.232L855.64 130H841.048ZM829.528 106.288H846.52L852.952 78.448H851.512L830.008 104.464L829.528 106.288ZM869.56 130L876.376 100.624L888.856 90.544H908.632L911.512 88.24L913.912 77.872L912.184 75.664H884.248L887.224 62.8H922.264L930.424 73.36L925.528 94.192L914.392 103.216H894.424L890.392 106.48L887.992 117.04H919.96L916.984 130H869.56ZM939.73 130L930.034 117.328L940.114 73.84L953.746 62.8H980.818L990.514 75.472L980.434 118.96L966.802 130H939.73ZM949.33 117.136H961.426L966.322 113.2L974.194 79.408L971.218 75.664H959.122L954.13 79.6L946.354 113.392L949.33 117.136ZM989.895 130L1001.24 81H1028.61L1035.12 89.47L1030.64 108.79L1021.68 116.14H1004.32L1001.1 130H989.895ZM1006.42 106.76H1017.55L1020.49 104.38L1023.22 92.55L1021.54 90.38H1010.2L1006.42 106.76ZM1033.44 130L1044.78 81H1072.36L1078.94 89.47L1075.02 106.13L1067.67 112.15L1071.59 126.57L1070.82 130H1061.02L1057.1 113.97H1048.28L1044.57 130H1033.44ZM1050.38 104.94H1061.58L1064.73 102.35L1067.04 92.41L1065.22 90.03H1053.81L1050.38 104.94ZM1087.3 130L1080.23 120.76L1087.58 89.05L1097.52 81H1118.94L1126.01 90.24L1118.66 121.95L1108.79 130H1087.3ZM1094.3 120.62H1104.87L1108.44 117.75L1114.11 93.11L1112.01 90.38H1101.44L1097.8 93.25L1092.13 117.89L1094.3 120.62ZM1127.54 114.74L1129.5 106.27H1146.72L1144.76 114.74H1127.54ZM1144.04 130L1144.81 126.64L1161.19 104.8L1155.45 84.36L1156.29 81H1166.44L1169.8 96.75H1170.99L1181.77 81H1193.18L1192.34 84.36L1177.29 104.38L1183.52 126.64L1182.75 130H1172.6L1168.75 112.29H1167.56L1155.45 130H1144.04Z" fill="#FF0000"/>
</svg>
